<svg xmlns="http://www.w3.org/2000/svg" xmlns:xlink="http://www.w3.org/1999/xlink" viewBox="0 0 868.6 865.51"><defs><style>.cls-1{fill:none;}.cls-2{clip-path:url(#clip-path);}.cls-3{fill:#c1e1f7;}.cls-17,.cls-4,.cls-7{fill:#fff;}.cls-4{opacity:0.51;}.cls-5{fill:#c3e1ed;opacity:0.8;}.cls-6,.cls-9{fill:#dee5f8;}.cls-26,.cls-7{opacity:0.4;}.cls-8{fill:#1f3c88;}.cls-9{opacity:0.1;}.cls-10{fill:#102048;}.cls-11{fill:#22272e;}.cls-12{fill:#617085;}.cls-13,.cls-14{fill:#515d6e;}.cls-13{stroke:#515d6e;stroke-miterlimit:10;}.cls-15{fill:#ebe6e2;}.cls-16{fill:#d8826c;}.cls-18{fill:#f5ae94;}.cls-19{fill:#dd876c;}.cls-20{fill:#0d0d0c;}.cls-21{fill:#5c8696;}.cls-22{fill:#712311;}.cls-23{fill:#d5503b;}.cls-24{fill:#242422;}.cls-25{fill:#f0a98f;}.cls-26{fill:#eaeced;}.cls-27{fill:#5c311e;}.cls-28{fill:#f5f0eb;}.cls-29{fill:#8c4c09;}.cls-30{fill:#c28c4b;}.cls-31{fill:#d51e2b;}.cls-32{fill:#ba1a26;}.cls-33{fill:#f7514a;}.cls-34{fill:#ff5e04;}.cls-35{fill:#fbc343;}.cls-36{fill:#fdbd8e;}.cls-37{fill:#fb9988;}.cls-38{fill:#fd7d6f;}.cls-39{fill:#ffdaba;}.cls-40{fill:#ff9300;}.cls-41{fill:#cf691f;}.cls-42{fill:#6c3509;}.cls-43{fill:#85441d;}.cls-44{fill:#965326;}.cls-45{fill:#b5693c;}.cls-46{fill:#fff0e7;}.cls-47{fill:#161818;}.cls-48{fill:#2e3032;}.cls-49{fill:#1f2123;}.cls-50{fill:#ffb800;}</style><clipPath id="clip-path" transform="translate(-100.79 -12.89)"><rect class="cls-1" width="1127" height="552.45"/></clipPath></defs><g id="Capa_2" data-name="Capa 2"><g id="Capa_1-2" data-name="Capa 1"><g class="cls-2"><circle class="cls-3" cx="435.08" cy="432.75" r="432.75"/></g><path class="cls-4" d="M913.29,403a25.49,25.49,0,0,1,5-19.11c10.39-13.66,15.45-29.86,13-46.36C925.71,299.28,882.16,274,834,281c-32.3,4.71-58.46,22.79-70.49,45.73a25.23,25.23,0,0,1-24.44,13.65,50.09,50.09,0,0,0-11.63.35,48.31,48.31,0,0,0-25,11.36,25.47,25.47,0,0,1-22.93,5.55,100.28,100.28,0,0,0-37.77-1.33c-15.35,2.24-29,7.42-39.3,14.25A25.53,25.53,0,0,1,578.35,373a36.18,36.18,0,0,0-42,10,26.16,26.16,0,0,1-16.91,9.39l-1,.13c-.73-.65-1.43-1.32-2.11-2a37,37,0,0,0-40.07-9.17,35.5,35.5,0,0,1-30-2.59C436,372.94,423,368.69,408.61,367a104.73,104.73,0,0,0-35.19,1.53,35.93,35.93,0,0,1-29.24-5.88,49.79,49.79,0,0,0-23.77-9.25,52.13,52.13,0,0,0-8.15-.33,35.62,35.62,0,0,1-31.34-16.63c-13.68-21.39-39.82-37.55-71.29-41.28-49.5-5.87-93.41,21.24-98.07,60.56-1.9,16,3,31.6,12.87,44.83A35.57,35.57,0,0,1,131.36,426L125,479.75a35.2,35.2,0,0,0,30.82,39.1l361.92,42.93a35.17,35.17,0,0,0,32.39-13.95l351.12-51.24a25.46,25.46,0,0,0,21.51-28.86Z" transform="translate(-100.79 -12.89)"/><path class="cls-5" d="M969.39,435.2c.17-29.26-29.55-53.15-66.38-53.37-31.22-.18-57.52,16.7-64.92,39.67a36.26,36.26,0,0,0-21.63-7.08c-11.55-.07-21.76,5-27.76,12.67-9-6.48-22.76-10.67-38.16-10.76-17.25-.1-32.46,5-41.34,12.71a27.56,27.56,0,0,0-45.75,1.32,66.53,66.53,0,0,0-25.22.52c-24.89,5.15-42.42,22.1-39.16,37.87,2.21,10.65,13.35,18,28,20.1l-.36,60.2,321.33,1.88.46-77.55C961.29,463.8,969.3,450.26,969.39,435.2Z" transform="translate(-100.79 -12.89)"/><path class="cls-5" d="M100.79,433c.29-29.25,30.37-52.68,67.2-52.33,31.22.3,57.25,17.59,64.3,40.67A36.23,36.23,0,0,1,254,414.54c11.56.11,21.68,5.31,27.57,13.1,9.12-6.34,22.91-10.31,38.32-10.16,17.25.16,32.37,5.46,41.13,13.34a27.57,27.57,0,0,1,45.73,2,66.34,66.34,0,0,1,25.21.91c24.81,5.54,42.07,22.76,38.57,38.47-2.37,10.61-13.63,17.81-28.32,19.66l-.58,60.2L120.33,549l.74-77.56C108.45,461.68,100.65,448,100.79,433Z" transform="translate(-100.79 -12.89)"/><path class="cls-6" d="M743,209.42a6.71,6.71,0,0,1-.47,2.48H715.89l0-.05a.08.08,0,0,1,0,.05l-2,0c-13.18.08-86.83.49-86.83-.16,0-7.51,5.75-13.59,12.82-13.59a12.22,12.22,0,0,1,4.69.93,7.58,7.58,0,0,1,4.93-1.83,7.79,7.79,0,0,1,6.51,3.62.61.61,0,0,1,0-.12,15.14,15.14,0,0,1,7.51-7,22.55,22.55,0,0,1,9.56-2.06,24.32,24.32,0,0,1,3,.19,21.9,21.9,0,0,1,19.38-12.22c10.7,0,19.63,8.1,21.62,18.83a7.5,7.5,0,0,1,4.14-1.25,7.82,7.82,0,0,1,7,4.51,12.64,12.64,0,0,1,4.32-.74c4.13,0,7.71,1.92,9.41,4.7A7,7,0,0,1,743,209.42Z" transform="translate(-100.79 -12.89)"/><path class="cls-7" d="M741.91,205.74a39.37,39.37,0,0,0-10.59-.83l-23.77.27c-9.5.11-18-5.32-27.66-4.44-4.65.43-9.39,2.33-13.86,2.59-3.54.21-7.85-.42-10-2.56a15.14,15.14,0,0,1,7.51-7,22.55,22.55,0,0,1,9.56-2.06,24.32,24.32,0,0,1,3,.19,21.9,21.9,0,0,1,19.38-12.22c10.7,0,19.63,8.1,21.62,18.83a7.5,7.5,0,0,1,4.14-1.25,7.82,7.82,0,0,1,7,4.51,12.64,12.64,0,0,1,4.32-.74C736.63,201,740.21,203,741.91,205.74Z" transform="translate(-100.79 -12.89)"/><path class="cls-6" d="M398.28,260.24a4.34,4.34,0,0,1-.32,1.63H380.5l0,0s0,0,0,0-58.32.37-58.32-.1a8.67,8.67,0,0,1,8.41-8.92,8.09,8.09,0,0,1,3.08.61,5,5,0,0,1,3.23-1.2,5.15,5.15,0,0,1,4.28,2.37c1.26-2.78,4.31-4.93,8.12-5.69a15.07,15.07,0,0,1,3.12-.32,14,14,0,0,1,2,.12,14.36,14.36,0,0,1,12.72-8c7,0,12.89,5.32,14.2,12.36a4.82,4.82,0,0,1,2.72-.82,5.15,5.15,0,0,1,4.59,3,8.38,8.38,0,0,1,2.84-.5C395.19,254.72,398.28,257.2,398.28,260.24Z" transform="translate(-100.79 -12.89)"/><path class="cls-7" d="M398.28,260.24a4.34,4.34,0,0,1-.32,1.63H387.84a23.25,23.25,0,0,0-1.82-2.94c-3.46-4-10.67-.79-14.85-4-.75-.57-1.37-1.33-2.16-1.86-2.42-1.62-5.64-.61-8.46.16s-6.11,1.22-8.69-.27a5.56,5.56,0,0,1-2.61-4,15.07,15.07,0,0,1,3.12-.32,14,14,0,0,1,2,.12,14.36,14.36,0,0,1,12.72-8c7,0,12.89,5.32,14.2,12.36a4.82,4.82,0,0,1,2.72-.82,5.15,5.15,0,0,1,4.59,3,8.38,8.38,0,0,1,2.84-.5C395.19,254.72,398.28,257.2,398.28,260.24Z" transform="translate(-100.79 -12.89)"/><path class="cls-6" d="M453.14,132.26c0,.69-86.1.14-86.1.14a.09.09,0,0,1,0-.05l-.06.05H341.18a6.73,6.73,0,0,1-.45-2.4c0-4.5,4.54-8.13,10.15-8.13a12.3,12.3,0,0,1,4.18.71,7.61,7.61,0,0,1,6.79-4.36,7.33,7.33,0,0,1,4,1.2c1.93-10.4,10.59-18.24,21-18.24H387A21.22,21.22,0,0,1,405.6,113a22.65,22.65,0,0,1,2.89-.18c7.69,0,14.24,3.71,16.59,8.88a7.57,7.57,0,0,1,6.31-3.5,7.31,7.31,0,0,1,4.78,1.78,11.68,11.68,0,0,1,4.54-.91A12.42,12.42,0,0,1,452,126.65,13.71,13.71,0,0,1,453.14,132.26Z" transform="translate(-100.79 -12.89)"/><path class="cls-7" d="M452,126.65c-3.88,1.3-8.24,1.47-12.38,1.56-9.68.21-20,.27-28.2-4.81-2.86-1.76-5.38-4.1-8.45-5.42-5.15-2.23-11.76-1.63-15.55-5.75a8.71,8.71,0,0,1-1-10.09,9.11,9.11,0,0,1,.68-1A21.22,21.22,0,0,1,405.6,113a22.65,22.65,0,0,1,2.89-.18c7.69,0,14.24,3.71,16.59,8.88a7.57,7.57,0,0,1,6.31-3.5,7.31,7.31,0,0,1,4.78,1.78,11.68,11.68,0,0,1,4.54-.91A12.42,12.42,0,0,1,452,126.65Z" transform="translate(-100.79 -12.89)"/><polygon class="cls-8" points="644.05 534.55 298.6 536.34 219.46 536.74 254.56 466.54 290.76 434.73 340.12 419.37 362.97 388.3 466.81 388.3 507.5 422.2 568.37 441.95 603.93 475.31 604.77 476.56 642.98 532.97 644.05 534.55"/><polygon class="cls-9" points="642.98 532.97 616.54 530.16 554.38 489.21 476.69 477.51 452.55 444.05 449.08 419.73 417.53 411.77 405.32 388.3 466.81 388.3 507.5 422.2 568.37 441.95 603.93 475.31 604.77 476.56 642.98 532.97"/><polygon class="cls-10" points="364.44 440.21 313.25 470.19 298.6 536.34 219.46 536.74 254.56 466.54 290.76 434.73 340.12 419.37 362.97 388.3 364.44 440.21"/><path class="cls-11" d="M693.59,489.49l-18.06-2.05c.86-1.38,1.3-4.59,1.52-7.66.3-4.24.19-8.68.19-8.68s11.92-2.91,11.92,0a47.8,47.8,0,0,0,1.51,8.68C692,484.66,693.59,489.49,693.59,489.49Z" transform="translate(-100.79 -12.89)"/><path class="cls-11" d="M693.93,490.75c0,.09,0-.25,0-.16,0,1-.29.9-.73,2.36h-19c-.45-1.46-.7-1.37-.74-2.36,0-.09,0,0,0-.06,0-4.51,4.57-8.07,10.22-8.07S693.93,486.23,693.93,490.75Z" transform="translate(-100.79 -12.89)"/><path class="cls-12" d="M677.05,481.3c.3-5.83.19-10.2.19-10.2s11.92-2.91,11.92,0c0,1.46.68,4.37,1.51,10.2Z" transform="translate(-100.79 -12.89)"/><path class="cls-13" d="M693.92,489.31s-.29,1.46-.73,2.91h-19c-.45-1.45-.7-2.91-.74-2.91Z" transform="translate(-100.79 -12.89)"/><path class="cls-14" d="M687.14,484c-1.41-2-4.77-1.27-6.35.05-.24.2,0,.51.27.47a20.33,20.33,0,0,1,2.81-.73c1.11-.05,2,.61,3,.69A.32.32,0,0,0,687.14,484Z" transform="translate(-100.79 -12.89)"/><path class="cls-14" d="M686.56,486c-1.57-1.07-4.67-1.47-6,.13a.3.3,0,0,0,.29.51,10.89,10.89,0,0,1,2.94-.38c1,0,1.75.7,2.71.47A.41.41,0,0,0,686.56,486Z" transform="translate(-100.79 -12.89)"/><path class="cls-11" d="M663,490.55a11.3,11.3,0,0,1-.53,2.61s-28.79,1.23-30.82.33c-.32-.14-.23-.44.17-.85a10.61,10.61,0,0,1,.36-1.1c1-2.45,3.81-6.27,11.55-5.8l3.14-1.6c1-.51,1.71-1.86,2.23-3.51a30,30,0,0,0,1.16-9.68l12.21.16s.43,4.5.64,9.52A74.47,74.47,0,0,1,663,490.55Z" transform="translate(-100.79 -12.89)"/><path class="cls-12" d="M649.11,481.3c1.14-5.83,1.35-9,1.16-10l12.21.33s.43,3.86.64,9.69Z" transform="translate(-100.79 -12.89)"/><path class="cls-13" d="M663,490.55a11.3,11.3,0,0,1-.53,2.61s-28.79,1.23-30.82.33c-.32-.14-.23-.44.17-.85a10.61,10.61,0,0,1,.36-1.1C637.21,491.57,655.27,491.59,663,490.55Z" transform="translate(-100.79 -12.89)"/><path class="cls-14" d="M646.76,486.41c-.47-1.38-2.69-1.93-4-1.09a.18.18,0,0,0,0,.33c.54.3,1.17.13,1.76.25s.88.62,1.34,1S646.92,486.88,646.76,486.41Z" transform="translate(-100.79 -12.89)"/><path class="cls-14" d="M651,484.66a3.22,3.22,0,0,0-2.59-1.76c-.77-.08-2.43.21-2.21,1.19a.2.2,0,0,0,.2.13c.5,0,.94-.28,1.46-.27a2.54,2.54,0,0,1,1.57.71c.38.34.51.74,1.1.81C650.91,485.52,651.07,484.91,651,484.66Z" transform="translate(-100.79 -12.89)"/><path class="cls-15" d="M642.82,293.89s27.26-5.12,53.16-.69c0,0-5.79,49.42-7.84,60,0,0-20.45,5.11-38.17-.34C650,352.84,642.48,303.43,642.82,293.89Z" transform="translate(-100.79 -12.89)"/><path class="cls-16" d="M675.32,290.75c0,4.55-2,8.25-6.55,8.25h0c-4.52,0-6.56-3.7-6.56-8.25V280.32c0-4.55,2-8.24,6.56-8.24h0c4.51,0,6.55,3.69,6.55,8.24Z" transform="translate(-100.79 -12.89)"/><path class="cls-17" d="M670,305.47a1.17,1.17,0,1,1-1.17-1.18A1.17,1.17,0,0,1,670,305.47Z" transform="translate(-100.79 -12.89)"/><path class="cls-17" d="M670,317.68a1.17,1.17,0,1,1-1.17-1.17A1.17,1.17,0,0,1,670,317.68Z" transform="translate(-100.79 -12.89)"/><path class="cls-17" d="M669.88,342.12a1.18,1.18,0,1,1-2.35,0,1.18,1.18,0,0,1,2.35,0Z" transform="translate(-100.79 -12.89)"/><path class="cls-17" d="M670,329.86a1.17,1.17,0,1,1-1.17-1.18A1.17,1.17,0,0,1,670,329.86Z" transform="translate(-100.79 -12.89)"/><path class="cls-18" d="M687.55,267.72c.05,6.48-6.87,11.74-11.46,14.2a13.94,13.94,0,0,1-8.61,1.65c-18.24-4.15-17-12.83-18-20a56.43,56.43,0,0,1,.58-18.31,12.33,12.33,0,0,1,1-3c2.82-5.89,9.5-8.18,9.5-8.18a25.45,25.45,0,0,1,12.69-.94c6,1.1,10.68,4.19,12.2,10.32a52.85,52.85,0,0,1,1,6c.52,4.15.79,8.34.95,12.52C687.49,263.86,687.53,265.79,687.55,267.72Z" transform="translate(-100.79 -12.89)"/><path class="cls-19" d="M668.38,249.6s-1.41-1.23-1.35,3.52.65,9.73.65,9.73-3.28-1.63-2,.93a4.57,4.57,0,0,0,3.48,2.3A2.85,2.85,0,0,0,672,265c.35-.39,2.17-2.5,1.52-3.07-.32-.28-2,.54-2.41.68C671.1,262.62,670.67,248.39,668.38,249.6Z" transform="translate(-100.79 -12.89)"/><path class="cls-20" d="M673.84,246.25s8.27-1.66,10.87,4.43c0,0-9.24-2.78-11-1.4Z" transform="translate(-100.79 -12.89)"/><path class="cls-20" d="M663.9,246.94s-8.15-2.17-11.12,3.74c0,0,9.4-2.2,11.06-.71Z" transform="translate(-100.79 -12.89)"/><path class="cls-17" d="M654.74,256.6a4.79,4.79,0,1,0,4.47-4.62A4.57,4.57,0,0,0,654.74,256.6Z" transform="translate(-100.79 -12.89)"/><path class="cls-21" d="M662.68,255.92c.14,2.11-1.07,3.9-2.72,4s-3.08-1.51-3.22-3.61,1.07-3.9,2.72-4S662.54,253.82,662.68,255.92Z" transform="translate(-100.79 -12.89)"/><path class="cls-20" d="M661.82,256a2.47,2.47,0,0,1-1.93,2.85c-1.17.08-2.19-1.07-2.29-2.57a2.18,2.18,0,1,1,4.22-.28Z" transform="translate(-100.79 -12.89)"/><path class="cls-17" d="M661.79,253.41c0,.4-.45.77-1,.81s-1.11-.26-1.14-.67.44-.77,1-.81S661.76,253,661.79,253.41Z" transform="translate(-100.79 -12.89)"/><path class="cls-17" d="M673.78,256.06a4.79,4.79,0,1,0,4.47-4.67A4.59,4.59,0,0,0,673.78,256.06Z" transform="translate(-100.79 -12.89)"/><path class="cls-21" d="M681,255.42c.14,2.11-1.07,3.91-2.71,4s-3.09-1.51-3.23-3.62,1.08-3.9,2.72-4S680.9,253.32,681,255.42Z" transform="translate(-100.79 -12.89)"/><path class="cls-20" d="M680.18,255.48a2.18,2.18,0,1,1-2.29-2.57A2.47,2.47,0,0,1,680.18,255.48Z" transform="translate(-100.79 -12.89)"/><path class="cls-17" d="M680.14,252.91c0,.41-.43.77-1,.81s-1.11-.26-1.14-.66.43-.77,1-.81S680.12,252.5,680.14,252.91Z" transform="translate(-100.79 -12.89)"/><path class="cls-22" d="M679.36,267.4A29.87,29.87,0,0,1,677.3,272a19.82,19.82,0,0,1-2.5,3.57c-2.48,2.72-5.9,4.18-10,.28a26,26,0,0,1-4.38-5.81c-.58-1-1.18-2.11-1.78-3.34C658.59,266.72,676.51,269.86,679.36,267.4Z" transform="translate(-100.79 -12.89)"/><path class="cls-17" d="M679.36,267.4A29.87,29.87,0,0,1,677.3,272c-5.56,2-12.77-.27-16.93-2-.58-1-1.18-2.11-1.78-3.34C658.59,266.72,676.51,269.86,679.36,267.4Z" transform="translate(-100.79 -12.89)"/><path class="cls-23" d="M674.8,275.59c-2.48,2.72-5.9,4.18-10,.28A10.43,10.43,0,0,1,674.8,275.59Z" transform="translate(-100.79 -12.89)"/><path class="cls-24" d="M693.52,230.1a8.6,8.6,0,0,1-4.73,3.36c1.56-1.65,3-3.86,2.79-6.18a.17.17,0,0,0-.24-.14,4.94,4.94,0,0,0-.84.67c-1.41,1.3-3.73,1.25-5.44.64-3-1.07-5.44-3.15-8.13-4.78a17.17,17.17,0,0,0-9.66-2.66,18.13,18.13,0,0,0-5.44,1.12c-4.29,1.57-9.39,4.6-10.53,9.37a8,8,0,0,0-.21,2c0,.42.36,1.69.18,2-.1.17.11.35.23.25a.16.16,0,0,0,.17-.1,1.58,1.58,0,0,0,.07-.16c2-1.64,5.39,4.75,6.62,5.77,4.7,3.93,11.44,4.48,17,3,6.28-1.71,13.2-6,16.81-11.3a16.65,16.65,0,0,0,1.61-2.69C693.9,230.08,693.63,229.94,693.52,230.1Z" transform="translate(-100.79 -12.89)"/><path class="cls-25" d="M686.79,254.17s4-9,7.28-1.92c2.62,5.66-1.74,11.2-5.27,10.81S686.79,254.17,686.79,254.17Z" transform="translate(-100.79 -12.89)"/><path class="cls-16" d="M687,255.57s3-5.79,4.49-3.71a9.26,9.26,0,0,1,1.52,4.94s-1.1-3-3.24-1c0,0,2.87,4.72-1.92,3.74A3,3,0,0,1,687,255.57Z" transform="translate(-100.79 -12.89)"/><path class="cls-24" d="M656,235.1s.46,7.39-2.61,11S650,256.93,650,256.93s-11.24-14.33,1.54-22.68A4.32,4.32,0,0,1,656,235.1Z" transform="translate(-100.79 -12.89)"/><path class="cls-24" d="M680.68,238a37.67,37.67,0,0,1,6.3,16.87s7.32-10.91.34-20.11C687.32,234.76,679.65,231.52,680.68,238Z" transform="translate(-100.79 -12.89)"/><path class="cls-25" d="M650.24,255.53s-4-9-7.27-1.92c-2.63,5.66,1.74,11.21,5.27,10.82S650.24,255.53,650.24,255.53Z" transform="translate(-100.79 -12.89)"/><path class="cls-16" d="M650,256.93s-3-5.79-4.49-3.7a9.24,9.24,0,0,0-1.52,4.93s1.09-3,3.24-1c0,0-2.87,4.72,1.92,3.74A3,3,0,0,0,650,256.93Z" transform="translate(-100.79 -12.89)"/><path class="cls-26" d="M662.36,251.25a26.26,26.26,0,0,0-4.88-.26,38.82,38.82,0,0,0-2.66,5.17,21.25,21.25,0,0,0-1.32,4.09,8,8,0,0,0,5.57,1.87C659.86,258.44,660.38,254.35,662.36,251.25Z" transform="translate(-100.79 -12.89)"/><path class="cls-26" d="M683.18,250.87a26,26,0,0,0-4.88.2,39.35,39.35,0,0,0-2.16,5.41,22.24,22.24,0,0,0-.91,4.2A8.08,8.08,0,0,0,681,262C681.38,258.26,681.5,254.14,683.18,250.87Z" transform="translate(-100.79 -12.89)"/><path class="cls-27" d="M687.26,258.32c1.62-4.77,1.15-6.8,1.09-7l-.11-.4-.37-.14a20.05,20.05,0,0,0-14.7.56,15.41,15.41,0,0,0-2.29,1.27v-.14l-2.76.11,0-.12-.37-.2a18.24,18.24,0,0,0-2.5-1.16,20.28,20.28,0,0,0-14.76.39l-.37.18-.08.39c0,.22-.39,2.28,1.54,6.93a6.46,6.46,0,0,0,3.88,3.61,11.56,11.56,0,0,0,4.71.63c5.42-.59,6.38-3.21,7-4.93,0-.1.07-.19.1-.28a14,14,0,0,0,.79-3.09,3.32,3.32,0,0,1,2.44.05,13.82,13.82,0,0,0,1,3.38l.12.28c.74,1.68,1.87,4.23,7.31,4.47a11.41,11.41,0,0,0,4.66-.94A6.44,6.44,0,0,0,687.26,258.32ZM660,261.62a10.25,10.25,0,0,1-4-.54,4.87,4.87,0,0,1-3-2.71,15.87,15.87,0,0,1-1.47-5.61,18.88,18.88,0,0,1,13.08-.16,16.59,16.59,0,0,1,1.88.84,11.11,11.11,0,0,1-.79,4c0,.1-.07.2-.1.29C665,259.33,664.38,261.14,660,261.62Zm23-.92a10.22,10.22,0,0,1-3.94.79c-4.43-.2-5.21-2-5.89-3.51,0-.1-.09-.2-.13-.29a11,11,0,0,1-1-3.93,16.75,16.75,0,0,1,1.82-1,19,19,0,0,1,13.07-.68,16.32,16.32,0,0,1-1.11,5.69A4.91,4.91,0,0,1,683,260.7Z" transform="translate(-100.79 -12.89)"/><path class="cls-28" d="M660.54,285.71l-6.48,6.81,5.46,14.31,9.2-7.83S661.56,291.5,660.54,285.71Z" transform="translate(-100.79 -12.89)"/><path class="cls-28" d="M676.9,285.71l6.47,6.81-5.45,14.31-9.2-7.83S675.87,291.5,676.9,285.71Z" transform="translate(-100.79 -12.89)"/><path class="cls-11" d="M648.25,478.58h15.81l4.52-96.9a13.65,13.65,0,0,0,1.58.12l5.63,96.1h15.77c.1-12.13.73-103.66-3.42-124.72L650,352.84C650.31,353.84,648,440.71,648.25,478.58Z" transform="translate(-100.79 -12.89)"/><path class="cls-29" d="M684.08,358.71l4.4-.08-.34-5.45-4.39,0C683.89,355,684,356.85,684.08,358.71Z" transform="translate(-100.79 -12.89)"/><path class="cls-29" d="M679.78,353.1l-19.48-.17c.07,2.07.14,4.13.19,6.2l19.64-.35A24.66,24.66,0,0,1,679.78,353.1Z" transform="translate(-100.79 -12.89)"/><path class="cls-29" d="M655.58,352.89l-5.61-.05v6.47l6.15-.11A21.39,21.39,0,0,1,655.58,352.89Z" transform="translate(-100.79 -12.89)"/><rect class="cls-30" x="564.33" y="338.75" width="7.28" height="8.74"/><path class="cls-16" d="M631.21,311.17c3.08-3.37-19,20.54-19,25.53,0,4.74,30.53,24.21,30.53,24.21l2.63-6.32s-16.32-17.89-21-20.52c0,0,11.57-11.05,13.68-14.21S631.21,311.17,631.21,311.17Z" transform="translate(-100.79 -12.89)"/><path class="cls-25" d="M654.28,353.82c1.76-.17,3.52-.13,5.27-.31a.46.46,0,0,0,.46-.45c0-2.15-2.2-3.35-4.11-3.5a10.35,10.35,0,0,0-3.14.25,28.26,28.26,0,0,0,2.86-2.82.47.47,0,0,0-.1-.72c-1.9-.85-3.47.14-4.92,1.42-1.07.95-2,2.08-3,3.11a8.84,8.84,0,0,1-3.47,2.13.41.41,0,0,0-.22,0c-3.47.69-4,4-2.5,6.84a5.07,5.07,0,0,0,4.14,2.57,12.36,12.36,0,0,0,3.67-.5c2.67-.54,5,.9,7,2.5A.46.46,0,0,0,657,364c.34-3.34-2.07-5.61-4.86-6.92,2.78-.44,4.93,1.62,7.75,1.9a.46.46,0,0,0,.45-.46C660.35,355.45,657,354.58,654.28,353.82Z" transform="translate(-100.79 -12.89)"/><path class="cls-15" d="M647,310.47c-2.76,5.22-20.91,23.6-20.91,23.6,2.94,2.06,11.62,10.51,15.82,14.66l2.33,2.31-4.73,8.69c-1-.52-2-1-3-1.54-19-10.31-25.85-21.75-25.85-21.75,4.42-17.94,32.37-42.37,32.37-42.37C647.39,297.09,647,310.47,647,310.47Z" transform="translate(-100.79 -12.89)"/><path class="cls-16" d="M707.85,310.57c-3.08-3.38,18.94,20.54,18.94,25.52,0,4.74-30.52,24.21-30.52,24.21L693.64,354s16.31-17.9,21.05-20.53c0,0-11.58-11-13.69-14.21S707.85,310.57,707.85,310.57Z" transform="translate(-100.79 -12.89)"/><path class="cls-25" d="M678.74,357.92a.46.46,0,0,0,.46.46c2.81-.28,5-2.34,7.74-1.9-2.79,1.31-5.19,3.58-4.85,6.92a.46.46,0,0,0,.78.32c2-1.6,4.29-3,7-2.5a12.71,12.71,0,0,0,3.67.51,5.12,5.12,0,0,0,4.14-2.58c1.54-2.8,1-6.15-2.5-6.84a.57.57,0,0,0-.23,0,9,9,0,0,1-3.46-2.14c-1-1-1.92-2.16-3-3.11-1.44-1.27-3-2.27-4.92-1.42a.46.46,0,0,0-.09.72,27.23,27.23,0,0,0,2.85,2.83,10.33,10.33,0,0,0-3.14-.26c-1.91.15-4.15,1.35-4.1,3.5a.45.45,0,0,0,.45.45c1.76.18,3.52.15,5.27.32C682.05,354,678.71,354.84,678.74,357.92Z" transform="translate(-100.79 -12.89)"/><path class="cls-15" d="M692.06,309.87c2.76,5.21,20.92,23.59,20.92,23.59-2.94,2.06-11.62,10.51-15.82,14.66l-2.34,2.31,4.74,8.69c1-.52,2-1,3-1.54,19.05-10.3,25.85-21.75,25.85-21.75C724,317.9,696,293.46,696,293.46,691.67,296.49,692.06,309.87,692.06,309.87Z" transform="translate(-100.79 -12.89)"/><path class="cls-31" d="M545.31,319.94c-7.21.89-12.32-3.65-16.72-8.54-6.8-7.55-11.87-15.95-20.3-6.57a14,14,0,0,1-1.15,1.16c-14.44,13.22-45.11-6.66-38-25.69.08-.24.17-.46.25-.7,4.15-11.66.43-17.65-6.76-18-4.5-.25-10.35,1.7-16.49,5.81-4.77,3.21-9.88,1.05-14.73-3.59-11.54-11-21.54-36.08-21.54-36.08,24.95,15.41,85.64-26.21,129.46-72.87s66.09-24.4,66.09-24.4c4.12-2.71,22.78,33.17,22.78,33.17-4.12,9.28-7.93,24-12.34,40.7C603.53,251.44,586.54,314.91,545.31,319.94Z" transform="translate(-100.79 -12.89)"/><path class="cls-32" d="M615.9,204.3c-15-74.9-69.84,9.07-115.67,17.45-37.29,6.82-59.71,30.36-68.78,42-11.54-11-21.54-36.08-21.54-36.08,24.95,15.41,85.64-26.21,129.46-72.87s66.09-24.4,66.09-24.4c4.12-2.71,22.78,33.17,22.78,33.17C624.12,172.88,620.31,187.56,615.9,204.3Z" transform="translate(-100.79 -12.89)"/><path class="cls-32" d="M578.15,157.19s-26.83,50.41-42.72,63.63c-13.25,11-48.36,33.18-66,58.78,4.15-11.66.43-17.65-6.76-18,6.26-8,17.77-19.48,37.23-29.38C532.32,215.7,575.7,159.59,578.15,157.19Z" transform="translate(-100.79 -12.89)"/><path class="cls-32" d="M606.5,138.87s-47.73,129.2-77.91,172.53c-6.8-7.55-11.87-15.95-20.3-6.57a14,14,0,0,1-1.15,1.16c6.08-16.35,19.66-48.53,38.59-67.85C571.92,211.41,606.5,138.87,606.5,138.87Z" transform="translate(-100.79 -12.89)"/><path class="cls-33" d="M422.16,269.66s-4.39-27.46,16.75-30,115.73-81.07,141.77-104.3l9.9-9.29s-5-13.87-47.75,21-101.3,68.36-131.69,74.18S422.16,269.66,422.16,269.66Z" transform="translate(-100.79 -12.89)"/><path class="cls-34" d="M638.8,189.21l-.29-61h0l-.09-18.33c0-.73,0-1.47-.07-2.2a7,7,0,0,0-6.66-6.4c-.52,0-1.05,0-1.58,0l-93.76.44H535a6.81,6.81,0,0,0-4.67,2,7.55,7.55,0,0,0-2.23,5.86q0,3.93,0,7.88h0l.31,66.42-.05.05q.06,9.78.12,19.55a18.56,18.56,0,0,0,.12,2.36,7,7,0,0,0,5.92,6.11,15.68,15.68,0,0,0,2.82.14l85.94-.4,8,0a7.53,7.53,0,0,0,4.46-1.31,7.13,7.13,0,0,0,3.08-6.22q-.06-7.44-.08-14.88Z" transform="translate(-100.79 -12.89)"/><path class="cls-17" d="M598.45,181.09l14.71,16.78c-.36.5-.76.31-1.09.31-6,0-12.08,0-18.12.12a2.42,2.42,0,0,1-2.12-1c-3.09-3.92-6.25-7.78-9.32-11.71a2.77,2.77,0,0,0-2.39-1.13,33,33,0,0,1-14-3.1,24.39,24.39,0,0,1-12.67-15,41.32,41.32,0,0,1-1.93-11.3,45.29,45.29,0,0,1,1.84-16,24.49,24.49,0,0,1,10.16-13.59,27.36,27.36,0,0,1,9.94-3.8,43,43,0,0,1,17.21.16c9.7,2.14,16.21,8,19,17.54a47.82,47.82,0,0,1,0,26.88,23.56,23.56,0,0,1-10.73,14.25A.74.74,0,0,0,598.45,181.09Z" transform="translate(-100.79 -12.89)"/><path class="cls-34" d="M593.87,153.38a27.52,27.52,0,0,1-1.62,10.21,10.07,10.07,0,0,1-7,6.49,14.51,14.51,0,0,1-7.17.07c-3.62-.87-5.9-3.25-7.31-6.58a20.29,20.29,0,0,1-1.46-5.78,38.08,38.08,0,0,1,.71-14.07,15.87,15.87,0,0,1,.77-2.23A10.55,10.55,0,0,1,581,134.63a13.87,13.87,0,0,1,4.66.56c3.56,1.17,5.56,3.79,6.77,7.16S593.85,149.12,593.87,153.38Z" transform="translate(-100.79 -12.89)"/><rect class="cls-35" x="477.35" y="83.96" width="5.49" height="44.59" transform="translate(133.68 519.34) rotate(-72.51)"/><rect class="cls-35" x="527.22" y="60.92" width="44.59" height="5.49" transform="translate(290.48 580.85) rotate(-79.99)"/><rect class="cls-35" x="504.15" y="50.75" width="5.49" height="44.59" transform="translate(-60.2 271.92) rotate(-32.62)"/><path class="cls-36" d="M273.35,311.08c-.11.81,11,5.82,12.29,5.76l1.77-.33,5.43,2.58a8.6,8.6,0,0,0,1.28-2,7.33,7.33,0,0,0,.71-2.29,5.79,5.79,0,0,0,0-1.5A18.86,18.86,0,0,0,292,311.5s.9-4.12-.73-5.78a10.74,10.74,0,0,1-2.48-3.26,16.33,16.33,0,0,0-.82-2,2.48,2.48,0,0,0-1.61-1.33.43.43,0,0,0-.25,0,.5.5,0,0,0-.27.43s0,0,0,.06a9,9,0,0,0,1.13,5.83s-6.55-1.68-8.13-2.73c0,0-3.91-1.33-4.31-.64a1.68,1.68,0,0,0-.23.71,1.72,1.72,0,0,0,0,.63s7.86,3.91,8,4.29-7.57-1.41-8.2-1a1,1,0,0,0-.32.68,4.9,4.9,0,0,0,0,.94,9.28,9.28,0,0,0,.11,1l-.1.25c-.08.22-.19.54-.29.89S273.39,310.87,273.35,311.08Z" transform="translate(-100.79 -12.89)"/><path class="cls-37" d="M273.35,311.08c-.11.81,11,5.82,12.29,5.76l1.77-.33,5.43,2.58a8.6,8.6,0,0,0,1.28-2A14.5,14.5,0,0,1,288,313c-1.58-1.79-2.72-4-4.46-5.59a16.24,16.24,0,0,0-3.75-2.47,38.3,38.3,0,0,0-4.38-1.85c-.43-.14-.78-.25-1.1-.32a1.72,1.72,0,0,0,0,.63s7.86,3.91,8,4.29-7.57-1.41-8.2-1a1,1,0,0,0-.32.68,4.9,4.9,0,0,0,0,.94,9.28,9.28,0,0,0,.11,1l-.1.25c-.08.22-.19.54-.29.89S273.39,310.87,273.35,311.08Z" transform="translate(-100.79 -12.89)"/><path class="cls-38" d="M273.78,308.3l.66.21a19.55,19.55,0,0,0,3.46.7,11.47,11.47,0,0,0,1.46.09c-.06,0-.56-.24-1.35-.54s-2-.75-3.3-1.14l-.92-.26A4.9,4.9,0,0,0,273.78,308.3Z" transform="translate(-100.79 -12.89)"/><path class="cls-38" d="M273.5,310.41a20.26,20.26,0,0,0,4,.85,21.43,21.43,0,0,0-3.7-1.74C273.71,309.74,273.6,310.06,273.5,310.41Z" transform="translate(-100.79 -12.89)"/><path class="cls-39" d="M285.81,299.57l.35.28c.89.81,1.23,2.06,1.83,3.11.81,1.45,2.15,2.6,2.69,4.18a11.26,11.26,0,0,1,.19,4.18,2.16,2.16,0,0,0,.21,1.26,2.19,2.19,0,0,0,.84.66c.95.53,2,1,2.91,1.58a5.79,5.79,0,0,0,0-1.5A18.86,18.86,0,0,0,292,311.5s.9-4.12-.73-5.78a10.74,10.74,0,0,1-2.48-3.26,16.33,16.33,0,0,0-.82-2,2.48,2.48,0,0,0-1.61-1.33.43.43,0,0,0-.25,0A.5.5,0,0,0,285.81,299.57Z" transform="translate(-100.79 -12.89)"/><path class="cls-38" d="M285.89,307.22a4.42,4.42,0,0,0-.63,3.66,7.62,7.62,0,0,0,1.8,3.37c-.12-1-.87-2-1.11-3S285.28,308,285.89,307.22Z" transform="translate(-100.79 -12.89)"/><path class="cls-40" d="M349.49,320.17c-3.65,4.36-7.54,8.78-11,12.23-.41.4-.81.8-1.2,1.17-.88.85-1.73,1.63-2.53,2.3l-.26.22c-.43.37-.85.7-1.26,1l-.47.35-.46.31c-.3.19-.58.36-.86.51a3.6,3.6,0,0,1-.39.2l-.19.09C322.6,342.18,289,321.68,289,321.68l1.52-2.6,3.83-6.54.67-1.15s27.73,11,31.22,14.06c0,0,5.56-10,7.49-12.8,0,0,8.42-11.45,10-12.06.2-.07,4.17,14,5.41,18.31C349.34,319.66,349.47,320.13,349.49,320.17Z" transform="translate(-100.79 -12.89)"/><path class="cls-41" d="M349.49,320.17c-3.65,4.36-7.54,8.78-11,12.23-.41.4-.81.8-1.2,1.17-.88.85-1.73,1.62-2.53,2.3l-.26.22c-.43.37-.85.7-1.26,1l-.47.35-.46.31c-.3.19-.58.36-.86.51a3.6,3.6,0,0,1-.39.2l-.19.09C322.6,342.18,289,321.68,289,321.68l1.52-2.6c9,4.73,35.37,18.4,39.19,18.11,2.4-.19,11.36-9.45,19.4-18.29C349.34,319.66,349.47,320.13,349.49,320.17Z" transform="translate(-100.79 -12.89)"/><path class="cls-36" d="M448.35,293.65c.3.75-9.32,8.22-10.6,8.46l-1.79.1L431.28,306a8.62,8.62,0,0,1-1.71-1.62,7.48,7.48,0,0,1-1.22-2.06,5.67,5.67,0,0,1-.35-1.46,19,19,0,0,1,2.35-2.44s-1.84-3.79-.64-5.79a10.79,10.79,0,0,0,1.65-3.74,16.85,16.85,0,0,1,.33-2.13,2.5,2.5,0,0,1,1.26-1.68.49.49,0,0,1,.24-.05c.18,0,.29.19.36.35a.17.17,0,0,1,0,.05,9,9,0,0,1,.27,5.94s6-3.16,7.27-4.56c0,0,3.49-2.2,4-1.63a1.73,1.73,0,0,1,.39.65,1.82,1.82,0,0,1,.11.61s-6.73,5.65-6.79,6.05,7-3.15,7.73-2.93a1,1,0,0,1,.47.59,5,5,0,0,1,.23.91c.09.51.12,1,.12,1l.15.22a8.26,8.26,0,0,1,.49.79A4,4,0,0,1,448.35,293.65Z" transform="translate(-100.79 -12.89)"/><path class="cls-37" d="M448.35,293.65c.3.75-9.32,8.22-10.6,8.46l-1.79.1L431.28,306a8.62,8.62,0,0,1-1.71-1.62,14.47,14.47,0,0,0,5-5.41c1.13-2.11,1.72-4.49,3-6.48a15.86,15.86,0,0,1,3.07-3.27,35.16,35.16,0,0,1,3.82-2.82,7.35,7.35,0,0,1,1-.57,1.82,1.82,0,0,1,.11.61s-6.73,5.65-6.79,6.05,7-3.15,7.73-2.93a1,1,0,0,1,.47.59,5,5,0,0,1,.23.91c.09.51.12,1,.12,1l.15.22a8.26,8.26,0,0,1,.49.79A4,4,0,0,1,448.35,293.65Z" transform="translate(-100.79 -12.89)"/><path class="cls-38" d="M447.29,291l-.59.36a19.46,19.46,0,0,1-3.2,1.48c-.8.29-1.34.42-1.4.44s.49-.37,1.18-.85,1.78-1.19,3-1.87c.28-.17.56-.32.83-.47A5,5,0,0,1,447.29,291Z" transform="translate(-100.79 -12.89)"/><path class="cls-38" d="M448.05,293a20.08,20.08,0,0,1-3.67,1.76,20.88,20.88,0,0,1,3.18-2.55A8.26,8.26,0,0,1,448.05,293Z" transform="translate(-100.79 -12.89)"/><path class="cls-39" d="M433.55,285.36l-.27.36a11.35,11.35,0,0,0-1,3.45c-.46,1.6-1.49,3-1.64,4.69a11.12,11.12,0,0,0,.79,4.11,2.17,2.17,0,0,1,.09,1.28,2.21,2.21,0,0,1-.66.83c-.8.74-1.67,1.45-2.46,2.22a5.67,5.67,0,0,1-.35-1.46,19,19,0,0,1,2.35-2.44s-1.84-3.79-.64-5.79a10.79,10.79,0,0,0,1.65-3.74,16.85,16.85,0,0,1,.33-2.13,2.5,2.5,0,0,1,1.26-1.68.49.49,0,0,1,.24-.05C433.37,285,433.48,285.2,433.55,285.36Z" transform="translate(-100.79 -12.89)"/><path class="cls-38" d="M435.26,292.82a4.44,4.44,0,0,1,1.48,3.41,7.71,7.71,0,0,1-1,3.7c-.12-1,.37-2.15.37-3.2S436.05,293.47,435.26,292.82Z" transform="translate(-100.79 -12.89)"/><path class="cls-40" d="M435.6,307.61s-27.86,27.78-36.76,26.19c-3.31-.58-9.66-4.48-16.31-9.13-2-1.42-4.07-2.9-6.07-4.38l-4.36-18.13c1.59-.57,2.13-3.07,2.4-4,.07-.22.12-.35.16-.33a30.78,30.78,0,0,1,4.11,2.93,214,214,0,0,1,21.16,18.86l.35.35c2.68-3.75,27.06-21,27.06-21l1.15,1.19,5,5.24Z" transform="translate(-100.79 -12.89)"/><path class="cls-41" d="M376.07,318.66c10,6.81,21.16,13.93,23.57,13.55,3.79-.61,26.25-20.08,33.88-26.77l2.08,2.17s-27.86,27.78-36.76,26.19c-4.32-.76-13.78-7.15-22.38-13.52Z" transform="translate(-100.79 -12.89)"/><path class="cls-42" d="M401.93,518.61H391.36c-2.28,0-7-4-7-4a19.7,19.7,0,0,1-2.58,3.95c-1.22,1.22-.91-11.67-.91-11.67l6.11-.25,13.17,7.81,2.51,1.5a1.44,1.44,0,0,1-.73,2.69Z" transform="translate(-100.79 -12.89)"/><path class="cls-36" d="M400.15,514.42c-14.42,4.73-19.28-7.56-19.28-7.56l6.11-.25Z" transform="translate(-100.79 -12.89)"/><path class="cls-42" d="M401.93,518.61H391.36c-2.28,0-7-4-7-4a19.7,19.7,0,0,1-2.58,3.95c-1.22,1.22-.91-11.67-.91-11.67l6.11-.25,13.17,7.81,2.51,1.5a1.44,1.44,0,0,1-.73,2.69Z" transform="translate(-100.79 -12.89)"/><path class="cls-36" d="M400.15,514.42c-14.42,4.73-19.28-7.56-19.28-7.56l6.11-.25Z" transform="translate(-100.79 -12.89)"/><path class="cls-36" d="M365,513.76c-.47,1.82-4.15,4.49-5.85,5.63a1.35,1.35,0,0,1-1.63-.08c-1.49-1.23-4.59-4-4.89-5.55-.17-.87.53-3.18,1.41-5.58,1.23-3.38,2.81-6.94,2.81-6.94l6.12.25s1.42,5.34,1.94,9.11A10.18,10.18,0,0,1,365,513.76Z" transform="translate(-100.79 -12.89)"/><path class="cls-42" d="M365,513.76c-.47,1.82-4.15,4.49-5.85,5.63a1.35,1.35,0,0,1-1.63-.08c-1.49-1.23-4.59-4-4.89-5.55-.17-.87.53-3.18,1.41-5.58.66,2.46,2,5.43,4.62,5.58,2.46.14,4.71-1.57,6.25-3.16A10.18,10.18,0,0,1,365,513.76Z" transform="translate(-100.79 -12.89)"/><path class="cls-40" d="M382.53,324.67c-.31,3.4-.75,6-.93,6.88-.61,2.89-.69,18.86-.69,18.86-12.51,10.49-28,1.22-28,1.22.1-3.94-6.07-25.21-8.76-39.16-1.57-8.13-2.41-9.41-1.87-10.48.74-1.48,7.19-5.27,9.6-6.12a42.09,42.09,0,0,1,4.34-1.29h10.38a7.15,7.15,0,0,1,1.85.26h0a11.62,11.62,0,0,1,1.22.38,20,20,0,0,1,3.19,1.52h0c.55.32,1.14.69,1.75,1.11a37.77,37.77,0,0,1,3.33,2.53,10.06,10.06,0,0,1,2.43,3.18C383.26,309.14,383.11,318.28,382.53,324.67Z" transform="translate(-100.79 -12.89)"/><path class="cls-41" d="M378.88,326.54l-1-.05-2.81-.18a28.47,28.47,0,0,0-8.84.58c-.84.22-1.67.48-2.51.7a21.78,21.78,0,0,1-2.49.53,20.06,20.06,0,0,1-4.3.14,7.18,7.18,0,0,1-1.67-.32,3.85,3.85,0,0,1-1.15-.58,2.53,2.53,0,0,1-.55-.59l-.13-.23.2.17a2.7,2.7,0,0,0,.64.37,5.53,5.53,0,0,0,2.64.14,31.2,31.2,0,0,0,4-.82c.74-.2,1.48-.43,2.27-.71s1.64-.56,2.56-.81a15.32,15.32,0,0,1,5.35-.4,23.8,23.8,0,0,1,4.19.81c1.16.33,2.08.65,2.71.88S378.88,326.54,378.88,326.54Z" transform="translate(-100.79 -12.89)"/><path class="cls-43" d="M384,278.3c-.05-.24-.12-.58-.24-1a7.68,7.68,0,0,0-.53-1.45,6.39,6.39,0,0,0-1.07-1.62,5.89,5.89,0,0,0-1.57-1.16,7.87,7.87,0,0,0-1.44-.58l-.5-.12a3.16,3.16,0,0,0-.3-.27l.1.22-.31-.06-.37-.06.88.58.42,1a17.8,17.8,0,0,1,1.26,4,23.44,23.44,0,0,1,.2,4.19c0,.57,0,1,0,1.35s0,.5,0,.5l.2-.46c.13-.3.3-.73.48-1.27a11.51,11.51,0,0,0,.48-2,8.43,8.43,0,0,0,0-2.56,7.77,7.77,0,0,0-.86-2.42,9.62,9.62,0,0,0-1.1-1.6,11.31,11.31,0,0,1,1.68,1.43,17.83,17.83,0,0,1,1.89,2.57l.56.85.22.31S384,278.54,384,278.3Z" transform="translate(-100.79 -12.89)"/><path class="cls-43" d="M351.21,285.4a20.06,20.06,0,0,1-2.8,4.63c-2.5,3.15-6,5.83-10,6.09a13.79,13.79,0,0,0,5.28-3.54c-.24.16-.49.31-.74.45a13.44,13.44,0,0,1-9.24,1.48,11.63,11.63,0,0,0,2.57-4.87,17.34,17.34,0,0,0,.57-3.91,56.06,56.06,0,0,0-.93-9.47,90.45,90.45,0,0,1-1-15.51c.14-4.14,1.48-8.62,4.62-11.48a7,7,0,0,1,10.5,1.16,7.83,7.83,0,0,1,.62,1c.26.57.4,1,.05,1.52a11.54,11.54,0,0,1-1.25,1.37,9.28,9.28,0,0,0-2.25,4.51,5.19,5.19,0,0,1,.55.49,12,12,0,0,1,2.46,4,34.77,34.77,0,0,1,2.47,12.4A23.24,23.24,0,0,1,351.21,285.4Z" transform="translate(-100.79 -12.89)"/><path class="cls-44" d="M350,250.43a6.39,6.39,0,0,1-.85,1.88,5.08,5.08,0,0,0-4.47,3,12.37,12.37,0,0,0-1,5.56,50.44,50.44,0,0,0,.63,8.5c.46,3,1.2,5.93,1.15,8.93s-1,6.17-3.3,8.09a11.92,11.92,0,0,0-.89-5.21,11.44,11.44,0,0,1-5,8.47,17.34,17.34,0,0,0,.57-3.91,39,39,0,0,0-.56-6.91c-.12-.86-.25-1.7-.37-2.56a90.45,90.45,0,0,1-1-15.51c.14-4.14,1.48-8.62,4.62-11.48a7.07,7.07,0,0,1,10.5,1.16Z" transform="translate(-100.79 -12.89)"/><path class="cls-45" d="M347.37,248.17c-1.9,1.31-3.81,2.61-4.77,4.66a12.64,12.64,0,0,0-.81,2.92,30,30,0,0,0-.57,4.1,70.08,70.08,0,0,0,.6,7.21,23,23,0,0,1-1,8.44,15,15,0,0,0-1.55-3.7,13.06,13.06,0,0,1-2.93,7c-.12-.86-.25-1.7-.37-2.56a90.45,90.45,0,0,1-1-15.51c.14-4.14,1.48-8.62,4.62-11.48a7,7,0,0,1,7.84-1.1Z" transform="translate(-100.79 -12.89)"/><path class="cls-46" d="M354.37,253.57a4.11,4.11,0,1,1-4.1-4.11A4.11,4.11,0,0,1,354.37,253.57Z" transform="translate(-100.79 -12.89)"/><path class="cls-46" d="M369.72,295.21l1.09,12.31-5.42-2.76-2.82-3.49s0-4.49,0-6.68h4.11a7.15,7.15,0,0,1,1.85.26h0A11.62,11.62,0,0,1,369.72,295.21Z" transform="translate(-100.79 -12.89)"/><path class="cls-36" d="M365.39,304.76l-9.12-10.17c0-1.52.14-2.08.28-5.83.14-4.16.29-8.06.29-8.06l11.75,4.64a27.83,27.83,0,0,0-2.1,9.47A77.75,77.75,0,0,1,365.39,304.76Z" transform="translate(-100.79 -12.89)"/><path class="cls-37" d="M368.59,285.34a27.83,27.83,0,0,0-2.1,9.47q-.56.24-1.08.42c-1.36.48-5.74-3.41-8.86-6.47.14-4.16.29-8.06.29-8.06Z" transform="translate(-100.79 -12.89)"/><path class="cls-36" d="M380.91,271.39c-.24,1.09-.55,2.23-.92,3.42,0,0,.52,5.88-.09,7.2s-4.58,9.53-8.74,9c-3.46-.43-12-5.51-14.89-8.53a3.63,3.63,0,0,1-1-1.51c-.4-2.34-1.79-12.63-1.92-13.49-.36-2.33-1.34-20,20-15.09a10.28,10.28,0,0,1,7.75,7.72A25.8,25.8,0,0,1,380.91,271.39Z" transform="translate(-100.79 -12.89)"/><path class="cls-43" d="M384.27,260.41a9.29,9.29,0,0,1-.56,2.75,9.86,9.86,0,0,1-2.92,4.77,30,30,0,0,0-.32-7.14c-5.1,5.55-15.76,7.45-16.19,7.52,2-.62,2.63-4.66,2.63-4.66-2.44,5.68-13.11,6.85-13.11,6.85-2.55-2.07-4.33,1.86-4.33,1.86-.86-1.6-1.58-3.05-2.14-4.39-.15-.35-.28-.69-.41-1a14.93,14.93,0,0,1-.73-2.75c-1.42-8.53,4.95-16.89,13.17-19.27h0c7.77-2.25,16.94-.19,21.27,4.1a8.88,8.88,0,0,1,1.84,2.55c.06.13.12.27.17.41a1.12,1.12,0,0,1,0,.13,6.68,6.68,0,0,1,.42,2.52,9.54,9.54,0,0,1-.18,1.54A8.45,8.45,0,0,1,384.27,260.41Z" transform="translate(-100.79 -12.89)"/><path class="cls-44" d="M382.66,252a6,6,0,0,1-1.46.59c-1,.27-2.11.3-3.14.57a6.58,6.58,0,0,0-3.23,2c-1.5,1.71-2.17,4.25-4.2,5.29a6.55,6.55,0,0,1-4.62.08,16.12,16.12,0,0,0-4.61-.95c-2.48.07-4.66,1.7-6.21,3.64a7.57,7.57,0,0,1-1.49,1.6,4.78,4.78,0,0,1-2.95.64,11.33,11.33,0,0,1-4.56-1.25,15.33,15.33,0,0,1,.89-8.09,19.11,19.11,0,0,1,12.28-11.18h0a25.67,25.67,0,0,1,15.26.52,16.57,16.57,0,0,1,6,3.58,8.88,8.88,0,0,1,1.84,2.55C382.55,251.7,382.61,251.84,382.66,252Z" transform="translate(-100.79 -12.89)"/><path class="cls-45" d="M374.64,245.44c-2.51,2.05-3.79,5.64-6.82,6.77-1.77.66-3.72.31-5.58.1s-3.93-.23-5.41.93c-.77.61-1.29,1.48-2,2.14a6.89,6.89,0,0,1-5.87,1.27,10.14,10.14,0,0,1-1.86-.54,19.11,19.11,0,0,1,12.28-11.18h0A25.67,25.67,0,0,1,374.64,245.44Z" transform="translate(-100.79 -12.89)"/><path class="cls-39" d="M380,274.81s.52,5.88-.09,7.2-4.58,9.53-8.74,9c-3.46-.43-12-5.51-14.89-8.53,3.61,2.5,13.24,8.9,16.06,7.92,3.5-1.22,7.45-9,7.38-9.73s-.31-5.79-.31-5.79.71-1.58,1.51-3.52C380.67,272.48,380.36,273.62,380,274.81Z" transform="translate(-100.79 -12.89)"/><path class="cls-39" d="M356.2,280.7a8.14,8.14,0,0,1-5.68-3.13,5.73,5.73,0,0,1-.57-.85c-.76-1.39-1-6.2,1-7.32,1.38-.79,2.39.35,2.86,1.1h0a4.36,4.36,0,0,1,.32.57Z" transform="translate(-100.79 -12.89)"/><path class="cls-36" d="M356.2,280.7a8.14,8.14,0,0,1-5.68-3.13l-.24-.39c-.77-1.39-1-6.21,1-7.33a1.89,1.89,0,0,1,2.53.65h0a4.36,4.36,0,0,1,.32.57Z" transform="translate(-100.79 -12.89)"/><path class="cls-37" d="M350.32,273.22a2,2,0,0,0,.09,1.17c.53,1.62,2.15,2.85,3.7,4a4.1,4.1,0,0,1-.55-2.54,6.7,6.7,0,0,0,.1-.9C353.68,273.74,350.9,270.94,350.32,273.22Z" transform="translate(-100.79 -12.89)"/><path class="cls-38" d="M354.88,278.85l-.09-.05-.24-.15a3.48,3.48,0,0,1-.77-.69,3.18,3.18,0,0,1-.63-1.29,2.68,2.68,0,0,1,.2-1.69,1.51,1.51,0,0,1,.11-.22l0-.05h0l0-.05-.05-.09-.11-.18c-.15-.24-.31-.46-.47-.67s-.33-.39-.49-.57a4.9,4.9,0,0,0-.49-.45,1.1,1.1,0,0,0-.5-.22.81.81,0,0,0-.43.07.4.4,0,0,0-.19.17c0,.05,0,.08,0,.08a.45.45,0,0,1,0-.08.37.37,0,0,1,.16-.23,1,1,0,0,1,.49-.15,1.38,1.38,0,0,1,.66.19,4.74,4.74,0,0,1,.6.43,6.15,6.15,0,0,1,.59.56,4.54,4.54,0,0,1,.55.68,2.14,2.14,0,0,1,.13.19l.06.1.08.13,0,.1a.41.41,0,0,1,0,.09l-.08.14a1.14,1.14,0,0,0-.1.19,2.89,2.89,0,0,0-.25,1.5,3.31,3.31,0,0,0,.41,1.22,3.42,3.42,0,0,0,.59.75l.2.18Z" transform="translate(-100.79 -12.89)"/><path class="cls-46" d="M365.39,304.76l-6.93,5.42-6.53-14.31a40.51,40.51,0,0,1,4.34-1.28Z" transform="translate(-100.79 -12.89)"/><path class="cls-43" d="M358.81,275.13a9.23,9.23,0,0,0-.23-1,9.78,9.78,0,0,0-.53-1.45,6.22,6.22,0,0,0-1.08-1.61,5.9,5.9,0,0,0-1.56-1.17,8.12,8.12,0,0,0-1.45-.57l-.5-.13-.29-.27s0,.08.1.23l-.31-.06a3.19,3.19,0,0,0-.38-.06l.88.57c.12.27.26.61.43,1a17.73,17.73,0,0,1,1.25,4,23.58,23.58,0,0,1,.2,4.2c0,.56,0,1,0,1.34s0,.5,0,.5l.2-.46c.12-.29.29-.72.47-1.27a11.37,11.37,0,0,0,.48-2,7.84,7.84,0,0,0,0-2.56,7.68,7.68,0,0,0-.85-2.42,10.9,10.9,0,0,0-1.1-1.61,10.79,10.79,0,0,1,1.67,1.44,17.64,17.64,0,0,1,1.9,2.57l.55.85.22.31Z" transform="translate(-100.79 -12.89)"/><path class="cls-44" d="M382.84,267.16s-2.72-3.65-4.24-2.2-.84,1.59-.84,1.59Z" transform="translate(-100.79 -12.89)"/><path class="cls-44" d="M361.26,267.72s5-5.79,7.09-3.74c1.2,1.21.37,2,.37,2Z" transform="translate(-100.79 -12.89)"/><path class="cls-37" d="M372.15,278.59a3.11,3.11,0,0,0-1.34-.35,4.45,4.45,0,0,0,2.42,2.33.5.5,0,0,0,.26.06.55.55,0,0,0,.3-.11,5.24,5.24,0,0,0,1.53-1.36.89.89,0,0,0,.2-.37c.1-.44-.2-.35-.47-.24a4.61,4.61,0,0,1-1,.25A4.21,4.21,0,0,1,372.15,278.59Z" transform="translate(-100.79 -12.89)"/><path class="cls-38" d="M373.33,280.32c.27-.25.58-.46.86-.69a6.77,6.77,0,0,0,.95-1c-1.46-1-1.44-2.52-1.37-4.25a5,5,0,0,1,.63-2.23,4.91,4.91,0,0,1,.72-1,6.14,6.14,0,0,1,.45-.43,2.06,2.06,0,0,1,.5-.28c-.09.11-.15.23-.23.33-.21.28-.43.53-.62.83a6.81,6.81,0,0,0-.46.94,6,6,0,0,0-.44,2,5.14,5.14,0,0,0,.33,2,4,4,0,0,0,1.46,1.89s-1,1.16-1.1,1.25a5.09,5.09,0,0,1-.82.65,1.75,1.75,0,0,1-1,.39.56.56,0,0,1-.31-.09l.17-.14.07-.07A1.8,1.8,0,0,1,373.33,280.32Z" transform="translate(-100.79 -12.89)"/><path class="cls-38" d="M370.81,284.8a4.25,4.25,0,0,0,3.54.1,1.82,1.82,0,0,1-1.61.88A3.06,3.06,0,0,1,370.81,284.8Z" transform="translate(-100.79 -12.89)"/><path class="cls-38" d="M366.7,281.7a10.64,10.64,0,0,0,9.81,1.35,15.76,15.76,0,0,1-5.35,0A12.23,12.23,0,0,1,366.7,281.7Z" transform="translate(-100.79 -12.89)"/><path class="cls-37" d="M377.64,279.2c.23.62,1.58.7,3,.16s2.39-1.47,2.16-2.1-1.58-.69-3-.16S377.4,278.58,377.64,279.2Z" transform="translate(-100.79 -12.89)"/><path class="cls-37" d="M359.67,276.29c-.25.94,1.3,2.15,3.46,2.71s4.1.25,4.34-.69-1.31-2.16-3.46-2.71S359.91,275.35,359.67,276.29Z" transform="translate(-100.79 -12.89)"/><path class="cls-47" d="M368.6,273.28a1.64,1.64,0,0,0-.23-.18,3,3,0,0,0-.68-.31,11.07,11.07,0,0,0-1.08-.25c-.41-.08-.85-.16-1.32-.23a11.82,11.82,0,0,0-2.41-.14,7.52,7.52,0,0,0-.77.09l-.29.05.22-.2a4,4,0,0,1,.7-.44,4.75,4.75,0,0,1,2.7-.39,5.59,5.59,0,0,1,1.45.43,5,5,0,0,1,1.06.63,2.08,2.08,0,0,1,.54.66A1.09,1.09,0,0,1,368.6,273.28Z" transform="translate(-100.79 -12.89)"/><path class="cls-47" d="M381.6,272.45h-.73c-.43,0-1,.08-1.63.09s-1.2-.1-1.61-.1a3.39,3.39,0,0,0-.51,0l-.2,0a.83.83,0,0,1,.11-.17,1.76,1.76,0,0,1,.44-.39,3.39,3.39,0,0,1,1.77-.45A3.5,3.5,0,0,1,381,272a1.85,1.85,0,0,1,.45.35A.92.92,0,0,1,381.6,272.45Z" transform="translate(-100.79 -12.89)"/><path class="cls-46" d="M379.29,266.71a5.45,5.45,0,0,0-5.38,4.64,3.47,3.47,0,0,0-2.61.06A5.94,5.94,0,0,0,359.85,270L352,268.68l-.15.9,7.72,1.26a5.86,5.86,0,0,0-.14,1.26,5.95,5.95,0,0,0,11.89.28,2.61,2.61,0,0,1,2.53,0,5.43,5.43,0,1,0,5.43-5.66Zm-13.9,10.42a5,5,0,1,1,5-5A5,5,0,0,1,365.39,277.13Zm13.9-.46a4.53,4.53,0,1,1,4.52-4.53A4.53,4.53,0,0,1,379.29,276.67Z" transform="translate(-100.79 -12.89)"/><path class="cls-48" d="M389.47,506.51l-10.94.44-1-57.26,0-1.06,1-15.82-6.92-36.65H369l-1.59,36.45-.89,13.91-.2,7.94-1.2,47.12-10.5-.43s-4.7-39.72-4.7-50.74A13,13,0,0,1,350,448l.14-1.05,2.49-18.63s-7.24-35.18-6.87-44c.15-3.61,1.39-9.79,2.8-15.82,2-8.63,4.37-16.94,4.37-16.94l28-1.22c1.19,3.24,2.39,6.93,3.52,10.65,3.34,10.93,6.08,22,6.08,22,.5,1.74,2.63,38.17,3.61,55.44.31,5.41.51,8.94.51,8.94C395.75,452.6,389.47,506.51,389.47,506.51Z" transform="translate(-100.79 -12.89)"/><path class="cls-49" d="M366.28,454.46l-1.2,47.12-10.5-.43s-4.7-39.72-4.7-50.74A13,13,0,0,1,350,448l.14-1.05a16.09,16.09,0,0,0,1.88,2.76c2.67,2.75,5.9,4.93,9.84,5.17A14.46,14.46,0,0,0,366.28,454.46Z" transform="translate(-100.79 -12.89)"/><path class="cls-49" d="M389.47,506.51l-10.94.44-1-57.26a91.94,91.94,0,0,0,16.61-11.16c.31,5.41.51,8.94.51,8.94C395.75,452.6,389.47,506.51,389.47,506.51Z" transform="translate(-100.79 -12.89)"/><path class="cls-49" d="M384.43,361.06c-2.62-.17-5.25-.48-7.87-.62-8.55-.47-17.71,1-25,5.74a31.16,31.16,0,0,0-3,2.39c2-8.63,4.37-16.94,4.37-16.94l28-1.22C382.1,353.65,383.3,357.34,384.43,361.06Z" transform="translate(-100.79 -12.89)"/><path class="cls-50" d="M327.91,326s2.94,3.55,2.48,3.86-3.24-1.55-3.24-1.55-.82,3.07-1.73,3.37.31-4.92.31-4.92c-1.86-1.34-24-11-31.36-14.23l.67-1.15s27.73,11,31.22,14.06c0,0,5.56-10,7.49-12.8,0,0,8.42-11.45,10-12.06C343.28,300.93,327.91,326,327.91,326Z" transform="translate(-100.79 -12.89)"/><path class="cls-50" d="M403.85,323.25c-.87.76-2.55-.91-2.55-.91s-1.06,2.89-2,3,.54-3.12.54-3.12c-.64-1.33-11.69-11.56-19.44-18.64l-5.92-5.38-1.59-1.44c.55.32,1.14.69,1.75,1.11a30.78,30.78,0,0,1,4.11,2.93,214,214,0,0,1,21.16,18.86l.35.35c2.68-3.75,27.06-21,27.06-21l1.15,1.19-26.73,20.31S404.72,322.49,403.85,323.25Z" transform="translate(-100.79 -12.89)"/></g></g></svg>