<svg xmlns="http://www.w3.org/2000/svg" viewBox="0 0 238.27 283.91"><defs><style>.cls-1{opacity:0.2;}.cls-2{fill:#f2ecd1;}</style></defs><g id="Capa_2" data-name="Capa 2"><g id="Capa_1-2" data-name="Capa 1"><g class="cls-1"><path class="cls-2" d="M105.13,113.65A76.86,76.86,0,0,0,80.2,114L68.83,97,56,102.57,43.17,108.1,47.73,128a76.69,76.69,0,0,0-17.36,17.89l-20-4-5.16,13L0,167.92l17.32,10.86a76.58,76.58,0,0,0,.36,24.93l-17,11.36L6.23,227.9l5.54,12.84,19.92-4.57a76.92,76.92,0,0,0,17.89,17.37l-4,20,13,5.16,13,5.16,10.86-17.32a76.86,76.86,0,0,0,24.93-.37l11.37,17,12.83-5.54,12.83-5.53-4.56-19.93a76.69,76.69,0,0,0,17.36-17.89l20.05,4,5.16-13,5.16-13-17.32-10.86a76.58,76.58,0,0,0-.36-24.93l17-11.36-5.54-12.83-5.54-12.83-19.92,4.56A76.92,76.92,0,0,0,138,126.7l4-20-13-5.16-13-5.15Zm37.38,95.82a52.43,52.43,0,1,1-29.38-68.08A52.43,52.43,0,0,1,142.51,209.47Z"/></g><g class="cls-1"><path class="cls-2" d="M201.83,12.56A40.42,40.42,0,0,0,188.94,10L185,0l-7.22,1.44-7.22,1.44.16,10.77A40.46,40.46,0,0,0,159.76,21l-9.89-4.25-4.08,6.12-4.09,6.12,7.73,7.5a40.42,40.42,0,0,0-2.56,12.89l-10,4,1.44,7.22,1.44,7.22,10.77-.16a40.23,40.23,0,0,0,7.3,10.92l-4.25,9.89,6.12,4.08,6.12,4.09,7.5-7.73A40.42,40.42,0,0,0,186.2,91.4l4,10L197.4,100l7.22-1.44-.16-10.77a40.23,40.23,0,0,0,10.92-7.3l9.89,4.25,4.08-6.12,4.09-6.12L225.71,65a40.42,40.42,0,0,0,2.56-12.89l10-4-1.44-7.22-1.44-7.22-10.77.16a40.46,40.46,0,0,0-7.3-10.92L221.57,13l-6.12-4.08-6.12-4.09ZM210.54,66a27.62,27.62,0,1,1-7.64-38.3A27.61,27.61,0,0,1,210.54,66Z"/></g></g></g></svg>