<svg xmlns="http://www.w3.org/2000/svg" viewBox="0 0 188.07 263.56"><defs><style>.cls-1{opacity:0.2;}.cls-2{fill:#f2ecd1;}</style></defs><g id="Capa_2" data-name="Capa 2"><g id="Capa_1-2" data-name="Capa 1"><g class="cls-1"><path class="cls-2" d="M54,189.69a33.55,33.55,0,0,0-10.71-2.13L40,179.25l-6,1.19-6,1.2.13,9A33.71,33.71,0,0,0,19,196.67l-8.23-3.54-3.4,5.09L4,203.31l6.42,6.24a33.54,33.54,0,0,0-2.12,10.71L0,223.58l1.2,6,1.2,6,9-.13a33.44,33.44,0,0,0,6.07,9.07l-3.54,8.23,5.09,3.4,5.1,3.39,6.23-6.42A33.6,33.6,0,0,0,41,255.24l3.31,8.32,6-1.2,6-1.2-.13-9a33.64,33.64,0,0,0,9.08-6.07l8.22,3.54,3.4-5.09,3.4-5.1-6.43-6.23A33.61,33.61,0,0,0,76,222.54l8.31-3.31-1.19-6-1.2-6-9,.13a33.92,33.92,0,0,0-6.08-9.08l3.54-8.22-5.09-3.4-5.09-3.4Zm7.25,44.46A23,23,0,1,1,54.9,202.3,23,23,0,0,1,61.26,234.15Z"/></g><g class="cls-1"><path class="cls-2" d="M103.66,16.35a66.52,66.52,0,0,0-21.3,3.8l-12.11-13L60,13.72,49.82,20.26l6.7,16.42A66.84,66.84,0,0,0,44.14,54.43l-17.72-.6L23.81,65.68l-2.6,11.84L37.56,84.4a66.74,66.74,0,0,0,3.8,21.3l-13,12.11L34.94,128l6.53,10.21,16.43-6.69a66.72,66.72,0,0,0,17.75,12.37L75,161.65l11.85,2.6,11.84,2.6,6.89-16.35a66.78,66.78,0,0,0,21.3-3.79l12.11,13,10.21-6.54,10.22-6.54-6.7-16.42a66.52,66.52,0,0,0,12.38-17.75l17.72.6,2.6-11.84,2.61-11.85-16.35-6.88a66.74,66.74,0,0,0-3.8-21.3l13-12.11-6.54-10.21-6.53-10.22-16.43,6.7a66.52,66.52,0,0,0-17.75-12.38l.6-17.73L122.39,2.6,110.54,0Zm45.42,76.84A45.5,45.5,0,1,1,114.4,39,45.5,45.5,0,0,1,149.08,93.19Z"/></g></g></g></svg>