<svg xmlns="http://www.w3.org/2000/svg" xmlns:xlink="http://www.w3.org/1999/xlink" viewBox="0 0 1198.37 963.57"><defs><style>.cls-1{fill:none;}.cls-2{clip-path:url(#clip-path);}.cls-3{fill:#ff4f23;opacity:0.7;}</style><clipPath id="clip-path" transform="translate(-0.21 0.39)"><rect class="cls-1" width="1115" height="932"/></clipPath></defs><g id="Capa_2" data-name="Capa 2"><g id="Capa_1-2" data-name="Capa 1"><g class="cls-2"><path class="cls-3" d="M910.62,26.3c-46.2,15.81-91,39.48-123.58,76.32-34.27,38.77-52.51,89-74.28,136.14s-50.08,94.76-95.57,118.86C572.3,381.4,518.44,378.28,470,393.06A209.19,209.19,0,0,0,368,462.53C335.1,503.89,318.86,556,295.66,603.65A509.08,509.08,0,0,1,124.2,801.77c-26.77,18.11-55.42,33.72-79.42,55.47S1.32,908.48.21,941.13C90.27,929.17,180.78,955,271.57,958c106.07,3.44,212.45-24.47,317.68-10.47,42.47,5.65,84.58,18.11,127.33,15.25,45.13-3,87.84-23,132.93-26.52,34.92-2.75,69.75,4.43,104.59,8a515.85,515.85,0,0,0,165.74-9.77c11.58-2.6,23.57-5.86,32.44-13.86,11.94-10.77,15.83-27.81,18.84-43.74a1583.37,1583.37,0,0,0,16-484.18c-11.09-91.29-30.13-184.07-12.5-274.29,5.17-26.49,13.48-53.83,6.66-79.94-12.88-49.38-70-37.45-108-38A481.5,481.5,0,0,0,910.62,26.3Z" transform="translate(-0.21 0.39)"/></g></g></g></svg>