<svg xmlns="http://www.w3.org/2000/svg" xmlns:xlink="http://www.w3.org/1999/xlink" viewBox="0 0 1770.34 1077.96"><defs><style>.cls-1,.cls-18,.cls-19,.cls-22,.cls-25,.cls-26,.cls-28,.cls-31{fill:none;}.cls-2{isolation:isolate;}.cls-3{clip-path:url(#clip-path);}.cls-4{fill:#f2ecd1;}.cls-13,.cls-14,.cls-15,.cls-16,.cls-31,.cls-4,.cls-5,.cls-6,.cls-9{opacity:0.8;}.cls-10,.cls-5{fill:#e7ddbf;}.cls-7{fill:#2d6f3f;}.cls-8{fill:#194536;}.cls-9{fill:#d3c896;}.cls-11,.cls-16{fill:#c2c04b;}.cls-12{fill:#d6d355;}.cls-13,.cls-23{fill:#469541;}.cls-14,.cls-21,.cls-29{fill:#2f8029;}.cls-15{fill:#166c15;}.cls-17{fill:#234e3c;}.cls-18{stroke:#469541;}.cls-18,.cls-19,.cls-22,.cls-25,.cls-26,.cls-38,.cls-55,.cls-56{stroke-miterlimit:10;}.cls-19{stroke:#002818;}.cls-20{fill:#3e8936;}.cls-21{opacity:0.32;mix-blend-mode:multiply;}.cls-22{stroke:#145617;}.cls-24{fill:#55ad4e;}.cls-25{stroke:#c2c04b;}.cls-26{stroke:#153b36;}.cls-27{fill:#153b36;}.cls-28{stroke:#539d7b;stroke-linecap:round;stroke-linejoin:round;}.cls-30{fill:#277824;}.cls-32{clip-path:url(#clip-path-2);}.cls-33{fill:#4d3b38;opacity:0.79;}.cls-34{font-size:92.68px;fill:#e87e70;font-family:Folks-Bold;font-weight:700;}.cls-35{letter-spacing:-0.15em;}.cls-36{letter-spacing:0em;}.cls-37{letter-spacing:-0.02em;}.cls-38{font-size:44.6px;letter-spacing:-0.01em;}.cls-38,.cls-56{fill:#fff;stroke:#fff;}.cls-38,.cls-55{stroke-width:0.5px;}.cls-38,.cls-49,.cls-51,.cls-56{font-family:CocogooseClassicTrial-Medium, Cocogoose Classic Trial;font-weight:500;}.cls-39{letter-spacing:0.02em;}.cls-40{letter-spacing:0em;}.cls-41{letter-spacing:0.02em;}.cls-42{letter-spacing:0.01em;}.cls-43{letter-spacing:0.01em;}.cls-44{letter-spacing:0.01em;}.cls-45{letter-spacing:0em;}.cls-46{letter-spacing:0.01em;}.cls-47{letter-spacing:0em;}.cls-48{fill:#dbd6d5;}.cls-49,.cls-51{opacity:0.57;font-size:27.87px;fill:#797979;}.cls-49,.cls-52{letter-spacing:0.02em;}.cls-50{letter-spacing:0em;}.cls-51{letter-spacing:-0.1em;}.cls-53{letter-spacing:0em;}.cls-54{letter-spacing:0.02em;}.cls-55{fill:#ca401d;stroke:#ca401d;}.cls-56{font-size:39.02px;stroke-width:0.75px;}.cls-57{letter-spacing:-0.01em;}.cls-58{letter-spacing:-0.01em;}</style><clipPath id="clip-path" transform="translate(1.65 237.33)"><rect class="cls-1" x="0.08" y="2.57" width="1745" height="714"/></clipPath><clipPath id="clip-path-2" transform="translate(1.65 237.33)"><rect class="cls-1" width="1744.25" height="716.95"/></clipPath></defs><g class="cls-2"><g id="Capa_2" data-name="Capa 2"><g id="Capa_1-2" data-name="Capa 1"><g class="cls-3"><rect class="cls-4" x="4.06" y="237.28" width="1742.67" height="704.83"/><path class="cls-5" d="M1676.39,533.33S1586.22,205,1577.08,142.66l-9.15-62.3s-1.31,138.36,10.45,174.87l11.76,36.51s-61.41-94.53-58.8-133.92l2.61-39.39s-26.13,109.94,14.38,159.35,23.52,33.89,23.52,33.89l-110.72-38.34L1550.94,381l-35.76-12.13s5.71,29,46.22,67.16S1676.39,533.33,1676.39,533.33Z" transform="translate(1.65 237.33)"/><g class="cls-6"><path class="cls-7" d="M1642.37,140.09l-29.7,4.53,42.69,22.75,24.18,50.79-20.71,3.17,29.74,15.84,80.12,168.37-40.16,137.67-42.41,4.42-84.9,8.85c-21.32-47.61-49.76-169.34-71.44-271.36l7.27-1,4.76-42-17.2,18.5c-6.68-32-12.52-61.13-17-84.08l21.21-14.31L1504.54,161c-4.32-22.21-6.82-35.62-6.82-35.62l51-95.76,77.49,76.53Z" transform="translate(1.65 237.33)"/><polygon class="cls-8" points="1644.02 377.41 1614.32 381.95 1657.01 404.69 1681.19 455.49 1660.48 458.66 1690.22 474.5 1770.34 642.87 1730.18 780.53 1687.77 784.96 1550.41 266.99 1627.9 343.52 1644.02 377.41"/></g><path class="cls-5" d="M898,837.89l80.59-1c100.19-1.15,200.4-1.38,300.61-1.46,57-31.18,86.39-65.91,86.39-65.91-91.25-27.86-163.42-19.43-218,1.94,63.67-87.56,69.26-170.59,69.26-170.59-70.57,25.22-118.43,61.41-150.85,99.9,12.15-83.85-6.85-143-6.85-143-48.79,43.13-78.63,87.55-96.08,129.79Q958,674.26,952.4,662.2c-.55-1.22-1.12-2.43-1.69-3.63-37.3-78.24-87.08-118.05-88.32-119l0,0h0C838.25,632.3,848.61,705,871.42,760c-71.77-68.51-144.5-86.13-144.5-86.13,12.74,73.32,39.73,126.44,71.57,164.92q24.07.15,48.16.35Q872.3,837.54,898,837.89Z" transform="translate(1.65 237.33)"/><path class="cls-5" d="M1181.48,835.53q29.37-.07,58.73-.11c-2.85-170.8-8-460-11.72-547.95-5.36-127.49,49.34-449,49.34-449s-90.78-29.76-108.54,3.5C1169.29-158.07,1191.09,557.38,1181.48,835.53Z" transform="translate(1.65 237.33)"/><path class="cls-5" d="M306,838.53l37.89-.15c-1.43-148.17-5.12-513.56-7.65-614.42-3.2-127.48,29.45-449,29.45-449s-54.19-29.76-64.79,3.5C300.92-221.58,316.52,636.43,306,838.53Z" transform="translate(1.65 237.33)"/><path class="cls-5" d="M596.84,205.6c20.12,43-25.93,416.27-54.81,632.49q87.35,0,174.7.24C705.12,627.21,691,265.62,726.2,205.13,927.19,86.78,937.37-68.53,937.37-68.53L921.8-152.45s-11.16,60.94-30.49,113S857.5-.26,857.5-.26l16.54-144L857.5-173.66l-54.18,54.42s28.75,123.88,20,162.14-33.1,30.42-78,72.15a902.58,902.58,0,0,1-89.26,72.44s-39.21-56.29-72.31-114.3S455.88-165.17,455.88-165.17,418-35.84,452.68,13.73C521.66,112.3,568.33,144.69,596.84,205.6Z" transform="translate(1.65 237.33)"/><path class="cls-9" d="M877.11,837.93c-26.08-98.07-57.34-219-62.53-254.36l-9.14-62.31s-1.31,138.36,10.45,174.88l11.76,36.51s-61.42-94.53-58.8-133.92l2.61-39.39s-26.14,109.94,14.37,159.35,23.53,33.88,23.53,33.88L698.64,714.24l89.81,107.69-35.76-12.12s2.2,11.15,13.53,28.74q40.08.19,80.15.55Q861.73,838.17,877.11,837.93Z" transform="translate(1.65 237.33)"/><path class="cls-9" d="M470.4,838.13c34-37,38-63.57,38-63.57l-35.19,13.69,85-111.55L449.26,719.88S433,736.14,471.28,685s7.39-159.83,7.39-159.83L483,564.4c4.33,39.23-52.9,136.39-52.9,136.39l10.16-37c10.15-37,2.8-175.17,2.8-175.17l-6.42,62.65c-4,39.24-35.23,184.18-58,287Q424.54,838.17,470.4,838.13Z" transform="translate(1.65 237.33)"/><path class="cls-5" d="M705.47,509.7s178.37-76.81,215.61-155.59-17.64-72.87,78.41-128,227.38-35.45,274.42-139.83,40.51-188.85,40.51-188.85l-30.32-15.06s7.34-1-32.79,91.6-71.49,141.85-136.17,159.57S976,171,932.84,206.4s-88.2,169.37-150.93,187.1-77.56-1.84-77.56-1.84Z" transform="translate(1.65 237.33)"/><g class="cls-6"><path class="cls-10" d="M1437.15,648c-8,2.85-25.59,9.09-60.12,21.38-41.48,14.76-56.89,38.95-61.62,48.72a2.82,2.82,0,0,0,2.73,4c13.58-.9,54.45-4.36,78.13-14.22,22.65-9.44,38.66-42.58,44.4-56.13A2.81,2.81,0,0,0,1437.15,648Z" transform="translate(1.65 237.33)"/><path class="cls-10" d="M1440.32,580c-8,2.85-25.59,9.09-60.12,21.38-41.48,14.76-56.89,39-61.61,48.72a2.81,2.81,0,0,0,2.73,4c13.57-.9,54.44-4.36,78.12-14.23,22.65-9.43,38.66-42.57,44.4-56.12A2.81,2.81,0,0,0,1440.32,580Z" transform="translate(1.65 237.33)"/><path class="cls-10" d="M1432.07,496.06l-57.59,27.51c-39.74,19-52.57,44.65-56.27,54.86a2.82,2.82,0,0,0,3.14,3.72c13.4-2.32,53.7-10,76.24-22.27,21.55-11.74,34.06-46.36,38.37-60.44A2.81,2.81,0,0,0,1432.07,496.06Z" transform="translate(1.65 237.33)"/><path class="cls-10" d="M1330,520.75c11.78-6.83,47-28,63.86-47.38,16.18-18.5,16-55.32,15.16-70a2.81,2.81,0,0,0-4.82-1.82c-6,6.12-19,19.49-44.55,45.81-30.73,31.63-33.93,60.15-33.87,71A2.81,2.81,0,0,0,1330,520.75Z" transform="translate(1.65 237.33)"/><path class="cls-10" d="M1329,480.25l-4.5-18.79a2.76,2.76,0,0,0,1.34-1.5c4.83-12.76,18.7-51.51,19.61-77.22.87-24.59-22.5-53-32.39-63.84a2.81,2.81,0,0,0-4.88,1.65c-.75,8.52-2.4,27.13-5.64,63.76-3.88,44,11.63,68.1,18.52,76.47a2.69,2.69,0,0,0,2.29,1l-9.2,288.51Z" transform="translate(1.65 237.33)"/><path class="cls-10" d="M1316.75,718.6c-3.92-10.12-17.35-35.46-57.51-53.48-33.44-15-50.44-22.63-58.22-26.11a2.81,2.81,0,0,0-3.81,3.47c4.64,14,17.94,48.28,39.76,59.49,22.82,11.73,63.28,18.44,76.74,20.42A2.81,2.81,0,0,0,1316.75,718.6Z" transform="translate(1.65 237.33)"/><path class="cls-10" d="M1239.33,634.09c22.82,11.73,63.28,18.44,76.74,20.42a2.81,2.81,0,0,0,3-3.79c-3.92-10.12-17.35-35.46-57.51-53.48-33.44-15-50.44-22.63-58.22-26.11a2.81,2.81,0,0,0-3.81,3.47C1204.21,588.57,1217.51,622.88,1239.33,634.09Z" transform="translate(1.65 237.33)"/><path class="cls-10" d="M1242.51,554.93c21.48,14,61,24.91,74.21,28.29a2.82,2.82,0,0,0,3.42-3.46c-2.86-10.47-13.6-37.07-51.69-59.17-31.7-18.4-47.83-27.75-55.2-32a2.81,2.81,0,0,0-4.15,3.06C1212.27,506,1222,541.51,1242.51,554.93Z" transform="translate(1.65 237.33)"/><path class="cls-10" d="M1317.4,518.37a3.28,3.28,0,0,0,5.14-2.39c1.08-12.62,0-46.07-32.74-85.68l-47.5-57.4a3.27,3.27,0,0,0-5.77,1.67c-2.31,17-6,59.79,11.08,82.79C1265.46,481.42,1304.35,509.35,1317.4,518.37Z" transform="translate(1.65 237.33)"/></g><g class="cls-6"><path class="cls-10" d="M466.31,623.48l-63.65,3.9c-43.93,2.7-65.38,21.68-72.6,29.76a2.82,2.82,0,0,0,1.52,4.62c13.3,2.89,53.54,10.9,79,8,24.36-2.8,48.84-30.22,58.07-41.66A2.81,2.81,0,0,0,466.31,623.48Z" transform="translate(1.65 237.33)"/><path class="cls-10" d="M488,559l-63.65,3.9c-43.93,2.7-65.38,21.68-72.6,29.76a2.82,2.82,0,0,0,1.52,4.62c13.29,2.89,53.53,10.9,79,8,24.36-2.8,48.84-30.22,58.08-41.65A2.82,2.82,0,0,0,488,559Z" transform="translate(1.65 237.33)"/><path class="cls-10" d="M503.12,476.05l-62.91,10.49c-43.41,7.25-62.79,28.35-69.14,37.14a2.83,2.83,0,0,0,2,4.45c13.52,1.49,54.37,5.27,79.4-.29,23.94-5.31,45.46-35.13,53.47-47.46A2.82,2.82,0,0,0,503.12,476.05Z" transform="translate(1.65 237.33)"/><path class="cls-10" d="M398.22,471.51c13.2-3.3,52.82-13.95,74.38-27.86,20.63-13.3,30.53-48.75,33.79-63.11a2.82,2.82,0,0,0-4.14-3.08l-55.39,31.7c-38.22,21.88-49.12,48.42-52,58.87A2.82,2.82,0,0,0,398.22,471.51Z" transform="translate(1.65 237.33)"/><path class="cls-10" d="M408.37,432.29l.83-19.3a2.79,2.79,0,0,0,1.7-1.07c8.14-10.93,32.11-44.33,40-68.8,7.59-23.39-7.09-57.14-13.62-70.33a2.8,2.8,0,0,0-5.14.23c-3.07,8-9.76,25.42-22.92,59.72-15.8,41.22-7.51,68.69-3.19,78.65A2.76,2.76,0,0,0,408,413L320,687.75Z" transform="translate(1.65 237.33)"/><path class="cls-10" d="M331.21,658c-1-10.81-6.95-38.89-40.62-67.34-28-23.69-42.27-35.72-48.79-41.23a2.81,2.81,0,0,0-4.62,2.28c.63,14.72,4,51.38,21.9,68.21,18.71,17.59,55.77,35.25,68.16,40.88A2.81,2.81,0,0,0,331.21,658Z" transform="translate(1.65 237.33)"/><path class="cls-10" d="M280,555.34c18.71,17.59,55.77,35.25,68.16,40.89a2.81,2.81,0,0,0,4-2.81c-1-10.81-7-38.88-40.61-67.34-28-23.68-42.27-35.72-48.8-41.22a2.8,2.8,0,0,0-4.61,2.28C258.7,501.85,262.08,538.52,280,555.34Z" transform="translate(1.65 237.33)"/><path class="cls-10" d="M304.75,480.13c16.79,19.44,51.83,40.85,63.57,47.75a2.82,2.82,0,0,0,4.24-2.38c.12-10.86-2.9-39.4-33.45-71.2-25.43-26.47-38.36-39.91-44.28-46.07A2.81,2.81,0,0,0,290,410C289.11,424.72,288.68,461.54,304.75,480.13Z" transform="translate(1.65 237.33)"/><path class="cls-10" d="M386.77,465.74a3.27,3.27,0,0,0,5.59-.89c4.5-11.82,12.67-44.27-8-91.42-17.17-39.25-25.91-59.2-29.91-68.33a3.27,3.27,0,0,0-6,0c-6.89,15.71-22.16,55.81-12.07,82.66C347,415.83,376.7,453.44,386.77,465.74Z" transform="translate(1.65 237.33)"/></g><g class="cls-6"><path class="cls-11" d="M1419.06,338.07l43-22.5-11.77,36.78,57.19,55.14,38.94-16.44-11.56,31,66.51,70.72,35-18.83-7,37.51L1743.51,642l7.39-91.36,9.17-113.36s-166.39-144.21-335.7-202.37q-9.81-3.37-19.62-6.35L1295.07,262Z" transform="translate(1.65 237.33)"/><path class="cls-12" d="M1424.37,234.92C1570.05,318.33,1716,504.45,1750.9,550.65l9.17-113.36S1593.68,293.08,1424.37,234.92Z" transform="translate(1.65 237.33)"/></g><path class="cls-13" d="M978.62,836.84q49.89-.57,99.8-.86a2737.42,2737.42,0,0,1,528.1-2.73c30.61,2.81,66.1,4.38,86.84-18.42,20.06-22,16.37-56.15,11.42-85.6L1675,551.73c-6-36-1.7-102.89-45.84-113.45-36.29-8.68-90.89,16.79-123.35,30.6-40.83,17.38-80.49,42.12-107,78.63-17.12,22.89-29.65,50.09-52.32,67.46-36.74,28.14-87.88,22.38-133.44,30.08-26.62,4.5-52.11,14-77.43,23.34l-70.13,26c-30.67,11.38-61.74,23-88.51,41.84-34.36,24.22-60.33,60.8-70.63,101.51Z" transform="translate(1.65 237.33)"/><path class="cls-14" d="M1575.49,628.31,1464.77,590l89.81,107.69-35.76-12.13s5.7,29,46.21,67.17c28.47,26.83,73.72,64,98.11,83.71l13.21.12c-17-62.28-87.6-322.49-95.64-377.24l-9.14-62.3s-1.31,138.36,10.45,174.88l11.76,36.51s-61.42-94.53-58.8-133.92l2.61-39.39S1511.46,545,1552,594.43,1575.49,628.31,1575.49,628.31Z" transform="translate(1.65 237.33)"/><path class="cls-15" d="M1032,765.08,925.09,717,1005,832.3,970.49,817s.78,7.33,6.16,19.84l2,0q54.92-.63,109.83-.92C1072,740.13,1054,630.5,1052.12,597.2l-3.61-62.87s-13.52,137.7-5,175.12l8.49,37.41s-52.83-99.63-46.75-138.63l6.08-39s-35.74,107.17.25,160S1032,765.08,1032,765.08Z" transform="translate(1.65 237.33)"/><path class="cls-16" d="M1264,835.39l32.33,0L1398.12,819l-3.48-4.3s-7-208.33,70.56-280.1c0,0-76.42,51.63-95.7,151,0,0,1.45-59.38-18.5-94.24,0,0-14.63,43.19-9.75,56.39,0,0-41.2-76.15-34.41-95.08,0,0-10.46,31.4-6.63,95.08l3.83,63.68s-42.7-41.57-64.91-91.69l-22.21-50.11s8.6,128.34,18.29,154.76C1243.53,747,1259.63,816.18,1264,835.39Z" transform="translate(1.65 237.33)"/><g class="cls-6"><path class="cls-17" d="M1262.9,597.41,1308,573.82l-58.89-1s-9.31-22.56-9.82-37.38l-.5-14.82,63.08,1.33-60.59-33.09s11.85-38.3,56.88-55.31l47.37,72-16.79-84.76S1370,404.9,1404.91,410l-4.4,76,30.8-72.86s54.75,2.65,80.77,43.27l-31.6,34.5,40,4s-15.7,36.3-30.64,52L1451,537.76l18.88,28.57a179.16,179.16,0,0,1-37,21.42c-21.6,9.22-18.76,9.28-18.76,9.28L1403,585l-1.29,15.57S1340.93,639.61,1262.9,597.41Z" transform="translate(1.65 237.33)"/><polyline class="cls-18" points="1243.22 781.41 1378.58 806.64 1266.41 691.55"/><polyline class="cls-18" points="1356.92 650.7 1378.58 806.64 1478.59 667.11"/><polyline class="cls-18" points="1450.68 652.82 1378.58 806.64 1288.91 846.2"/><line class="cls-18" x1="1390.86" y1="842.8" x2="1378.58" y2="806.64"/></g><path class="cls-16" d="M560.15,838.08q68.54,0,137.06.19c-.37-37.37,1.78-209,70.7-272.85,0,0-76.42,51.64-95.71,151,0,0,1.46-59.38-18.5-94.24,0,0-14.62,43.19-9.74,56.39,0,0-41.2-76.16-34.42-95.09,0,0-10.45,31.41-6.62,95.09l3.82,63.67s-42.69-41.57-64.9-91.68l-22.21-50.12s8.6,128.34,18.29,154.77C543.74,771.07,553.38,809.73,560.15,838.08Z" transform="translate(1.65 237.33)"/><g class="cls-6"><path class="cls-7" d="M257.86,104,230.37,91.84,254.26,134l-6.69,55.9-19.18-8.47L245,210.85,222.82,396.13,115.44,490.69,77.29,471.58.91,433.3c7.4-51.67,48.37-169.74,84.52-267.53l6.67,3.06,26.46-32.92-24.4,6.35c11.45-30.63,22.06-58.35,30.5-80.14l25.54-.65-19.86-14c8.2-21.07,13.25-33.74,13.25-33.74l94.19-53.32L262.34,66.71Z" transform="translate(1.65 237.33)"/><polygon class="cls-8" points="259.51 341.33 232.02 329.16 255.91 371.36 249.22 427.26 230.04 418.78 246.69 448.17 224.47 633.46 117.09 728.02 78.94 708.9 239.43 197.69 263.99 304.04 259.51 341.33"/></g><g class="cls-6"><path class="cls-11" d="M409.43,252.2,365.6,231.47l13.25,36.28L324,325.18l-39.58-14.83,12.81,30.54-63.59,73.38-35.73-17.38,8.49,37.19L97.58,569.18l-11.1-91L72.72,365.31s160.41-150.91,327.21-216q9.68-3.76,19.35-7.15l111,28.94Z" transform="translate(1.65 237.33)"/><path class="cls-12" d="M399.93,149.35C257.76,238.66,119.5,430.61,86.48,478.2L72.72,365.31S233.13,214.4,399.93,149.35Z" transform="translate(1.65 237.33)"/></g><path class="cls-14" d="M122.78,737.53c-1.3-5.25,18.45-174.68,39.11-252.91L87.4,640.86s-20.9-151-36.59-187.76L35.13,416.34l-20,178L6.38,732.77Z" transform="translate(1.65 237.33)"/><g class="cls-6"><path class="cls-17" d="M334.51,810.54S312.07,591.45,559.93,502.86C559.93,502.86,546.82,698.14,334.51,810.54Z" transform="translate(1.65 237.33)"/><line class="cls-19" x1="561.58" y1="740.19" x2="336.16" y2="1047.86"/><polyline class="cls-19" points="465.48 811.63 448.87 894.03 515.73 855.62"/><polyline class="cls-19" points="407.12 893.23 390.5 975.62 457.36 937.21"/><path class="cls-20" d="M323.24,805.35c-.14,1.46-.29,2.92-.46,4.38l0,0c-1.24-.68-46.1-25.46-85.53-79.34-43.4-59.4-80.2-154.15-44.65-291l0,0c1.28,1,52.86,42.26,91.5,123.32.59,1.25,1.18,2.5,1.75,3.77C313.37,625.58,333.63,705.26,323.24,805.35Z" transform="translate(1.65 237.33)"/><path class="cls-21" d="M323.24,805.35c-13.62-8.55-49.51-33.61-81.82-77.77q6.74-26.91,13.46-53.85c.68-2.8,1.39-5.59,2.09-8.41,3-11.85,5.91-23.67,9-35.48,1.27-4.72,2.57-9.46,3.92-14.16,4-14.2,8.47-28.29,13.63-42.13.54-1.46,1.32-4,2.31-7.09C313.37,625.58,333.63,705.26,323.24,805.35Z" transform="translate(1.65 237.33)"/><polyline class="cls-22" points="324.43 1047.05 324.41 1047.03 292.75 956.9 262.94 872.13 259.34 861.86 194.27 676.7 194.24 676.68"/><polyline class="cls-22" points="199.18 800.01 259.34 861.86 265.46 782.59"/><polyline class="cls-22" points="234.52 897.03 294.68 958.88 300.81 879.6"/><path class="cls-23" d="M300.69,827.92S199,632.8,396.54,458.21C396.54,458.21,456.41,644.45,300.69,827.92Z" transform="translate(1.65 237.33)"/><line class="cls-22" x1="398.19" y1="695.53" x2="302.35" y2="1065.25"/><polyline class="cls-22" points="335.3 797.68 350.27 880.39 398.19 819.82"/><polyline class="cls-22" points="311.2 895.2 326.16 977.91 374.09 917.34"/><path class="cls-24" d="M350.7,790.32S462.3,600.76,714,677.6C714,677.6,587.92,826.78,350.7,790.32Z" transform="translate(1.65 237.33)"/><line class="cls-22" x1="715.66" y1="914.92" x2="352.35" y2="1027.65"/><polyline class="cls-22" points="596.12 914.96 534.01 971.28 610.49 980.34"/><polyline class="cls-22" points="500.91 945.7 438.79 1002.03 515.28 1011.08"/><path class="cls-24" d="M254.41,838.85q28.34-.21,56.68-.34c-77.76-216.21-258.82-260-258.82-260C81.92,749.19,186.14,814.27,254.41,838.85Z" transform="translate(1.65 237.33)"/><path class="cls-25" d="M52.27,578.49c23,23,44.47,46.83,68.33,70.67,2.39,3.18,4.77,5.56,7.16,8.74,45.33,46.87,87.48,91.37,132.82,138.24,4,3.18,7.16,7.15,11.13,10.33a85,85,0,0,1,7.16,8.74c4.77,4,7.95,8.74,12.94,12.84" transform="translate(1.65 237.33)"/><polyline class="cls-25" points="107.85 923.01 185.9 953.32 159.45 880.64"/><polyline class="cls-25" points="178.09 994.54 256.14 1024.85 229.69 952.17"/></g><g class="cls-6"><line class="cls-26" x1="136.24" y1="1025.59" x2="174.58" y2="1009.02"/><path class="cls-27" d="M170.87,774.75a2.92,2.92,0,0,1-2.07-4.59c6.56-9.13,26.57-31.06,71.53-38.7,37.42-6.36,56.44-9.58,65.15-11.05a2.91,2.91,0,0,1,2.92,4.47c-8.26,12.8-30.47,43.76-55.26,49.34C227.22,780.05,184.89,776.26,170.87,774.75Z" transform="translate(1.65 237.33)"/><path class="cls-28" d="M303.56,724.88s-49.07,30.85-131.38,46.82" transform="translate(1.65 237.33)"/><line class="cls-26" x1="152.4" y1="953.94" x2="181.96" y2="938.41"/><path class="cls-27" d="M178.25,704.14a2.93,2.93,0,0,1-2.07-4.6c6.55-9.12,26.57-31,71.53-38.69l65.15-11.06a2.92,2.92,0,0,1,2.92,4.47c-8.26,12.81-30.48,43.77-55.26,49.34C234.6,709.44,192.26,705.64,178.25,704.14Z" transform="translate(1.65 237.33)"/><path class="cls-28" d="M310.94,654.26s-49.07,30.85-131.39,46.82" transform="translate(1.65 237.33)"/><line class="cls-26" x1="168" y1="889.53" x2="202.22" y2="873.27"/><path class="cls-27" d="M198.84,639.2a2.92,2.92,0,0,1-2.53-4.36c5.58-9.76,23.22-33.65,67.15-45.91,36.56-10.22,55.15-15.4,63.66-17.77a2.91,2.91,0,0,1,3.37,4.14c-6.9,13.6-25.8,46.7-49.88,54.82C255.43,638.61,212.94,639.24,198.84,639.2Z" transform="translate(1.65 237.33)"/><path class="cls-28" d="M325.67,575.81S280.05,611.59,199.82,636" transform="translate(1.65 237.33)"/><line class="cls-26" x1="180.25" y1="835.07" x2="204.91" y2="808.03"/><path class="cls-27" d="M202.76,574.36a2.92,2.92,0,0,1-3.89-3.21c1.87-11.09,10.19-39.63,47.16-66.41,30.78-22.28,46.44-33.6,53.6-38.78a2.91,2.91,0,0,1,4.59,2.71c-1.78,15.15-8.1,52.78-27.88,68.76C255.65,554.15,216,569.5,202.76,574.36Z" transform="translate(1.65 237.33)"/><path class="cls-28" d="M299.87,470.82S269.42,520.24,202.58,571" transform="translate(1.65 237.33)"/><polyline class="cls-26" points="192.98 748.8 194.53 773.22 131.49 1046.17"/><path class="cls-27" d="M193.25,514.62a2.9,2.9,0,0,1-5,0c-5.55-9.78-17.1-37.16-5.33-81.37,9.79-36.8,14.77-55.51,17.06-64.07a2.91,2.91,0,0,1,5.27-.81c8.17,12.87,27,46,21.74,71C221.47,465.4,200.44,502.46,193.25,514.62Z" transform="translate(1.65 237.33)"/><path class="cls-28" d="M203.2,372.79s7.56,57.6-12.18,139.38" transform="translate(1.65 237.33)"/><line class="cls-26" x1="134.96" y1="1031.14" x2="104.15" y2="1002.5"/><path class="cls-27" d="M103.12,768.81a2.91,2.91,0,0,0,3.78-3.32c-2.22-11-11.42-39.3-49.22-64.88L2.89,663.53a2.92,2.92,0,0,0-4.51,2.87c2.26,15.08,9.75,52.48,30,67.84C49.62,750.29,89.74,764.38,103.12,768.81Z" transform="translate(1.65 237.33)"/><path class="cls-28" d="M2.8,668.4s32,48.43,100.39,97.09" transform="translate(1.65 237.33)"/><line class="cls-26" x1="150.69" y1="963.04" x2="126.49" y2="935.13"/><path class="cls-27" d="M125.45,701.44a2.91,2.91,0,0,0,3.78-3.32c-2.21-11-11.42-39.3-49.22-64.89-31.46-21.3-47.46-32.12-54.78-37.07A2.91,2.91,0,0,0,20.72,599c2.26,15.09,9.75,52.49,30,67.85C72,682.92,112.07,697,125.45,701.44Z" transform="translate(1.65 237.33)"/><path class="cls-28" d="M25.14,601s32,48.43,100.39,97.09" transform="translate(1.65 237.33)"/><line class="cls-26" x1="165.02" y1="903.15" x2="134.84" y2="867.41"/><path class="cls-27" d="M133.42,633.76a2.91,2.91,0,0,0,4.11-2.91c-1.07-11.2-7.31-40.27-42.27-69.65L44.59,518.64A2.91,2.91,0,0,0,39.81,521c.69,15.24,4.29,53.22,22.88,70.59C82.12,609.78,120.57,628,133.42,633.76Z" transform="translate(1.65 237.33)"/><path class="cls-28" d="M44,523.47s26.82,51.49,89.84,107" transform="translate(1.65 237.33)"/><line class="cls-26" x1="182.05" y1="827.24" x2="169.58" y2="792.22"/><path class="cls-27" d="M166.71,559a3.39,3.39,0,0,0,5.66-1.53c3.34-12.68,8.2-47-18.22-93.31-22-38.54-33.18-58.12-38.3-67.08a3.39,3.39,0,0,0-6.18.66c-5.38,16.95-16.72,59.95-3.38,86.49C120.24,512,155,547.46,166.71,559Z" transform="translate(1.65 237.33)"/><path class="cls-28" d="M113.26,402.14s8.63,67.2,55.23,153.43" transform="translate(1.65 237.33)"/></g><g class="cls-6"><path class="cls-26" d="M1636,825.24l2.52-3.43" transform="translate(1.65 237.33)"/><path class="cls-11" d="M1638.3,825a2.53,2.53,0,0,1-3.57-2.53c.92-9.75,6.34-35.07,36.74-60.7l44.07-37.13a2.53,2.53,0,0,1,4.16,2.06c-.59,13.27-3.7,46.35-19.87,61.5C1682.93,804.06,1649.48,819.94,1638.3,825Z" transform="translate(1.65 237.33)"/><path class="cls-26" d="M1716.06,728.86s-23.32,44.87-78.13,93.28" transform="translate(1.65 237.33)"/><line class="cls-26" x1="1599.35" y1="1027.59" x2="1614.74" y2="1002.85"/><path class="cls-11" d="M1612.89,768.73a2.53,2.53,0,0,1-3.57-2.54c.92-9.75,6.34-35.07,36.74-60.7,25.31-21.33,38.18-32.17,44.07-37.12a2.53,2.53,0,0,1,4.16,2.06c-.59,13.27-3.7,46.34-19.87,61.5C1657.52,747.78,1624.07,763.66,1612.89,768.73Z" transform="translate(1.65 237.33)"/><path class="cls-26" d="M1690.65,672.57s-23.31,44.87-78.12,93.28" transform="translate(1.65 237.33)"/><line class="cls-26" x1="1582.84" y1="972.32" x2="1601.41" y2="944.97"/><path class="cls-11" d="M1599.89,710.86a2.54,2.54,0,0,1-3.82-2.15c-.08-9.8,2.7-35.54,30.3-64.19l40-41.5a2.53,2.53,0,0,1,4.35,1.62c.78,13.26,1.09,46.47-13.43,63.22C1642.12,685.38,1610.49,704.65,1599.89,710.86Z" transform="translate(1.65 237.33)"/><path class="cls-26" d="M1667.33,607.15s-18.57,47.05-68.1,100.89" transform="translate(1.65 237.33)"/><line class="cls-26" x1="1568.17" y1="926.02" x2="1574.83" y2="894.8"/><path class="cls-11" d="M1574.41,660.44a2.53,2.53,0,0,1-4.32-.69c-3.46-9.15-9.73-34.26,6.3-70.73,13.35-30.35,20.14-45.77,23.24-52.83a2.53,2.53,0,0,1,4.64,0c5.3,12.16,17,43.2,9.2,64C1605.26,621.87,1582.22,650.94,1574.41,660.44Z" transform="translate(1.65 237.33)"/><path class="cls-26" d="M1602,539.73s-1.21,50.58-29.13,118.29" transform="translate(1.65 237.33)"/><path class="cls-26" d="M1538.27,618.28a21.74,21.74,0,0,0,4.36,5.45c.8.8.8,2.39,1.59,3.18l2.39,2.39a23.9,23.9,0,0,1,3.18,6.35c20.68,63.56,39.77,126.33,59.15,189.68" transform="translate(1.65 237.33)"/><path class="cls-11" d="M1541.09,619.8a2.54,2.54,0,0,1-3.78,2.21c-8.45-4.89-29.13-20.34-39.67-58.74-8.78-32-13.23-48.21-15.27-55.64a2.54,2.54,0,0,1,3.6-2.95c11.78,6.05,40.43,22.61,47.43,43.66C1540.71,570.35,1541.16,607.49,1541.09,619.8Z" transform="translate(1.65 237.33)"/><path class="cls-26" d="M1486.4,508.9s30.92,39.9,51.94,110" transform="translate(1.65 237.33)"/><path class="cls-11" d="M1475.38,835.44q49.24.1,98.48.36c-10.67-7.18-27.7-14.78-53-16.38l-57.38-3.59a2.54,2.54,0,0,0-2.13,4.14A170.78,170.78,0,0,0,1475.38,835.44Z" transform="translate(1.65 237.33)"/><path class="cls-26" d="M1465.49,819.52c2.79,1.35,5.65,2.54,8.52,3.7,1.78.72,3.57,1.41,5.36,2.09" transform="translate(1.65 237.33)"/><line class="cls-26" x1="1602.06" y1="1035.18" x2="1571.66" y2="1024.93"/><path class="cls-11" d="M1572.07,790.06a2.55,2.55,0,0,0,1.38-4.17c-6.5-7.3-25.8-24.45-65.4-26.93-33-2.08-49.71-3.12-57.38-3.6a2.54,2.54,0,0,0-2.13,4.14c8.31,10.33,30.33,35.1,52.28,37.65C1523.78,799.82,1560.07,792.65,1572.07,790.06Z" transform="translate(1.65 237.33)"/><path class="cls-26" d="M1452.74,759.06s45.24,22.21,117.92,28.47" transform="translate(1.65 237.33)"/><line class="cls-26" x1="1586.57" y1="983.87" x2="1548.25" y2="970.39"/><path class="cls-11" d="M1548.39,735.72a2.55,2.55,0,0,0,1.8-4c-5.71-7.94-23.14-27-62.26-33.6l-56.7-9.53a2.54,2.54,0,0,0-2.54,3.89c7.2,11.14,26.54,38.07,48.11,42.89C1499.36,740.41,1536.19,737.05,1548.39,735.72Z" transform="translate(1.65 237.33)"/><path class="cls-26" d="M1432.91,692.48s42.7,26.79,114.34,40.58" transform="translate(1.65 237.33)"/><line class="cls-26" x1="1566.09" y1="919.34" x2="1541.38" y2="898.56"/><path class="cls-11" d="M1540.62,664.87a3,3,0,0,0,3.58-3.65c-3-11-14.44-38.93-54.57-62l-58.16-33.42a3,3,0,0,0-4.35,3.23c3.39,15.11,13.72,52.42,35.37,66.44C1485.12,650.13,1526.75,661.38,1540.62,664.87Z" transform="translate(1.65 237.33)"/><path class="cls-29" d="M1540.45,661.5c-72.79-44.13-108.72-90.76-108.72-90.76" transform="translate(1.65 237.33)"/></g><g class="cls-6"><path class="cls-30" d="M898,837.89l46.11-.6C940.71,821.8,934,803,932.47,796.2a662.63,662.63,0,0,0-97.32-223.78c-9.85-14.51-20.63-29-35.42-38.32s-34.5-12.71-49.78-4.17c-16.74,9.35-24,30.66-22.06,49.81s11.19,36.68,20.68,53.39A1198,1198,0,0,0,895.46,837.87C896.32,837.88,897.17,837.87,898,837.89Z" transform="translate(1.65 237.33)"/><path class="cls-22" d="M781.61,585.22c23,40.1,44.44,79,67.5,120.35l14.32,23.83c10.34,19.07,19.88,36.55,30.22,54.83,7.16,15.09,15.91,28.6,23,43.74" transform="translate(1.65 237.33)"/><path class="cls-20" d="M898,837.89l9.22-.12c-3.47-3-6.32-5.54-8-7.22a657.83,657.83,0,0,0-200-138.71c-16-7.11-32.72-13.69-50.19-13.82s-36,7.46-44.5,22.8c-9.33,16.81-4.29,38.74,7.36,54s28.74,25.26,45.57,34.44Q707,816.3,759,838.51q43.82.22,87.62.58Q872.29,837.54,898,837.89Z" transform="translate(1.65 237.33)"/><path class="cls-22" d="M660.44,731.06c59,31.71,117.89,64.29,175.82,97" transform="translate(1.65 237.33)"/><path class="cls-24" d="M978.62,836.84,993,836.7q7-20.33,12.61-41.08a661.89,661.89,0,0,0,23.07-162.25c.29-17.56-.22-35.61-6.91-51.83s-20.88-30.39-38.25-32.28c-19-2.07-37.18,11.14-46.63,27.88S925,613.58,923.13,632.73A1204.08,1204.08,0,0,0,921,837.59Z" transform="translate(1.65 237.33)"/><path class="cls-22" d="M977.64,612.77c-6.84,71.35-14,143.65-21.93,215.24" transform="translate(1.65 237.33)"/></g><g class="cls-6"><path class="cls-29" d="M1072.88,730.53l64.73-14.66-74-20.9s-4.28-31.58,0-50.43l4.27-18.86,79.13,22.78-65.46-62s27.63-44.36,90.07-50.75l35.89,106.67,6.92-112.53s57.31-6.3,99.65,11.8l-30.75,94.44,63-81.59s68.19,21.65,87.54,81.59l-51.29,33,49.13,18.4s-31.84,40.53-55.88,55.34L1330,718.23l14.35,42.35a232.66,232.66,0,0,1-53.75,14.64c-30.31,4.41-26.74,5.44-26.74,5.44l-10.13-18.94-6.78,19.21S1157.32,809.87,1072.88,730.53Z" transform="translate(1.65 237.33)"/><polyline class="cls-22" points="1065.3 893.45 1227.67 970.57 1124.32 787.87"/><polyline class="cls-22" points="1252.03 766.62 1227.67 970.57 1400.06 828.02"/><polyline class="cls-22" points="1369.6 800.66 1227.67 970.57 1101.46 990.46"/><line class="cls-22" x1="1231.18" y1="1020.28" x2="1227.67" y2="970.57"/></g><path class="cls-5" d="M965.83,109.25c-7.09,11.68-1.24,30.33,12.19,32.56l-48.25,19.45a15.78,15.78,0,0,0-1.85,28.33l25.6,14.5c-17.73,17.47-24.87,45-17.89,69l30.14-20.47c-6.21,14.59,8.36,32.66,24.11,31.44s27.4-18.63,24.67-34.26l22.1,23.09L1054,232.56c5.1,11.53,21.62,16,31.75,8.52s11-24.61,1.56-33c11.13,4,22.62,7.65,34.42,7.37s24.09-5.25,30.36-15.29,4.24-25.35-6-31.26l43.71-2.45c7.18-.4,14.79-.92,19.37-8.67a19.71,19.71,0,0,0,1.1-17.57c-4.5-10.77-16.26-16.08-27.53-16.55-10.09-.43-20,2.43-29.7,5.26l-.39-33.06a25,25,0,0,0-34.34-23.06l-35,14.06c.09,0-12.38-7.57-14.34-8a28.83,28.83,0,0,0-16.4,1c-10.51,3.91-14.11,17.8-23.52,21.18-10.31,3.71-23.1-6.41-34.22-6.23S971.89,99.27,965.83,109.25Z" transform="translate(1.65 237.33)"/><path class="cls-16" d="M1485.27,158.44c-5.84,2.38-9.81,8.14-11.44,14.25s-1.2,12.58-.35,18.84a144.27,144.27,0,0,0,5.27,23.8c14.28-8.36,23.16-26.41,20.14-42.73C1497.42,164.67,1493.08,160.31,1485.27,158.44Z" transform="translate(1.65 237.33)"/><path class="cls-14" d="M1426.69,302.81c-6.92.4-13.1,5-17,10.78s-5.69,12.68-7,19.51a160.72,160.72,0,0,0-2.9,26.69c17.83-3.62,33.47-19.27,36.08-37.36C1437.16,313.63,1434.17,307.55,1426.69,302.81Z" transform="translate(1.65 237.33)"/><path class="cls-14" d="M584.53,505.79c-2.16,6.62-.18,14.07,3.78,19.79s9.66,10,15.5,13.72a158.05,158.05,0,0,0,23.66,12.48c3.17-18-5.61-38.35-21.41-47.41C598.38,500,591.66,500.53,584.53,505.79Z" transform="translate(1.65 237.33)"/><path class="cls-14" d="M242.11,203.33c-2.16,6.61-.18,14.07,3.78,19.79s9.66,10,15.5,13.71a159,159,0,0,0,23.66,12.49c3.17-18-5.61-38.35-21.41-47.41C256,197.5,249.24,198.06,242.11,203.33Z" transform="translate(1.65 237.33)"/><rect class="cls-31" x="96.65" y="470.27" width="1526.36" height="505.31"/><rect class="cls-31" x="96" y="470.27" width="1527.01" height="505.31"/><path class="cls-31" d="M898,837.89l80.59-1c121.46-1.39,242.94-1.45,364.41-1.5q139.15-.08,278.34.75V-100.86H90.38V840.63h1.07l80.58-1c121.47-1.39,243-1.45,364.42-1.5q155.09-.08,310.2,1Q872.3,837.54,898,837.89Z" transform="translate(1.65 237.33)"/></g><g class="cls-32"><rect class="cls-33" x="1.65" y="237.33" width="1748.79" height="716.95"/></g><text class="cls-34" transform="translate(163.85 370.12)">¿<tspan class="cls-35" x="44.95" y="0">T</tspan><tspan class="cls-36" x="78.32" y="0">e inte</tspan><tspan class="cls-37" x="321.79" y="0">r</tspan><tspan x="353.02" y="0">esa?</tspan></text><text class="cls-38" transform="translate(163.85 435.04)">P<tspan class="cls-39" x="25.48" y="0">on</tspan><tspan class="cls-40" x="72.84" y="0">t</tspan><tspan class="cls-41" x="86.37" y="0">e en </tspan><tspan class="cls-42" x="177.57" y="0">c</tspan><tspan class="cls-39" x="197.73" y="0">on</tspan><tspan class="cls-43" x="245.09" y="0">t</tspan><tspan class="cls-39" x="258.99" y="0">ac</tspan><tspan class="cls-40" x="301.84" y="0">t</tspan><tspan class="cls-39" x="315.37" y="0">o </tspan><tspan class="cls-42" x="349.88" y="0">c</tspan><tspan class="cls-39" x="370.05" y="0">on no</tspan><tspan class="cls-44" x="475.71" y="0">s</tspan><tspan class="cls-39" x="495.33" y="0">ot</tspan><tspan class="cls-45" x="533.26" y="0">r</tspan><tspan class="cls-39" x="551.27" y="0">os y </tspan><tspan class="cls-46" x="637.7" y="0">c</tspan><tspan class="cls-39" x="657.87" y="0">omienza a optimizar tu emp</tspan><tspan class="cls-47" x="1181.37" y="0">r</tspan><tspan class="cls-39" x="1199.38" y="0">esa</tspan></text><rect class="cls-48" x="220.63" y="509.45" width="617.68" height="70.24"/><text class="cls-49" transform="translate(248.69 556.8)">Nomb<tspan class="cls-50" x="74.08" y="0">r</tspan><tspan x="85.34" y="0">e</tspan></text><rect class="cls-48" x="867.3" y="509.45" width="679" height="262.01"/><text class="cls-49" transform="translate(894.25 556.8)">Mensaje</text><rect class="cls-48" x="220.63" y="605.34" width="617.68" height="70.24"/><text class="cls-49" transform="translate(248.69 650.46)">Email</text><rect class="cls-48" x="220.63" y="701.23" width="617.68" height="70.24"/><text class="cls-51" transform="translate(248.69 751.92)">T<tspan class="cls-52" x="12.51" y="0">elé</tspan><tspan class="cls-53" x="47.75" y="0">f</tspan><tspan class="cls-54" x="56.9" y="0">ono</tspan></text><rect class="cls-48" x="220.63" y="797.11" width="617.68" height="70.24"/><text class="cls-49" transform="translate(248.69 844.46)">Emp<tspan class="cls-50" x="55.12" y="0">r</tspan><tspan x="66.38" y="0">esa</tspan></text><rect class="cls-55" x="1096.98" y="825.08" width="209.05" height="62.44" rx="12.68"/><text class="cls-56" transform="translate(1121.37 867.19)"><tspan class="cls-57">C</tspan><tspan x="26.43" y="0">on</tspan><tspan class="cls-58" x="66.23" y="0">t</tspan><tspan x="77.57" y="0">ac</tspan><tspan class="cls-58" x="113.43" y="0">t</tspan><tspan x="124.77" y="0">ar</tspan></text></g></g></g></svg>