<svg xmlns="http://www.w3.org/2000/svg" xmlns:xlink="http://www.w3.org/1999/xlink" viewBox="0 0 1748.79 716.95"><defs><style>.cls-1{fill:none;}.cls-2{clip-path:url(#clip-path);}.cls-3{fill:#4d3b38;opacity:0.79;}.cls-4{font-size:92.68px;fill:#e87e70;font-family:Folks-Bold;font-weight:700;}.cls-5{letter-spacing:-0.15em;}.cls-6{letter-spacing:0em;}.cls-7{letter-spacing:-0.02em;}.cls-8{font-size:44.6px;letter-spacing:-0.01em;}.cls-26,.cls-8{fill:#fff;stroke:#fff;}.cls-25,.cls-26,.cls-8{stroke-miterlimit:10;}.cls-25,.cls-8{stroke-width:0.5px;}.cls-19,.cls-21,.cls-26,.cls-8{font-family:CocogooseClassicTrial-Medium, Cocogoose Classic Trial;font-weight:500;}.cls-9{letter-spacing:0.02em;}.cls-10{letter-spacing:0em;}.cls-11{letter-spacing:0.02em;}.cls-12{letter-spacing:0.01em;}.cls-13{letter-spacing:0.01em;}.cls-14{letter-spacing:0.01em;}.cls-15{letter-spacing:0em;}.cls-16{letter-spacing:0.01em;}.cls-17{letter-spacing:0em;}.cls-18{fill:#dbd6d5;}.cls-19,.cls-21{opacity:0.57;font-size:27.87px;fill:#797979;}.cls-19,.cls-22{letter-spacing:0.02em;}.cls-20{letter-spacing:0em;}.cls-21{letter-spacing:-0.1em;}.cls-23{letter-spacing:0em;}.cls-24{letter-spacing:0.02em;}.cls-25{fill:#ca401d;stroke:#ca401d;}.cls-26{font-size:39.02px;stroke-width:0.75px;}.cls-27{letter-spacing:-0.01em;}.cls-28{letter-spacing:-0.01em;}</style><clipPath id="clip-path"><rect class="cls-1" width="1744.25" height="716.95" rx="68.39"/></clipPath></defs><g id="Capa_2" data-name="Capa 2"><g id="Capa_1-2" data-name="Capa 1"><g class="cls-2"><rect class="cls-3" width="1748.79" height="716.95" rx="68.39"/></g><text class="cls-4" transform="translate(162.2 132.79)">¿<tspan class="cls-5" x="44.95" y="0">T</tspan><tspan class="cls-6" x="78.32" y="0">e inte</tspan><tspan class="cls-7" x="321.79" y="0">r</tspan><tspan x="353.02" y="0">esa?</tspan></text><text class="cls-8" transform="translate(162.2 197.71)">P<tspan class="cls-9" x="25.48" y="0">on</tspan><tspan class="cls-10" x="72.84" y="0">t</tspan><tspan class="cls-11" x="86.37" y="0">e en </tspan><tspan class="cls-12" x="177.57" y="0">c</tspan><tspan class="cls-9" x="197.73" y="0">on</tspan><tspan class="cls-13" x="245.09" y="0">t</tspan><tspan class="cls-9" x="258.99" y="0">ac</tspan><tspan class="cls-10" x="301.84" y="0">t</tspan><tspan class="cls-9" x="315.37" y="0">o </tspan><tspan class="cls-12" x="349.88" y="0">c</tspan><tspan class="cls-9" x="370.05" y="0">on no</tspan><tspan class="cls-14" x="475.71" y="0">s</tspan><tspan class="cls-9" x="495.33" y="0">ot</tspan><tspan class="cls-15" x="533.26" y="0">r</tspan><tspan class="cls-9" x="551.27" y="0">os y </tspan><tspan class="cls-16" x="637.7" y="0">c</tspan><tspan class="cls-9" x="657.87" y="0">omienza a optimizar tu emp</tspan><tspan class="cls-17" x="1181.37" y="0">r</tspan><tspan class="cls-9" x="1199.38" y="0">esa</tspan></text><rect class="cls-18" x="218.98" y="272.13" width="617.68" height="70.24"/><text class="cls-19" transform="translate(247.04 319.48)">Nomb<tspan class="cls-20" x="74.08" y="0">r</tspan><tspan x="85.34" y="0">e</tspan></text><rect class="cls-18" x="865.65" y="272.13" width="679" height="262.01"/><text class="cls-19" transform="translate(892.6 319.48)">Mensaje</text><rect class="cls-18" x="218.98" y="368.01" width="617.68" height="70.24"/><text class="cls-19" transform="translate(247.04 413.13)">Email</text><rect class="cls-18" x="218.98" y="463.9" width="617.68" height="70.24"/><text class="cls-21" transform="translate(247.04 514.59)">T<tspan class="cls-22" x="12.51" y="0">elé</tspan><tspan class="cls-23" x="47.75" y="0">f</tspan><tspan class="cls-24" x="56.9" y="0">ono</tspan></text><rect class="cls-18" x="218.98" y="559.79" width="617.68" height="70.24"/><text class="cls-19" transform="translate(247.04 607.13)">Emp<tspan class="cls-20" x="55.12" y="0">r</tspan><tspan x="66.38" y="0">esa</tspan></text><rect class="cls-25" x="1095.33" y="587.75" width="209.05" height="62.44" rx="12.68"/><text class="cls-26" transform="translate(1119.71 629.86)"><tspan class="cls-27">C</tspan><tspan x="26.43" y="0">on</tspan><tspan class="cls-28" x="66.23" y="0">t</tspan><tspan x="77.57" y="0">ac</tspan><tspan class="cls-28" x="113.43" y="0">t</tspan><tspan x="124.77" y="0">ar</tspan></text></g></g></svg>