<svg xmlns="http://www.w3.org/2000/svg" viewBox="0 0 158.38 171.76"><defs><style>.cls-1{fill:#258d8c;}.cls-2{fill:#7fc6a6;}.cls-3{fill:#21111d;}.cls-4{fill:#fec786;}</style></defs><g id="Capa_2" data-name="Capa 2"><g id="Capa_1-2" data-name="Capa 1"><path class="cls-1" d="M158.38,63.36s-3.3-29.85-21.11-24-32.33,43.82-34.27,45-1.35,35.89-1.35,35.89l20.71-6.8S127.88,30.28,158.38,63.36Z"/><path class="cls-2" d="M138.41,1.56S98.5,24.79,87.61,64.62s23.52,51.55,23.52,51.55S116,32.43,138.41,1.56Z"/><path class="cls-1" d="M64.38,121.55S57.7,36.76,24,0c0,0,59.14,23,78.75,83.2,1.11,3.39,1.76,7.16,2.6,10.79a39,39,0,0,1,1.25,10.46c-.23,5.9-1.49,11-1.86,14.69C101.56,151.33,64.38,121.55,64.38,121.55Z"/><path class="cls-2" d="M65.52,85.54c-2.29-12.09-9.35-23.61-20.69-33.3-8.19-7-17.68-12.32-25.08-8.52C3.29,52.15,0,104.54,0,104.54S18.59,68.27,26.72,70.67,42.4,122.3,42.4,122.3l30.4,1.64Z"/><polygon class="cls-3" points="46.22 84.97 47.1 84.68 40.71 76.63 39.83 76.92 46.22 84.97"/><polygon class="cls-3" points="46.23 89.91 47.09 89.6 40.7 82.06 39.84 82.37 46.23 89.91"/><polygon class="cls-3" points="106.94 36.67 112.39 28.87 111.5 28.61 106.04 36.4 106.94 36.67"/><polygon class="cls-3" points="106.92 40.47 111.56 35.02 110.7 34.71 106.06 40.16 106.92 40.47"/><polygon class="cls-3" points="133.14 45.82 142.43 42.74 141.99 42.17 132.69 45.25 133.14 45.82"/><polygon class="cls-3" points="133.17 48.43 138.67 46.26 138.16 45.71 132.66 47.88 133.17 48.43"/><path class="cls-4" d="M132.92,111.21s-1.74,62-27.26,60.53H62.29C36.77,173.19,35,111.21,35,111.21,59.19,108.83,108.76,108.83,132.92,111.21Z"/><polygon class="cls-3" points="72.44 138.74 73.16 138.3 45.26 119.14 44.55 119.58 72.44 138.74"/><polygon class="cls-3" points="68.08 143.39 68.82 142.97 53.47 131.48 52.72 131.9 68.08 143.39"/></g></g></svg>