<svg xmlns="http://www.w3.org/2000/svg" viewBox="0 0 519.36 274.06"><defs><style>.cls-1{fill:#ff4f23;stroke:#ff4f23;stroke-linecap:round;stroke-linejoin:round;stroke-width:2px;opacity:0.41;}</style></defs><g id="Capa_2" data-name="Capa 2"><g id="Capa_1-2" data-name="Capa 1"><path class="cls-1" d="M49.38,167.11l10.83,1.13a3.91,3.91,0,0,1,3.57,4.4c-1.23,11.78-4.52,19.31-14,30.61-7,8.48-27.84,20.13-27.93,32,0,22.08,40.73,23.65,46.16,2.91a3.58,3.58,0,0,1,4-3l10.86.75a3.81,3.81,0,0,1,3.57,4.41C77.7,287.38,1.07,282.05,1,235c-.08-35.92,37.7-30,44.19-64.5A3.81,3.81,0,0,1,49.38,167.11Zm-5.14-22.43a12.6,12.6,0,0,1,25.07,2.62,12.6,12.6,0,1,1-25.07-2.62Z"/><path class="cls-1" d="M486.44,111.87l-11.29,1.79a4.11,4.11,0,0,1-4.82-3.49c-1.56-12.35-.68-20.82,5.83-34.85,5-10.36,22.76-28,19.62-40.1-6-22.4-47.76-12.91-47.63,9.62A3.76,3.76,0,0,1,445,49l-11.23,2.19a4,4,0,0,1-4.82-3.49C425-2.46,504.18-17.91,517.05,29.81c8.87,36.57-30.47,40.8-27.28,77.46A4,4,0,0,1,486.44,111.87Zm11.32,21.35a13.24,13.24,0,1,1-26.15,4.16,13.24,13.24,0,0,1,26.15-4.16Z"/></g></g></svg>