<svg xmlns="http://www.w3.org/2000/svg" viewBox="0 0 458.97 289.01"><defs><style>.cls-1{isolation:isolate;}.cls-2{fill:#548180;}.cls-3{fill:#195954;}.cls-4{fill:#f76400;}.cls-5{fill:#ff8736;}.cls-11,.cls-15,.cls-6,.cls-9{opacity:0.2;}.cls-11,.cls-12,.cls-15,.cls-6,.cls-9{mix-blend-mode:multiply;}.cls-11,.cls-7{fill:#f97800;}.cls-12,.cls-8,.cls-9{fill:#eee9bf;}.cls-10{fill:#ff9343;}.cls-12{opacity:0.35;}.cls-13,.cls-15{fill:#621e00;}.cls-14{fill:#fff;}.cls-16{fill:#89530b;}.cls-17{opacity:0.3;}.cls-18{fill:#ff5e04;}</style></defs><g class="cls-1"><g id="Capa_2" data-name="Capa 2"><g id="Capa_1-2" data-name="Capa 1"><path class="cls-2" d="M447.87,88.81c-7.17,0-14,4-20.16,9.9,2.71-41-4.12-93.08-19.56-94.71-11-1.16-22.73,19.75-31.12,39.15C373.72,28,367,13.37,353.4,19c-15.21,6.34-21.81,36.61-24.67,60.36-7.48-9.25-17.3-16.25-26.86-7.75-19.32,17.17,17.78,116.21,17.78,116.21l12.28,31.93h92.33C444.65,190.8,475.79,88.81,447.87,88.81Z"/><path class="cls-3" d="M406,34.06q-1.45,20.57-3.72,41c-1.45,13.65-3.14,27.26-4.89,40.86s-3.71,27.18-5.84,40.73-4.41,27.09-7,40.58q1.44-20.56,3.7-41c1.45-13.65,3.15-27.26,4.9-40.86s3.72-27.18,5.84-40.73S403.39,47.55,406,34.06Z"/><path class="cls-3" d="M314.76,89.89c3.7,8.4,7,16.93,10.17,25.51s6.14,17.22,9,25.88,5.6,17.4,8.14,26.18,5,17.6,7,26.56c-3.71-8.4-7-16.93-10.18-25.51s-6.14-17.22-9-25.88-5.59-17.4-8.13-26.19S316.77,98.84,314.76,89.89Z"/><path class="cls-3" d="M355.91,41.93c1.84,11.38,3.26,22.79,4.52,34.22s2.34,22.87,3.34,34.31,1.78,22.92,2.4,34.4,1.13,23,1.19,34.49c-1.85-11.38-3.27-22.79-4.53-34.22s-2.34-22.86-3.33-34.31-1.78-22.91-2.39-34.39S356,53.46,355.91,41.93Z"/><path class="cls-3" d="M444.65,106.35c-2.1,7.38-4.59,14.59-7.22,21.75s-5.45,14.24-8.33,21.3-6,14-9.2,20.93-6.57,13.77-10.32,20.47c2.1-7.38,4.59-14.6,7.22-21.76s5.45-14.24,8.34-21.29,6-14,9.2-20.93S440.91,113,444.65,106.35Z"/><path class="cls-2" d="M11.09,131.4c7.18,0,14,2.7,20.17,6.68-2.71-27.69,4.12-62.81,19.55-63.91,11.06-.78,22.74,13.33,31.12,26.42,3.32-10.2,10-20.1,23.63-16.28C120.77,88.59,127.37,109,130.23,125c7.49-6.23,17.31-11,26.86-5.23,19.33,11.59-17.77,78.43-17.77,78.43L127,219.78H34.71C14.31,200.22-16.82,131.4,11.09,131.4Z"/><path class="cls-3" d="M14.52,146.43a146.86,146.86,0,0,1,8.82,13.18c2.74,4.49,5.27,9.1,7.75,13.73s4.78,9.36,6.92,14.17a146.3,146.3,0,0,1,5.86,14.74,144.07,144.07,0,0,1-8.82-13.18c-2.75-4.49-5.28-9.1-7.75-13.73s-4.78-9.37-6.92-14.18A149.51,149.51,0,0,1,14.52,146.43Z"/><path class="cls-3" d="M54.6,92c2.83,8.09,5.25,16.27,7.53,24.49S66.49,133,68.5,141.28s3.81,16.61,5.44,25,3.18,16.76,4.28,25.25C75.38,183.43,73,175.25,70.68,167s-4.35-16.48-6.36-24.76-3.8-16.61-5.44-25S55.71,100.53,54.6,92Z"/><path class="cls-3" d="M103.27,101.34c.83,7.28,1.23,14.56,1.49,21.84s.31,14.56.3,21.83-.25,14.55-.65,21.83-.9,14.54-1.86,21.81c-.83-7.28-1.24-14.56-1.49-21.84s-.32-14.56-.3-21.83.26-14.55.66-21.83S102.32,108.61,103.27,101.34Z"/><path class="cls-3" d="M144.78,135.69a141.16,141.16,0,0,1-4,14.92c-1.53,4.89-3.29,9.7-5.1,14.48s-3.82,9.5-6,14.15A138.12,138.12,0,0,1,122.59,193a137.55,137.55,0,0,1,4-14.92c1.53-4.9,3.29-9.7,5.1-14.49s3.83-9.49,6-14.14A138,138,0,0,1,144.78,135.69Z"/><path class="cls-4" d="M220.56,114.45c30.1-7.28,62.59-6.58,90.94,6.2s51.94,38.55,58.95,69.83c.94,4.23,1.57,8.75.16,12.84-1.17,3.39-3.63,6.11-6.14,8.59a103.53,103.53,0,0,1-38.37,24c-14.88,5.2-30.69,6.82-46.38,7.43-36.33,1.4-74.07-2.91-105.6-21.73-8.26-4.93-16.15-11-21.53-19.13s-8-18.74-5.14-28.18c2.08-6.9,24.66-45.13,73.11-59.86"/><path class="cls-5" d="M243.17,129.42s-5.4,3.85-11.77,3.16C231.4,132.58,237,128.69,243.17,129.42Z"/><path class="cls-5" d="M266.27,229.36s-6.18,2.36-12.18.1C254.09,229.46,260.47,227.1,266.27,229.36Z"/><path class="cls-5" d="M170.79,178.44s-3.89,5.36-10.15,6.75C160.64,185.19,164.69,179.73,170.79,178.44Z"/><path class="cls-5" d="M303.21,221.58s-6.61.34-11.62-3.67C291.59,217.91,298.38,217.64,303.21,221.58Z"/><path class="cls-5" d="M263.74,207.7s-5.95,2.91-12.13,1.19C251.61,208.89,257.76,206,263.74,207.7Z"/><path class="cls-5" d="M229.21,214.59s-5.39,3.84-11.77,3.16C217.44,217.75,223,213.86,229.21,214.59Z"/><path class="cls-5" d="M317.07,162.75s-6.42-1.64-10-7C307.07,155.79,313.63,157.55,317.07,162.75Z"/><path class="cls-5" d="M282.69,138.89s-6.44,1.55-12.1-1.47C270.59,137.42,277.22,135.9,282.69,138.89Z"/><path class="cls-5" d="M241.73,147.31s-5.39,3.85-11.77,3.16C230,150.47,235.54,146.59,241.73,147.31Z"/><path class="cls-5" d="M199.24,160.85S195.05,166,188.72,167C188.72,167,193.08,161.78,199.24,160.85Z"/><path class="cls-5" d="M184.77,145.43s-3.38,5.69-9.49,7.64C175.28,153.07,178.82,147.26,184.77,145.43Z"/><path class="cls-5" d="M214.27,125.42S209.45,130,203,130.14C203,130.14,208,125.54,214.27,125.42Z"/><path class="cls-5" d="M349.76,175s-5.13-4.18-6.16-10.51C343.6,164.45,348.82,168.8,349.76,175Z"/><path class="cls-5" d="M319.65,142.05s-6.29-2.06-9.53-7.6C310.12,134.45,316.56,136.64,319.65,142.05Z"/><path class="cls-5" d="M285.16,120.31s-6.42,1.62-12.11-1.34C273.05,119,279.66,117.38,285.16,120.31Z"/><path class="cls-5" d="M243.17,175.23s-5.4,3.84-11.77,3.15C231.4,178.38,237,174.5,243.17,175.23Z"/><path class="cls-5" d="M317.07,208.55s-6.42-1.64-10-7C307.07,201.59,313.63,203.35,317.07,208.55Z"/><path class="cls-5" d="M282.69,184.7s-6.44,1.55-12.1-1.47C270.59,183.23,277.22,181.71,282.69,184.7Z"/><path class="cls-5" d="M241.73,193.12S236.34,197,230,196.28C230,196.28,235.54,192.39,241.73,193.12Z"/><path class="cls-5" d="M199.24,206.66s-4.19,5.12-10.52,6.14C188.72,212.8,193.08,207.58,199.24,206.66Z"/><path class="cls-5" d="M184.77,191.23s-3.38,5.7-9.49,7.65C175.28,198.88,178.82,193.07,184.77,191.23Z"/><path class="cls-5" d="M214.27,171.22S209.45,175.76,203,176C203,176,208,171.34,214.27,171.22Z"/><path class="cls-5" d="M348.33,206.45s-5.14-4.18-6.16-10.51C342.17,195.94,347.39,200.29,348.33,206.45Z"/><path class="cls-5" d="M319.65,187.85s-6.29-2-9.53-7.59C310.12,180.26,316.56,182.44,319.65,187.85Z"/><path class="cls-5" d="M285.16,166.12s-6.42,1.62-12.11-1.34C273.05,164.78,279.66,163.19,285.16,166.12Z"/><g class="cls-6"><path class="cls-4" d="M370.45,190.48c-7-31.28-30.59-57.06-58.95-69.83-23.95-10.8-50.85-13-76.77-9a141.1,141.1,0,0,1,14.55,5.59C284,132.94,313,164.54,321.55,202.91c1.16,5.18,1.94,10.73.21,15.74-1.44,4.15-4.46,7.49-7.54,10.53a127.32,127.32,0,0,1-15.07,12.69,127.53,127.53,0,0,0,27-6,103.53,103.53,0,0,0,38.37-24c2.51-2.48,5-5.2,6.14-8.59C372,199.23,371.39,194.71,370.45,190.48Z"/></g><path class="cls-7" d="M376.51,197.11c-4.75-15.73-18.64-27.49-34-33.27s-32.22-6.35-48.64-5.75c-12.56.46-25.15,1.57-37.36,4.52-15.27,3.68-29.73,10-44.71,14.79-85.73,27.13-104.2-5.73-108.82-14.76-12.33,21.27-11.92,48.78-.91,70.76s31.76,38.36,55.05,46.22c10.69,3.61,21.87,5.54,33.07,6.9a343.35,343.35,0,0,0,126.13-8.18c10.84-2.77,21.67-6.14,31.22-12,22.9-14,33.56-42.6,29-69"/><path class="cls-8" d="M179,185.57A94.89,94.89,0,0,1,182,208l4.15-8.5c2.82,15.9.85,27.31-1.82,34.74l7.25-5.41a65.78,65.78,0,0,1-15.7,31.36,97.82,97.82,0,0,0,9.41-5.67c-4.77,12.23-17.71,20.47-27.83,25.26-.13,0-.26-.07-.38-.12-23.29-7.86-44-24.24-55-46.22s-11.42-49.49.9-70.76C106.91,170.38,121.09,195.58,179,185.57Z"/><path class="cls-9" d="M179,185.57A94.89,94.89,0,0,1,182,208l4.15-8.5c2.82,15.9.85,27.31-1.82,34.74l7.25-5.41a65.78,65.78,0,0,1-15.7,31.36,97.82,97.82,0,0,0,9.41-5.67c-4.77,12.23-17.71,20.47-27.83,25.26-.13,0-.26-.07-.38-.12-23.29-7.86-44-24.24-55-46.22s-11.42-49.49.9-70.76C106.91,170.38,121.09,195.58,179,185.57Z"/><path class="cls-10" d="M272.92,238.82s-8,3.45-15.94.82C257,239.64,265.19,236.19,272.92,238.82Z"/><path class="cls-10" d="M351,232.72s-6.88,5.28-15.26,4.68C335.72,237.4,342.84,232.06,351,232.72Z"/><path class="cls-10" d="M316.59,200.7s-7.52,4.32-15.74,2.61C300.85,203.31,308.62,199,316.59,200.7Z"/><path class="cls-10" d="M281.4,192.55s-7.56,4.25-15.77,2.46C265.63,195,273.45,190.73,281.4,192.55Z"/><path class="cls-10" d="M303.75,224.63s-7.43,4.47-15.69,2.92C288.06,227.55,295.74,223.05,303.75,224.63Z"/><path class="cls-10" d="M332.68,254.44s-6.52,5.72-14.92,5.67C317.76,260.11,324.52,254.31,332.68,254.44Z"/><path class="cls-10" d="M250.81,177s-8,3.45-15.94.82C234.87,177.85,243.09,174.4,250.81,177Z"/><path class="cls-10" d="M267,209.17s-7.34,4.61-15.63,3.23C251.34,212.4,258.93,207.75,267,209.17Z"/><path class="cls-10" d="M232.56,240.48s-7.9,3.57-15.92,1.08C216.64,241.56,224.79,238,232.56,240.48Z"/><path class="cls-10" d="M359.76,198.29s-7.24,4.78-15.55,3.58C344.21,201.87,351.69,197.05,359.76,198.29Z"/><path class="cls-10" d="M346.87,181.12s-8.6,1.13-15.55-3.59C331.32,177.53,340.17,176.47,346.87,181.12Z"/><path class="cls-10" d="M300.08,170.46s-8.16,2.94-16-.19C284.12,170.27,292.54,167.35,300.08,170.46Z"/><path class="cls-10" d="M225.64,207.69s-7.12,4.95-15.46,3.95C210.18,211.64,217.54,206.64,225.64,207.69Z"/><path class="cls-10" d="M201,189.74s-6.53,5.69-14.93,5.61C186.09,195.35,192.86,189.58,201,189.74Z"/><path class="cls-10" d="M295.24,257.25s-6.75,5.45-15.14,5.05C280.1,262.3,287.09,256.78,295.24,257.25Z"/><path class="cls-10" d="M258.32,264.16s-7.37,4.57-15.65,3.12C242.67,267.28,250.29,262.68,258.32,264.16Z"/><path class="cls-10" d="M219.79,277.19s-8.28,2.57-15.94-.89C203.85,276.3,212.38,273.75,219.79,277.19Z"/><path class="cls-11" d="M376.51,197.33v-.22c-4.75-15.73-18.64-27.49-34-33.27s-32.22-6.35-48.64-5.75c-12.56.46-25.15,1.57-37.36,4.52-3.91.94-7.77,2.06-11.6,3.29,15.22.5,36.29,4.89,54.41,22.12,30.07,28.6,13.92,91.1-54.19,100.7a343,343,0,0,0,71.19-10.38c10.84-2.77,21.67-6.14,31.22-12C370.42,252.39,381.08,223.77,376.51,197.33Z"/><path class="cls-7" d="M219.54,111.63C194.31,96.87,172.13,95.8,172.13,95.8S150,96.87,124.72,111.63c-15,8.75-29.34,8.54-39.81,3.91a48.11,48.11,0,0,1-.67-7.8c0-15.81,7.82-30.27,20.76-41.47-1.71-18.09-5-65,2.64-65.79,8.29-.87,37.06,34.87,44.7,44.56h.09l-.06.07a118.68,118.68,0,0,1,39-.1C199,35.27,227.72-.39,236,.48c7.61.8,4.4,46.9,2.68,65.31C252,77.05,260,91.7,260,107.74a47,47,0,0,1-.67,7.8C248.87,120.17,234.49,120.38,219.54,111.63Z"/><path class="cls-10" d="M116.89,94.31S120.8,89,120.2,82.58C120.2,82.58,116.24,88.11,116.89,94.31Z"/><path class="cls-10" d="M106.19,108.17s3.12-5.84,1.62-12.07C107.81,96.1,104.68,102.13,106.19,108.17Z"/><path class="cls-10" d="M92.63,111.68s1.63-6.42-1.32-12.11C91.31,99.57,89.71,106.18,92.63,111.68Z"/><path class="cls-10" d="M109.26,78.39s5.16-4.15,6.22-10.48C115.48,67.91,110.23,72.23,109.26,78.39Z"/><path class="cls-10" d="M97.3,95s4.15-5.16,3.84-11.57C101.14,83.47,96.93,88.82,97.3,95Z"/><path class="cls-10" d="M227.36,94.31s-3.91-5.34-3.3-11.73C224.06,82.58,228,88.11,227.36,94.31Z"/><path class="cls-10" d="M238.06,108.17s-3.12-5.84-1.62-12.07C236.44,96.1,239.58,102.13,238.06,108.17Z"/><path class="cls-10" d="M251.62,111.68s-1.63-6.42,1.32-12.11C252.94,99.57,254.54,106.18,251.62,111.68Z"/><path class="cls-10" d="M235,78.39s-5.15-4.15-6.21-10.48C228.78,67.91,234,72.23,235,78.39Z"/><path class="cls-10" d="M247,95s-4.15-5.16-3.83-11.57C243.12,83.47,247.32,88.82,247,95Z"/><path class="cls-11" d="M259.34,115.54a47,47,0,0,0,.67-7.8c0-16-8-30.69-21.32-41.95C240.41,47.38,243.62,1.28,236,.48,227.72-.39,199,35.27,191.33,45a118.55,118.55,0,0,0-38.58,0c5.48.1,44.54-1.54,68.18,42.6,5.25,9.79,7.6,19.3,7.51,28.19C240.1,120.11,251,119.24,259.34,115.54Z"/><path class="cls-8" d="M124.72,111.63C150,96.87,172.13,95.8,172.13,95.8s22.18,1.07,47.41,15.83c15,8.75,29.33,8.54,39.8,3.91C254.08,147.36,217.05,172,172.13,172s-81.95-24.66-87.22-56.48C95.38,120.17,109.77,120.38,124.72,111.63Z"/><path class="cls-12" d="M259.34,115.54c-8.36,3.7-19.24,4.57-30.9.3-.31,30.46-29.42,53.56-69.83,55.41a120,120,0,0,0,13.52.77C217.05,172,254.08,147.36,259.34,115.54Z"/><path class="cls-8" d="M137.16,49.46a4.83,4.83,0,0,0,1.45-7.33C131.91,33.87,118.09,17.55,114,18s-2.85,24.82-1.67,37.31a4.85,4.85,0,0,0,7.17,3.81C124.79,56.21,132.23,52.12,137.16,49.46Z"/><path class="cls-12" d="M138.61,42.13C131.91,33.87,118.09,17.55,114,18c-1.17.12-1.9,2.24-2.32,5.49,4.91,1.52,17.41,16.3,23.68,24a4.77,4.77,0,0,1,1,2.37l.75-.41A4.83,4.83,0,0,0,138.61,42.13Z"/><path class="cls-8" d="M206.48,49.46A4.85,4.85,0,0,1,205,42.13c6.71-8.26,20.52-24.58,24.58-24.15s2.85,24.82,1.67,37.31a4.85,4.85,0,0,1-7.17,3.81C218.86,56.21,211.42,52.12,206.48,49.46Z"/><path class="cls-12" d="M229.61,18c-1.19-.13-3.25,1.22-5.71,3.37a2.21,2.21,0,0,1,.35,0c4.05.42,2.84,24.82,1.67,37.32a5.85,5.85,0,0,1-.22,1,4.82,4.82,0,0,0,5.58-4.32C232.46,42.8,233.67,18.4,229.61,18Z"/><ellipse class="cls-13" cx="140.26" cy="86.83" rx="7.38" ry="12.23"/><ellipse class="cls-14" cx="141.69" cy="81.08" rx="1.96" ry="3.24"/><ellipse class="cls-13" cx="203.39" cy="86.83" rx="7.38" ry="12.23"/><path class="cls-14" d="M202.86,81.08c0,1.79.88,3.24,2,3.24s2-1.45,2-3.24-.87-3.24-2-3.24S202.86,79.29,202.86,81.08Z"/><path class="cls-13" d="M152.77,73.34s-13.42-10.66-26.12,0a15,15,0,0,1,9.48-10.64C144.36,59.48,152.59,66.26,152.77,73.34Z"/><path class="cls-13" d="M190.88,73.34s13.41-10.66,26.12,0a15,15,0,0,0-9.48-10.64C199.28,59.48,191.05,66.26,190.88,73.34Z"/><path class="cls-13" d="M192.36,146.62a42.9,42.9,0,0,1-19.9,5.47c-.85,0-1.69-.05-2.54-.07-.42,0-.85,0-1.27,0l-1.27-.16c-.84-.11-1.7-.15-2.55-.3s-1.68-.36-2.54-.5a17.33,17.33,0,0,1-2.56-.61l-2.58-.66c-1.72-.49-3.41-1.12-5.25-1.55a39,39,0,0,0,4.38,3.47,32.87,32.87,0,0,0,5,2.55,29.12,29.12,0,0,0,11.23,2.16,26.86,26.86,0,0,0,11.17-2.64A21.41,21.41,0,0,0,192.36,146.62Z"/><path class="cls-13" d="M157,114.77c0,3.46,6.75,11.69,15.09,11.69s15.09-8.23,15.09-11.69-6.76-6.26-15.09-6.26S157,111.31,157,114.77Z"/><path class="cls-15" d="M172.13,108.51a34.59,34.59,0,0,0-4.42.28c7.08,1.11,11.73,6.25,7.73,10.93-2.72,3.19-7.33,4.26-10.73,4.59a14.76,14.76,0,0,0,7.42,2.15c8.33,0,15.09-8.23,15.09-11.69S180.46,108.51,172.13,108.51Z"/><path class="cls-14" d="M162,113.21c.14.72,1.61,1.05,3.29.72s2.91-1.19,2.76-1.92-1.61-1.05-3.28-.72S161.8,112.48,162,113.21Z"/><path class="cls-16" d="M214.61,47.91l-.75-.16,1,.07-1.13-.15-1.09-.12h0c-.31,0-.65-.07-1-.13-1.74-.24-3.56-.56-5.22-.93a3.35,3.35,0,0,1-1.26,0c-1.61-.24-3.1-.62-4.74-.85s-3.35-.43-4.92-.77l-.84,0,0,0h-.06a11.13,11.13,0,0,1-1.25-.19h-.27a.15.15,0,0,1,0-.06c-.68-.14-1.36-.3-2-.39q-.75-.11-1.5-.18a10.42,10.42,0,0,1-3.64-.33h-.06l0,0h0l-2.51,0a.31.31,0,0,1,0,.09c-1.86,0-3.57-.41-5.44-.46-1.6,0-3.19-.05-4.77-.1-1.05,0-2.11,0-3.19,0v0c-1.9.13-3.9.12-5.76.21a56.47,56.47,0,0,0-7.53.85s.09-.08.12-.18h0a.37.37,0,0,1-.22.27c-2.08.52-4.88.45-7.15.84a61.44,61.44,0,0,1-6.94,1.26s.08,0,.1-.1l-.37.07c0,.2,0,.31,0,.31a1,1,0,0,1,0-.29c-2.37.46-4.54,1-6.83,1.59-.84.2-1.87.46-2.93.62a20.11,20.11,0,0,1-2.8.78c-.2.07-.41.12-.62.18a.1.1,0,0,1-.07,0l-.17,0h0c-1.8.31-5.32,1.3-8.22,1.6a16.32,16.32,0,0,0,2.76-.28l-.7.22c-.7.64,2.12,10.38,7.53,12.92,4.65,2.19,13.72-6.85,39.82-7.76s38.36,7.39,42.15,4.91C216.32,58.31,215.53,48.49,214.61,47.91Z"/><path class="cls-13" d="M215.29,47.68a88.74,88.74,0,0,1-9.77-1.35c-9.28-1.57-22-3.73-38-3.17h-.38c-16,.56-27.76,3.57-36.35,5.76a84,84,0,0,1-8.7,2l0,.34a80.53,80.53,0,0,0,9.08-2c8.53-2.18,20.22-5.17,36.06-5.72h.38c15.84-.56,28.47,1.59,37.69,3.15A86.37,86.37,0,0,0,215.38,48,2,2,0,0,1,215.29,47.68Z"/><path class="cls-13" d="M214.89,47.82l-.57.19c.77.52,1.69,10.22-2.7,13.09-1.28.83-3.69.27-8.57-1a108,108,0,0,0-33.32-4,93.33,93.33,0,0,0-31.44,6.24c-4.36,1.58-6.53,2.31-8.1,1.57-5.38-2.53-8-12.16-7.46-12.73l-.63-.15h0c0,.55-.06,1-.07,1.22.43,2.89,3.26,9.8,7.67,11.88a4.51,4.51,0,0,0,2.13.39c1.79-.06,4-.87,6.92-1.93a92.56,92.56,0,0,1,31.06-6.18,107,107,0,0,1,32.91,4c4.7,1.21,7.8,2,9.5.89C216.61,58.41,216,48.52,214.89,47.82Z"/><path class="cls-13" d="M133.62,61.49a3,3,0,0,1-1.2-.17l.22-.13a2.57,2.57,0,0,0,1.17.12l.06.17Zm73.46-2.56a10.33,10.33,0,0,1-1.4-.15l.12-.16a7.61,7.61,0,0,0,1.29.14Zm.74,0-.12-.16a1.52,1.52,0,0,0,.71-.29l.14-.11.31.08-.14.11A2,2,0,0,1,207.82,58.88Zm-73.26,2.5-.14-.15c.34-.07.73-.17,1.18-.3l.2.13C135.33,61.2,134.92,61.31,134.56,61.38ZM205,58.65c-.36-.07-.77-.17-1.26-.29l.17-.14c.48.12.88.21,1.24.28Zm-73.1,2.42a5.25,5.25,0,0,1-.77-.55l.31-.08a4.86,4.86,0,0,0,.74.53Zm4.46-.19-.21-.13,1.1-.38.22.13Zm72.79-2.78-.33-.06a5.46,5.46,0,0,0,.46-.59l.34,0A6,6,0,0,1,209.17,58.1Zm-6,.11L202,57.92h-.05l.17-.15h0l1.17.3ZM138,60.31l-.22-.13,1.1-.39.22.13Zm-7.22-.07c-.19-.18-.39-.38-.58-.59l.33-.07a7.86,7.86,0,0,0,.57.58Zm70.49-2.49-1.22-.3.16-.15,1.23.31Zm-61.63,2-.22-.13,1.11-.38.21.13Zm70.15-2.54-.34,0c.11-.19.21-.4.31-.62l.35,0A5.15,5.15,0,0,1,209.83,57.18Zm-10.36.12-1.23-.3.16-.14,1.24.29Zm-58.13,1.85-.22-.13,1.13-.37.2.13ZM130,59.34a7,7,0,0,1-.48-.6l.33-.05.48.6Zm67.64-2.48-1.26-.28.15-.15,1.26.28ZM143,58.6l-.2-.13,1.15-.36.19.14Zm67.26-2.36-.35,0c.08-.2.16-.41.23-.63l.35,0C210.44,55.83,210.36,56,210.28,56.24Zm-14.55.21-1.27-.26.14-.15,1.28.26Zm-51,1.63-.19-.14,1.18-.34.18.14Zm-15.46.35c-.14-.2-.28-.4-.41-.61l.34,0c.13.21.27.41.4.61Zm64.54-2.36-1.29-.23.12-.15,1.3.23Zm-47.31,1.51-.18-.14,1.2-.31.17.14Zm64.09-2.29-.35,0c.06-.21.11-.42.16-.64l.35,0C210.72,54.87,210.66,55.08,210.6,55.29Zm-18.72.44-1.31-.21.11-.15,1.32.2Zm-43.57,1.39-.17-.15,1.24-.29.16.15Zm41.6-1.7-1.33-.18.1-.16,1.33.19Zm-61.24,2.09c-.12-.21-.24-.42-.35-.63l.34,0c.12.21.23.42.36.62Zm21.49-.82-.16-.15,1.26-.26.15.15Zm37.76-1.54L186.57,55l.08-.16L188,55Zm22.91-.82-.36,0c.05-.2.08-.42.12-.63h.35C210.91,53.91,210.87,54.12,210.83,54.33ZM152,56.3l-.14-.15,1.28-.24.13.15Zm33.86-1.38-1.36-.13.07-.16,1.36.13ZM154,56l-.13-.16,1.3-.22.12.16Zm29.91-1.22-1.37-.11.05-.16,1.38.11Zm-28,.9-.11-.16,1.32-.19.11.16Zm-27.75.94c-.11-.21-.22-.42-.32-.63l.35,0c.1.21.2.42.31.62Zm53.67-2-1.37-.08,0-.17,1.38.08Zm-23.94.77-.1-.16,1.33-.17.1.16Zm21.88-.89-1.38-.05,0-.17,1.39.06ZM211,53.37h-.36c0-.21.05-.42.07-.64h.35C211,53,211,53.16,211,53.37ZM159.87,55.1l-.09-.16,1.36-.14.08.16Zm17.82-.72-1.38,0v-.16c.47,0,.93,0,1.39,0Zm-15.8.51-.07-.16,1.36-.12.07.16Zm13.73-.55h-1.38v-.16h1.4Zm-11.69.38-.07-.17,1.38-.09,0,.16Zm9.62-.39h-1.38l0-.16h1.39Zm-7.58.25-.05-.17,1.38-.07,0,.16Zm5.51-.22-1.39,0,0-.16,1.39,0Zm-3.45.11,0-.17,1.39,0,0,.16Zm-40.35,1.16c-.1-.21-.19-.42-.28-.63l.35,0c.09.21.18.42.28.63Zm83.4-3.22h-.36c0-.21,0-.42,0-.64h.35C211.11,52,211.09,52.19,211.08,52.41Zm-83.81,2.27-.24-.63.35,0,.24.63Zm83.85-3.23h-.36q0-.31,0-.63h.35C211.12,51,211.12,51.23,211.12,51.45Zm-84.2,2.28c-.07-.21-.14-.43-.21-.63l.36,0c.06.2.13.41.2.63Zm84.18-3.25h-.35c0-.22,0-.44-.05-.64h.36C211.08,50.05,211.09,50.27,211.1,50.48Zm-84.48,2.3c-.06-.22-.11-.43-.16-.64l.35,0c0,.21.1.42.16.64ZM211,49.52h-.36c0-.22-.06-.44-.09-.64h.35C211,49.08,211,49.3,211,49.52Zm-84.64,2.3,0-.12c0-.18-.06-.36-.08-.52h.35c0,.16,0,.34.08.52l0,.12Zm84.13-3.25c-.05-.22-.1-.43-.16-.63l.36,0c.06.2.11.41.16.64Zm-83.91,2.28h-.35a3.41,3.41,0,0,1,0-.64h.35A4.39,4.39,0,0,0,126.61,50.85Zm83.65-3.23a2.88,2.88,0,0,0-.13-.31l.35,0a2.37,2.37,0,0,1,.13.32Z"/><path class="cls-13" d="M134.68,59.15a1.89,1.89,0,0,1-1-.18l-.2-.12.28-.1.19.11a1.38,1.38,0,0,0,.8.12l.06.16Zm70.87-2.47-.06-.16a1,1,0,0,0,.53-.17,1.71,1.71,0,0,0,.25-.22l.33.07-.27.24A1.39,1.39,0,0,1,205.55,56.68Zm-.74,0a12.72,12.72,0,0,1-1.35-.21l.14-.16a11.87,11.87,0,0,0,1.28.21ZM135.54,59l-.15-.15c.31-.07.7-.17,1.16-.32l.2.14C136.26,58.86,135.87,59,135.54,59Zm67.29-2.73L201.58,56l.16-.15,1.24.29Zm-65.5,2.22-.21-.14,1.12-.37.21.14Zm-4.22,0a4.86,4.86,0,0,1-.63-.58l.32-.06a5.32,5.32,0,0,0,.62.56Zm73.75-2.67-.33-.06a4.36,4.36,0,0,0,.37-.6l.35,0A4.81,4.81,0,0,1,206.86,55.9Zm-5.9,0-1.24-.29.16-.15,1.24.3ZM139,58l-.22-.13,1.12-.38.21.13Zm60.09-2.53-1.25-.28L198,55l1.25.28Zm-58.42,2-.2-.13,1.14-.37.2.14Zm-8.47.28a7.47,7.47,0,0,1-.46-.61l.33,0c.15.22.31.42.46.6ZM207.39,55l-.35,0a5.81,5.81,0,0,0,.21-.63l.36,0C207.54,54.55,207.47,54.76,207.39,55ZM197.22,55,196,54.76l.14-.15,1.28.26Zm-54.83,1.85-.2-.14,1.17-.34.19.14Zm52.93-2.24L194,54.39l.13-.15,1.29.24Zm-51.19,1.73-.19-.14,1.2-.33.18.15Zm-12.59.41-.36-.62.35,0c.11.21.23.41.35.61ZM207.69,54l-.35,0c0-.2.08-.41.11-.63h.36C207.78,53.58,207.74,53.79,207.69,54Zm-14.31.28-1.3-.22.11-.16,1.32.22Zm-47.47,1.6-.17-.14c.39-.11.8-.21,1.22-.31l.16.15ZM191.43,54l-1.33-.2.1-.16,1.33.2Zm-43.69,1.47-.17-.14,1.25-.29.15.15Zm-16.72.4c-.11-.2-.2-.41-.3-.63l.35,0c.09.21.19.42.29.63ZM207.85,53h-.36c0-.21,0-.42.06-.64h.36Zm-18.41.63-1.34-.17.09-.16,1.35.17ZM149.6,55l-.16-.15,1.27-.26.15.15Zm37.83-1.6-1.35-.14.08-.16,1.36.14Zm-35.94,1.22-.14-.15,1.29-.24.13.16Zm33.92-1.43-1.36-.12.06-.16,1.36.12Zm-32,1.08-.13-.15,1.31-.21.12.16Zm-22.83.6c-.09-.21-.17-.42-.25-.64l.35,0c.08.21.16.42.25.63ZM183.36,53l-1.36-.1,0-.16,1.38.1Zm-28,1-.11-.16,1.33-.19.1.16Zm52.55-1.91h-.36c0-.21,0-.42,0-.64h.36C207.93,51.65,207.93,51.86,207.92,52.08Zm-26.61.82-1.37-.07,0-.16,1.38.07Zm-24,.81-.09-.15,1.33-.17.1.16Zm21.9-.91-1.38,0,0-.16,1.38,0Zm-19.9.68-.08-.16,1.35-.15.08.16Zm17.83-.74c-.45,0-.91,0-1.38,0v-.17l1.38,0Zm-15.81.53-.07-.16,1.36-.12.07.16Zm13.74-.57h-1.39v-.17h1.39Zm-11.7.4-.06-.16,1.37-.1.06.16Zm9.62-.4-1.38,0v-.16l1.39,0Zm-7.57.26-.05-.16,1.38-.08,0,.16Zm5.5-.23-1.38,0,0-.16,1.39,0Zm-3.44.12,0-.16,1.38-.06,0,.16Zm-37.29,1.09L130,53.3l.35,0,.21.63Zm77.69-2.83h-.36c0-.22,0-.43,0-.64h.36Zm-78,1.87c-.07-.21-.12-.43-.18-.64h.36c0,.2.11.42.17.63Zm77.93-2.83h-.36l-.06-.64h.35C207.82,49.72,207.84,49.93,207.86,50.15ZM129.68,52c-.06-.22-.1-.43-.14-.64h.35c0,.21.09.42.14.64Zm78.07-2.83h-.35c0-.22-.07-.44-.11-.64h.36C207.68,48.75,207.72,49,207.75,49.19Zm-77.92,1.86h-.35c0-.22-.08-.44-.1-.64h.35C129.76,50.61,129.79,50.82,129.83,51.05Zm77.41-2.81c-.05-.23-.1-.44-.14-.63l.35,0c.05.19.09.41.14.64ZM129.69,50.1h-.35a5.71,5.71,0,0,1,0-.64h.36A3.83,3.83,0,0,0,129.69,50.1ZM207,47.29c-.06-.21-.11-.39-.16-.52l.35,0c.05.13.11.31.17.52Z"/><path class="cls-13" d="M135.65,57.09l-.07-.15a6.9,6.9,0,0,0,1.18-.27l.19.14A6.27,6.27,0,0,1,135.65,57.09Zm67.93-2.37a9.75,9.75,0,0,1-1.36-.21l.14-.15a9.7,9.7,0,0,0,1.27.2Zm.8-.1-.26-.11a.18.18,0,0,0,.07,0,2.78,2.78,0,0,0,.33-.51l.35,0a2.7,2.7,0,0,1-.35.53A.39.39,0,0,1,204.38,54.62ZM134.85,57a.09.09,0,0,1-.06,0,3.81,3.81,0,0,1-.59-.55l.33-.06a3.49,3.49,0,0,0,.56.53l0,0Zm2.69-.34-.2-.14,1.14-.35.2.13Zm64-2.26-1.26-.27.15-.15,1.26.27ZM139.25,56.1l-.2-.13,1.14-.36.2.13ZM199.69,54l-1.25-.28.14-.14,1.26.27Zm5.32-.3-.35,0a3.59,3.59,0,0,0,.19-.63l.35,0A4,4,0,0,1,205,53.67ZM134,56.09a5.11,5.11,0,0,1-.41-.62l.35,0a4.28,4.28,0,0,0,.4.61Zm7-.52-.19-.14c.37-.11.75-.23,1.16-.34l.19.14Zm56.84-2-1.27-.26.14-.15,1.28.26Zm-55.09,1.5-.19-.14,1.19-.33.18.14Zm53.18-1.88-1.28-.24.12-.15L196,53Zm9.37-.47h-.36a6.33,6.33,0,0,0,.06-.64h.35A4.4,4.4,0,0,1,205.26,52.71Zm-71.89,2.44c-.1-.2-.2-.41-.29-.63l.35,0c.09.22.19.43.29.63Zm11.12-.58-.18-.14,1.22-.31.17.15ZM194,52.83l-1.31-.22.12-.15,1.31.21Zm-47.65,1.29-.17-.14,1.24-.29.16.15ZM192,52.51l-1.33-.19.1-.16,1.33.19Zm13.32-.77H205l0-.64h.36C205.31,51.32,205.32,51.53,205.32,51.74Zm-57.16,2-.15-.15,1.26-.26.15.15ZM190,52.23l-1.34-.17.09-.16,1.34.17Zm-57,2c-.07-.21-.14-.42-.2-.63l.35,0c.06.21.13.42.2.63Zm17.09-.88-.14-.15c.42-.08.85-.17,1.29-.24l.13.15ZM188,52l-1.35-.15.08-.16,1.36.15Zm-36,1-.13-.15,1.31-.22.11.16Zm34-1.2-1.36-.12.06-.16,1.37.12Zm-32.06.89-.12-.16,1.32-.19.11.15Zm30-1.06-1.37-.1.05-.16,1.37.1Zm21.33-.81h-.36c0-.22,0-.43-.08-.64h.36C205.22,50.35,205.25,50.57,205.27,50.78Zm-72.6,2.47c-.06-.21-.11-.43-.16-.64l.36,0c0,.22.09.43.15.64Zm23.22-.89-.1-.16,1.33-.17.1.16Zm26-.92-1.37-.07,0-.16,1.39.07Zm-24,.67-.1-.16,1.35-.15.09.16Zm21.93-.77-1.38-.06,0-.16,1.39.05Zm-19.92.55-.08-.16,1.36-.13.07.16Zm17.85-.63-1.38,0v-.16c.47,0,.93,0,1.39,0Zm-15.82.45-.07-.17,1.37-.1.06.16Zm13.75-.49H174.3v-.16h1.39ZM164,51.55l-.05-.16c.45,0,.91-.06,1.37-.09l.05.16Zm9.64-.34h-1.39v-.17h1.39Zm-7.59.21,0-.16,1.38-.07,0,.17Zm5.51-.19-1.38,0,0-.17,1.39,0Zm-3.44.1,0-.17,1.39,0,0,.17Zm37-1.51h-.36l0-.23c0-.14-.05-.27-.08-.41H205c0,.13,0,.27.08.4Zm-72.69,2.47,0-.18c0-.15,0-.31-.08-.46h.36c0,.15.05.31.08.46l0,.18Zm72.14-3.42q-.06-.32-.15-.63l.36,0,.15.64Zm-72,2.45h-.35c0-.22-.06-.43-.09-.64h.36C132.58,50.89,132.61,51.1,132.64,51.32Zm71.72-3.4c-.05-.22-.11-.43-.17-.64l.35,0,.18.64Zm-71.84,2.44h-.35c0-.22,0-.44-.06-.64h.35ZM204.1,47l-.18-.64.35,0,.18.64ZM132.43,49.4h-.35l-.05-.64h.35Z"/><path class="cls-16" d="M171.23,1.57C171.15.16,169,.23,166.44.32s-4.71.15-4.63,1.56S164,3.22,166.6,3.13,171.31,3,171.23,1.57Z"/><path class="cls-16" d="M205.75,50.39a14.78,14.78,0,0,1,4.34,1.33c1.14.3,2.28.65,3.42,1a.93.93,0,0,0-.15-.38l-.69-.3c1.9.37,3.36.36,4.34-.29.16-4.77-2.76-30.61-14.66-39.75-6.7-5.15-19.7-9.43-35.75-8.9s-28.47,5.66-34.53,11.23c-10.76,9.9-10.57,35.82-9.85,40.57,1.06.58,2.53.5,4.38,0l-.67.36a.57.57,0,0,0-.07.2,4.94,4.94,0,0,1,2.25-.83l1.24-.38c2.5-1.35,5.45-2.93,8.38-3.37,0-.09.07-.14.11-.15,2.1-.54,4-1.46,6-2.17l.67-.22A13.81,13.81,0,0,1,149,46.8c0-.07.07-.12.11-.13a26.33,26.33,0,0,1,5-1.3,8.91,8.91,0,0,1,3.25-.7,11.66,11.66,0,0,1,4-.69c.83-.08,3-.68,4.08-.27a31.31,31.31,0,0,1,9.39-.18c2-.07,4.12-.22,5.89.44h0a24,24,0,0,1,4.87.46c1.51.37,2.94.85,4.5,1.1,2.15.35,4.77.58,6.57,1.76,0-.1,0-.15-.08-.16a34.51,34.51,0,0,1,7,2.41C204.28,49.82,205,50.09,205.75,50.39Z"/><g class="cls-17"><path d="M186.91,19.24c.06.65.92.87,1.91.47s1.76-1.24,1.7-1.89-.92-.87-1.91-.48S186.85,18.58,186.91,19.24Z"/></g><path class="cls-13" d="M208.86,51l-.5,0,0-1c.19-7.82.71-28.61-8.16-36.39C194,8.09,188.41,4.45,167.38,3.32l0-.42C188.62,4,194.32,7.73,200.59,13.24c9,7.91,8.5,28.82,8.3,36.7Z"/><path class="cls-13" d="M124.25,55.61a4.23,4.23,0,0,1-2.21-.45l-.13-.07,0-.13c-.53-3.46-1.43-30.34,9.93-40.79,5.54-5.1,17.58-10.75,34.77-11.32s29.86,4.26,36,9c12.56,9.65,14.88,36.49,14.77,40v.13l-.12.08a4.07,4.07,0,0,1-2.15.6c-2.39.08-5.94-1.13-10.44-2.65C196,47,184.23,43,169.2,43.52h-.35c-15,.5-26.29,5.27-34.52,8.75-4.29,1.82-7.68,3.25-10.08,3.33Zm-1.71-.85a3.47,3.47,0,0,0,1.68.29h0c2.25-.07,5.58-1.48,9.8-3.27,8.28-3.51,19.62-8.31,34.79-8.81h.36c15.17-.51,27.05,3.52,35.72,6.47,4.41,1.5,7.9,2.68,10.15,2.61a3.42,3.42,0,0,0,1.64-.41c.13-5.88-3.23-30.7-14.56-39.4-6-4.63-18.52-9.38-35.5-8.82s-28.85,6.13-34.3,11.14C122.08,24,121.71,48.91,122.54,54.76Z"/><path class="cls-13" d="M130.24,53.59l-.15-1C129,44.73,125.93,23.93,134,15.45c5.59-5.9,10.82-9.95,31.82-12.5l.07.42c-20.81,2.52-26,6.52-31.49,12.35-7.9,8.34-4.9,29-3.76,36.79l.14,1Z"/><path class="cls-13" d="M215.06,50.62a8.27,8.27,0,0,1-1,0l0-.28a7.75,7.75,0,0,0,1.27,0l.05.28Zm-91,3h-.09v-.28H124a7.59,7.59,0,0,0,1.17-.13l.08.27A8.41,8.41,0,0,1,124,53.64Zm-.77,0a3.58,3.58,0,0,1-1.3-.38l.17-.24a3.32,3.32,0,0,0,1.17.34Zm92.83-3.13-.09-.27a3.39,3.39,0,0,0,.87-.36l.2.22A3.21,3.21,0,0,1,216.09,50.49Zm-2.67,0c-.4-.06-.82-.14-1.29-.25l.08-.27c.46.1.87.19,1.27.24Zm-87.51,2.86-.1-.27c.38-.09.78-.21,1.23-.35l.12.26C126.71,53.16,126.3,53.27,125.91,53.37Zm85.58-3.26-1.26-.35.11-.26,1.24.34Zm-83.72,2.7-.13-.26c.38-.13.78-.27,1.19-.43l.15.25C128.56,52.53,128.16,52.68,127.77,52.81Zm81.84-3.24-1.23-.39.11-.26,1.24.39Zm-80,2.58-.15-.26,1.18-.47.15.25ZM207.76,49l-1.22-.41.12-.26,1.23.41Zm-76.42,2.45-.16-.25,1.17-.49.15.25Zm74.59-3.06L204.71,48l.13-.26,1.21.41Zm-72.84,2.32-.16-.25L134.1,50l.15.25Zm71-2.95-1.22-.41.12-.26,1.23.41ZM134.84,50l-.16-.25,1.17-.49.15.25Zm67.43-2.82-1.22-.4.11-.27,1.23.41Zm-65.68,2.09-.15-.25,1.17-.48.15.25Zm63.84-2.69-1.23-.39.12-.26,1.23.39Zm-62.08,2-.15-.25,1.18-.47.15.26ZM198.58,46l-1.23-.37.11-.26,1.24.37Zm-58.46,1.86-.15-.26,1.2-.45.14.26Zm56.61-2.41-1.25-.35.11-.27,1.25.36ZM141.9,47.14l-.13-.26,1.2-.43.13.26Zm53-2.26-1.25-.33.09-.27,1.26.33ZM143.7,46.5l-.13-.26,1.22-.41.12.26ZM193,44.39l-1.26-.31.09-.27,1.26.31Zm-47.46,1.5-.12-.26,1.22-.39.12.27Zm45.57-2-1.27-.29.08-.27,1.27.29Zm-43.73,1.38-.12-.26,1.23-.36.12.26Zm41.82-1.8-1.27-.25L188,43l1.28.26Zm-40,1.27-.11-.27,1.25-.33.11.26Zm38.07-1.64L186,42.92l.07-.28,1.29.23Zm-36.2,1.14L151,44l1.26-.31.09.27Zm34.27-1.48-1.29-.2.06-.27,1.29.2Zm-32.39,1-.09-.28,1.27-.27.08.27Zm30.45-1.32-1.29-.17,0-.28,1.3.17Zm-28.56.9-.08-.27L156,42.9l.08.27Zm26.62-1.15-1.3-.14,0-.28,1.3.14Zm-24.71.79-.07-.28,1.28-.22.07.27Zm22.76-1-1.3-.11,0-.28,1.31.11Zm-20.84.66-.06-.28,1.29-.19.06.28Zm18.89-.82-1.31-.08,0-.28,1.31.08Zm-17,.54,0-.28,1.29-.16.06.28Zm15-.65-1.31,0v-.28l1.31.05Zm-13.06.41,0-.28,1.3-.13,0,.28Zm11.09-.48h-1.3v-.29l1.32,0Zm-9.14.29,0-.28,1.31-.1,0,.28Zm7.18-.31h-1.31v-.28h1.32Zm-5.23.17,0-.28,1.32-.07,0,.28Zm3.27-.14-.79,0-.52,0,0-.28.52,0,.8,0Z"/><path class="cls-16" d="M188.75,20.6h0a1.93,1.93,0,0,1-1.9-1.73,2.27,2.27,0,0,1,1.64-2.6,1.84,1.84,0,0,1,.41,0A1.93,1.93,0,0,1,190.8,18a2.26,2.26,0,0,1-1.64,2.59A1.92,1.92,0,0,1,188.75,20.6Zm.2-3.25-.29,0a1.29,1.29,0,0,0-1,1.31,1,1,0,0,0,1.07.79h0a1,1,0,0,0,.29,0,1.28,1.28,0,0,0,1-1.3A1,1,0,0,0,189,17.35Z"/><path class="cls-13" d="M166.62,3.41c-2.7.09-5,.17-5.14-1.52S163.71.13,166.42,0s5-.17,5.15,1.52S169.33,3.32,166.62,3.41ZM166.45.6c-2.71.09-4.37.2-4.3,1.27s1.73,1.07,4.44,1,4.37-.2,4.3-1.27S169.16.51,166.45.6Z"/><path class="cls-18" d="M180.6,32.27l-.46-13.65h0c-.05-1.37-.09-2.74-.14-4.1a4.19,4.19,0,0,0,0-.5,1.59,1.59,0,0,0-1.53-1.39h-.35l-21,.7h-.32a1.53,1.53,0,0,0-1,.47,1.68,1.68,0,0,0-.46,1.33l.06,1.76h0l.49,14.87h0l.15,4.37a4.53,4.53,0,0,0,.05.53A1.55,1.55,0,0,0,157.41,38a4.42,4.42,0,0,0,.63,0l19.23-.64,1.8-.06a1.74,1.74,0,0,0,1-.32,1.6,1.6,0,0,0,.65-1.42c0-1.11-.07-2.22-.11-3.33Z"/><path class="cls-14" d="M171.51,30.71l3.4,3.67c-.07.11-.16.07-.24.07l-4,.14a.52.52,0,0,1-.48-.21c-.72-.86-1.45-1.7-2.16-2.56a.65.65,0,0,0-.55-.24,7.32,7.32,0,0,1-3.16-.6,5.48,5.48,0,0,1-2.93-3.27,9.39,9.39,0,0,1-.5-2.52,10.18,10.18,0,0,1,.31-3.6,5.48,5.48,0,0,1,2.19-3.1,6.1,6.1,0,0,1,2.2-.92,9.6,9.6,0,0,1,3.85-.07,5.33,5.33,0,0,1,4.36,3.8,10.72,10.72,0,0,1,.18,6,5.31,5.31,0,0,1-2.32,3.26A.18.18,0,0,0,171.51,30.71Z"/><path class="cls-18" d="M170.31,24.54a6.21,6.21,0,0,1-.29,2.3,2.24,2.24,0,0,1-1.53,1.49,3.21,3.21,0,0,1-1.6.07A2.34,2.34,0,0,1,165.21,27a4.79,4.79,0,0,1-.36-1.28,8.61,8.61,0,0,1,.07-3.16,2.91,2.91,0,0,1,.16-.5,2.35,2.35,0,0,1,2.23-1.6,3.08,3.08,0,0,1,1.05.09,2.41,2.41,0,0,1,1.56,1.56A7.18,7.18,0,0,1,170.31,24.54Z"/><g class="cls-17"><path d="M144.87,20c.06.65.91.87,1.91.47s1.76-1.24,1.7-1.89-.92-.87-1.92-.48S144.81,19.35,144.87,20Z"/></g><path class="cls-16" d="M146.7,21.37h0a1.93,1.93,0,0,1-1.9-1.73,2.27,2.27,0,0,1,1.64-2.6,2,2,0,0,1,.42,0,1.93,1.93,0,0,1,1.9,1.73,2.26,2.26,0,0,1-1.64,2.59A2,2,0,0,1,146.7,21.37Zm.21-3.25a1.36,1.36,0,0,0-.29,0,1.28,1.28,0,0,0-1,1.31,1,1,0,0,0,1.06.79h0a.92.92,0,0,0,.29,0,1.26,1.26,0,0,0,1-1.3A1,1,0,0,0,146.91,18.12Z"/></g></g></g></svg>