<svg xmlns="http://www.w3.org/2000/svg" viewBox="0 0 567.47 494.7"><defs><style>.cls-1{isolation:isolate;}.cls-2{fill:#2b716e;}.cls-3{fill:#195954;}.cls-4,.cls-6{fill:#f97800;}.cls-5{fill:#ff9343;}.cls-10,.cls-12,.cls-16,.cls-6,.cls-8{opacity:0.2;}.cls-10,.cls-12,.cls-14,.cls-16,.cls-6,.cls-8{mix-blend-mode:multiply;}.cls-14,.cls-7,.cls-8{fill:#eee9bf;}.cls-9{fill:#f45100;}.cls-10{fill:#f76400;}.cls-11,.cls-12{fill:#a93800;}.cls-13,.cls-16{fill:#621e00;}.cls-14{opacity:0.35;}.cls-15{fill:#fff;}.cls-17{fill:#ff8736;}.cls-18{fill:#89530b;}.cls-19{opacity:0.3;}.cls-20{fill:#ff5e04;}</style></defs><g class="cls-1"><g id="Capa_2" data-name="Capa 2"><g id="Capa_1-2" data-name="Capa 1"><path class="cls-2" d="M14.44,364.23c10-6.5,24.19-6.5,39.24-3.34C41.81,338,29.2,301.51,62.25,291.79c23.51-6.92,50.64,9.94,72.59,29.44-2.5-24.3,1.54-50.66,31.73-48.28,55.05,4.35,76.78,101.42,76.78,101.42l8.88,33.32H15.89S-18.88,386,14.44,364.23Z"/><path class="cls-3" d="M68.3,309.36A157.9,157.9,0,0,1,89.67,325.9a222.76,222.76,0,0,1,18.89,19.36,188.73,188.73,0,0,1,16.12,21.8,121.28,121.28,0,0,1,11.89,24.33c-5.25-7.37-10.36-14.59-15.8-21.6s-11-13.88-16.85-20.55C92.41,335.75,80.32,322.79,68.3,309.36Z"/><path class="cls-3" d="M164.59,291.52a117.11,117.11,0,0,1,16.82,20.9A170,170,0,0,1,194.26,336c1.82,4.1,3.46,8.28,5,12.47,1.4,4.27,3,8.48,4,12.85a133.91,133.91,0,0,1,4.55,26.42c-3.16-8.39-5.86-16.76-9.09-24.95s-6.46-16.31-10.05-24.3-7.41-15.87-11.39-23.71S169.07,299.26,164.59,291.52Z"/><path class="cls-3" d="M21.42,376.1a42.59,42.59,0,0,1,11.75,1.46,62.92,62.92,0,0,1,11.07,3.88,57.72,57.72,0,0,1,10.14,6A34.69,34.69,0,0,1,62.69,396c-3.81-1.37-7.26-2.88-10.72-4.4s-6.89-3-10.3-4.58-6.79-3.23-10.18-5A92.34,92.34,0,0,1,21.42,376.1Z"/><path class="cls-2" d="M552.43,377.12c-7-4.57-17-4.57-27.6-2.35,8.35-16.13,17.22-41.76-6-48.6-16.53-4.86-35.61,7-51,20.71,1.75-17.09-1.09-35.63-22.32-34-38.72,3.06-54,71.33-54,71.33l-6.24,23.44H551.41S575.87,392.41,552.43,377.12Z"/><path class="cls-3" d="M448.39,332.79A161.81,161.81,0,0,1,441.53,349q-3.76,7.9-7.91,15.56T425,379.72c-3,5-6.11,9.93-9.68,14.72a98.34,98.34,0,0,1,5.41-16.86,161.74,161.74,0,0,1,7.56-15.9,174.43,174.43,0,0,1,9.17-15A107.6,107.6,0,0,1,448.39,332.79Z"/><path class="cls-3" d="M514.62,344a138.29,138.29,0,0,1-10.53,12.66q-5.54,6-11.33,11.68c-3.86,3.79-7.82,7.45-11.79,11.11s-8,7.21-12.2,10.92a59.8,59.8,0,0,1,8.69-14.16,122.25,122.25,0,0,1,11-12.24,144.23,144.23,0,0,1,12.37-10.8A96.26,96.26,0,0,1,514.62,344Z"/><path class="cls-3" d="M546.21,387.31a19.2,19.2,0,0,1-4.7,4.51,27.79,27.79,0,0,1-5.35,2.91,28.08,28.08,0,0,1-5.85,1.68,19.18,19.18,0,0,1-6.52.07,19.19,19.19,0,0,1,4.7-4.51,27.58,27.58,0,0,1,5.36-2.9,28.08,28.08,0,0,1,5.85-1.68A19.37,19.37,0,0,1,546.21,387.31Z"/><path class="cls-4" d="M310.17,400.59l10.07,38.72L341,457.19c199.26-38,183.75-216.8,188.8-235.55,5.28-19.6,18.42-38.26,37.68-44.66C507.8,161.52,327.52,210.53,310.17,400.59Z"/><path class="cls-5" d="M379.26,323.59s4.59-11.46,15.28-16.81C394.54,306.78,389.7,318.5,379.26,323.59Z"/><path class="cls-5" d="M327.57,409.56s6.75-10.34,18.29-13.48C345.86,396.08,338.81,406.62,327.57,409.56Z"/><path class="cls-5" d="M370.39,402.72s7.52-9.79,19.27-12C389.66,390.69,381.82,400.65,370.39,402.72Z"/><path class="cls-5" d="M415.2,377.08s6-10.8,17.28-14.75C432.48,362.33,426.2,373.34,415.2,377.08Z"/><path class="cls-5" d="M362.36,368.86s3-12,12.91-18.7C375.27,350.16,372,362.42,362.36,368.86Z"/><path class="cls-5" d="M323.36,376.48s.85-12.32,9.38-20.69C332.74,355.79,331.74,368.43,323.36,376.48Z"/><path class="cls-5" d="M463.58,363.84s4.59-11.46,15.29-16.81C478.87,347,474,358.75,463.58,363.84Z"/><path class="cls-5" d="M412.68,345.52s5.95-10.82,17.23-14.82C429.91,330.7,423.67,341.74,412.68,345.52Z"/><path class="cls-5" d="M418.38,281.43s4.39-11.54,15-17.07C433.38,264.36,428.74,276.16,418.38,281.43Z"/><path class="cls-5" d="M349.31,442.05s9.11-8.33,21.08-8.49C370.39,433.56,360.93,442,349.31,442.05Z"/><path class="cls-5" d="M419.83,412.67s6.69-10.38,18.21-13.59C438,399.08,431.06,409.66,419.83,412.67Z"/><path class="cls-5" d="M458.26,307.61s2.23-12.14,11.66-19.5C469.92,288.11,467.49,300.55,458.26,307.61Z"/><path class="cls-5" d="M501.14,301.06s.89-12.32,9.46-20.66C510.6,280.4,509.55,293,501.14,301.06Z"/><path class="cls-5" d="M338.22,327.37s1.36-12.28,10.24-20.29C348.46,307.08,346.93,319.66,338.22,327.37Z"/><path class="cls-5" d="M368.59,283.34s2.87-12,12.68-18.85C381.27,264.49,378.18,276.78,368.59,283.34Z"/><path class="cls-6" d="M529.79,221.64c5.28-19.6,18.42-38.26,37.68-44.66-46.45-12-166,15-224.86,117.24,22.95-8,53.81-13.21,84-1.2,47.11,18.72,42.48,80.89,8,128.16C535,355.6,525.73,236.74,529.79,221.64Z"/><path class="cls-7" d="M567.47,177c-30-7.77-90.41.75-145.32,35.24,2,12.73,7.24,32.13,20.71,41.8a113.14,113.14,0,0,1-3.59-12,74.92,74.92,0,0,0,30.14,26.17l-3.92-9.52c7.44,5,19.46,10.43,37.79,11.81l-8.2-7a112.39,112.39,0,0,0,30.41,3c3.07-22.75,2.93-39.73,4.3-44.83C535.07,202,548.21,183.38,567.47,177Z"/><path class="cls-8" d="M567.47,177c-30-7.77-90.41.75-145.32,35.24,2,12.73,7.24,32.13,20.71,41.8a113.14,113.14,0,0,1-3.59-12,74.92,74.92,0,0,0,30.14,26.17l-3.92-9.52c7.44,5,19.46,10.43,37.79,11.81l-8.2-7a112.39,112.39,0,0,0,30.41,3c3.07-22.75,2.93-39.73,4.3-44.83C535.07,202,548.21,183.38,567.47,177Z"/><path class="cls-4" d="M307.46,271.81c-1.23-5.29-2.43-10.47-3.62-15.78-.07-.29-.11-.6-.16-.9l-.09,0c-44-22.42-90.42,0-90.42,0-.43,1.82-.87,3.64-1.29,5.44-3.64,15.25-7,29.72-12.8,44.3-5.08,12.71-45.44,127.37-43,137.29,5.45,22,30.14,32.16,49.95,35.72,10,1.81,19.5,4.43,29.58,5.11,11.69.8,23.27,1.32,35,1.53,27.81.52,60.15-8.71,70.52-13,7.75-3.2,17.2-9.93,20.67-17.74,4.31-9.67-46-152.23-49.08-165.16C311.38,282.73,308.82,277.72,307.46,271.81Z"/><path class="cls-5" d="M259.36,289.56s-3.44-8.78-.29-17.35C259.07,272.21,262.51,281.26,259.36,289.56Z"/><path class="cls-5" d="M257.83,333.89s-3.44-8.78-.29-17.35C257.54,316.54,261,325.59,257.83,333.89Z"/><path class="cls-5" d="M268.3,368.71s-3.44-8.78-.29-17.35C268,351.36,271.45,360.41,268.3,368.71Z"/><path class="cls-5" d="M247.92,395.71s-3.44-8.78-.29-17.35C247.63,378.36,251.07,387.41,247.92,395.71Z"/><path class="cls-5" d="M269.32,420.17s-3.44-8.78-.29-17.35C269,402.82,272.47,411.87,269.32,420.17Z"/><path class="cls-5" d="M240.79,445.13s-3.45-8.77-.29-17.35C240.5,427.78,243.93,436.84,240.79,445.13Z"/><path class="cls-5" d="M276.45,465.51s-3.44-8.77-.29-17.35C276.16,448.16,279.6,457.22,276.45,465.51Z"/><path class="cls-5" d="M255.56,472.64s-3.44-8.77-.29-17.34C255.27,455.3,258.71,464.35,255.56,472.64Z"/><path class="cls-5" d="M241,280.34s-2.34-9.13,1.85-17.25C242.82,263.09,245.11,272.49,241,280.34Z"/><path class="cls-5" d="M240,324.67s-2.34-9.13,1.85-17.25C241.8,307.42,244.09,316.82,240,324.67Z"/><path class="cls-5" d="M230.78,374.09s-2.34-9.13,1.85-17.25C232.63,356.84,234.92,366.24,230.78,374.09Z"/><path class="cls-5" d="M221.61,422.49s-2.34-9.13,1.84-17.25C223.45,405.24,225.75,414.65,221.61,422.49Z"/><path class="cls-5" d="M206.32,456.12S204,447,208.17,438.87C208.17,438.87,210.47,448.27,206.32,456.12Z"/><path class="cls-5" d="M273.88,280.34s2.34-9.13-1.85-17.25C272,263.09,269.74,272.49,273.88,280.34Z"/><path class="cls-5" d="M274.9,324.67s2.34-9.13-1.85-17.25C273.05,307.42,270.76,316.82,274.9,324.67Z"/><path class="cls-5" d="M284.07,374.09s2.34-9.13-1.85-17.25C282.22,356.84,279.93,366.24,284.07,374.09Z"/><path class="cls-5" d="M293.24,422.49s2.34-9.13-1.84-17.25C291.4,405.24,289.1,414.65,293.24,422.49Z"/><path class="cls-5" d="M308.52,456.12s2.34-9.13-1.84-17.25C306.68,438.87,304.38,448.27,308.52,456.12Z"/><path class="cls-5" d="M230.33,284.48c-4.68,7.84-2.91,17.1-2.91,17.1C232,294,230.33,284.48,230.33,284.48Z"/><path class="cls-5" d="M183.37,449.93c4.62-7.57,2.91-17.1,2.91-17.1C181.6,440.67,183.37,449.93,183.37,449.93Z"/><path class="cls-5" d="M195.6,420.89c4.62-7.57,2.91-17.1,2.91-17.1C193.83,411.63,195.6,420.89,195.6,420.89Z"/><path class="cls-5" d="M173.69,424.46c4.62-7.58,2.91-17.1,2.91-17.1C171.92,415.2,173.69,424.46,173.69,424.46Z"/><path class="cls-5" d="M207.83,387.77c4.62-7.57,2.91-17.1,2.91-17.1C206.06,378.51,207.83,387.77,207.83,387.77Z"/><path class="cls-5" d="M185.41,389.81c4.62-7.57,2.91-17.1,2.91-17.1C183.64,380.55,185.41,389.81,185.41,389.81Z"/><path class="cls-5" d="M197.2,361.55c4.62-7.58,2.91-17.1,2.91-17.1C195.43,352.29,197.2,361.55,197.2,361.55Z"/><path class="cls-5" d="M219.22,347.31c4.62-7.58,2.91-17.11,2.91-17.11C217.45,338.05,219.22,347.31,219.22,347.31Z"/><path class="cls-5" d="M208.9,324.31c4.62-7.58,2.91-17.11,2.91-17.11C207.14,315.05,208.9,324.31,208.9,324.31Z"/><path class="cls-5" d="M221,276.48c4.62-7.57,2.91-17.1,2.91-17.1C219.22,267.22,221,276.48,221,276.48Z"/><path class="cls-5" d="M284.75,284.48c4.68,7.84,2.91,17.1,2.91,17.1C283,294,284.75,284.48,284.75,284.48Z"/><path class="cls-5" d="M331.7,449.93c-4.62-7.57-2.91-17.1-2.91-17.1C333.47,440.67,331.7,449.93,331.7,449.93Z"/><path class="cls-5" d="M319.48,420.89c-4.63-7.57-2.92-17.1-2.92-17.1C321.24,411.63,319.48,420.89,319.48,420.89Z"/><path class="cls-5" d="M341.38,424.46c-4.62-7.58-2.91-17.1-2.91-17.1C343.15,415.2,341.38,424.46,341.38,424.46Z"/><path class="cls-5" d="M307.25,387.77c-4.62-7.57-2.91-17.1-2.91-17.1C309,378.51,307.25,387.77,307.25,387.77Z"/><path class="cls-5" d="M329.67,389.81c-4.63-7.57-2.92-17.1-2.92-17.1C331.43,380.55,329.67,389.81,329.67,389.81Z"/><path class="cls-5" d="M317.87,361.55c-4.62-7.58-2.91-17.1-2.91-17.1C319.64,352.29,317.87,361.55,317.87,361.55Z"/><path class="cls-5" d="M295.86,347.31c-4.62-7.58-2.91-17.11-2.91-17.11C297.63,338.05,295.86,347.31,295.86,347.31Z"/><path class="cls-5" d="M306.17,324.31c-4.62-7.58-2.91-17.11-2.91-17.11C307.94,315.05,306.17,324.31,306.17,324.31Z"/><path class="cls-5" d="M294.08,276.48c-4.62-7.57-2.91-17.1-2.91-17.1C295.85,267.22,294.08,276.48,294.08,276.48Z"/><path class="cls-6" d="M312.76,288.59c-1.38-5.86-3.94-10.87-5.3-16.78-1.23-5.29-2.43-10.47-3.62-15.78-.07-.29-.11-.6-.16-.9l-.09,0a94.61,94.61,0,0,0-44.63-10c1.18.54,2.37,1.1,3.55,1.7l.09,0c0,.31.1.63.17.93,1.23,5.5,2.48,10.87,3.74,16.35,1.42,6.12,4.07,11.31,5.5,17.39,3.16,13.39,55.31,161.07,50.85,171.09-3.6,8.09-13.4,15.07-21.42,18.38-8.47,3.5-31.1,10.16-54.42,12.57,7.85.42,15.7.75,23.63.89,27.81.52,60.15-8.71,70.52-13,7.75-3.2,17.2-9.93,20.67-17.74C366.15,444.08,315.81,301.52,312.76,288.59Z"/><path class="cls-9" d="M239.26,266.65H225.77c-13.75,0-15.51,16.13-15.5,24.61l.24,5.1h0l9.21,178.85a2.25,2.25,0,0,1-2.88,2.26c-5.38-1.5-16.38-2.27-20.86,14.35a2.27,2.27,0,0,0,2.17,2.88h38.23a2.25,2.25,0,0,0,2.24-2.07l15.17-194.72C254.27,289.23,254.08,266.65,239.26,266.65Z"/><path class="cls-10" d="M236.38,494.7a2.25,2.25,0,0,0,2.24-2.07l15.17-194.72c.48-8.68.29-31.26-14.53-31.26h-12a34.28,34.28,0,0,1,8.94,23.18c.44,27.9-5.65,168.51-7.26,204.87Z"/><path class="cls-11" d="M224.85,403.33a49.7,49.7,0,0,0,7-2.74,53.57,53.57,0,0,1-16.06-2.48l4,77.1a2.25,2.25,0,0,1-2.88,2.26c-5.38-1.5-16.38-2.27-20.86,14.35a2.27,2.27,0,0,0,2.17,2.88h38.23a2.25,2.25,0,0,0,2.24-2.07l7-90.33A79.35,79.35,0,0,1,224.85,403.33Z"/><path class="cls-12" d="M238.62,492.63l7-90.33a77.19,77.19,0,0,1-12.89,1.27c-1.52,38.28-3.11,75-3.83,91.13h7.44A2.25,2.25,0,0,0,238.62,492.63Z"/><path class="cls-13" d="M212.23,494.7h3.83a28.48,28.48,0,0,1,5.56-10S215.54,485.5,212.23,494.7Z"/><path class="cls-13" d="M198.91,494.7h3.84a28.8,28.8,0,0,1,5.88-11S202.12,484.56,198.91,494.7Z"/><path class="cls-9" d="M278.83,266.65h13.49c13.75,0,15.51,16.13,15.49,24.61l-.23,5.1h0l-9.22,178.85a2.25,2.25,0,0,0,2.89,2.26c5.38-1.5,16.38-2.27,20.86,14.35a2.27,2.27,0,0,1-2.17,2.88H281.71a2.25,2.25,0,0,1-2.24-2.07L264.29,297.91C263.82,289.23,264,266.65,278.83,266.65Z"/><path class="cls-10" d="M288.2,494.7h31.74a2.27,2.27,0,0,0,2.17-2.88c-4.48-16.62-15.48-15.85-20.86-14.35a2.25,2.25,0,0,1-2.89-2.26l9.22-178.85h0l.23-5.1c0-8.48-1.74-24.61-15.49-24.61h-9.57c3.95,5.69,7.15,14.75,6.95,29.2C289.24,328.78,288.37,466.81,288.2,494.7Z"/><path class="cls-11" d="M293.24,403.33a49.7,49.7,0,0,1-7-2.74,53.57,53.57,0,0,0,16.06-2.48l-4,77.1a2.25,2.25,0,0,0,2.89,2.26c5.38-1.5,16.38-2.27,20.86,14.35a2.27,2.27,0,0,1-2.17,2.88H281.71a2.25,2.25,0,0,1-2.24-2.07l-7-90.33A79.35,79.35,0,0,0,293.24,403.33Z"/><path class="cls-12" d="M322.11,491.82c-4.48-16.62-15.48-15.85-20.86-14.35a2.25,2.25,0,0,1-2.89-2.26l4-77.1a53.62,53.62,0,0,1-13.52,2.41c0,.4,0,.8,0,1.2a45,45,0,0,0,4.43,1.61c-1.29.11-2.79.19-4.44.24-.28,39.85-.52,77.89-.6,91.13h31.74A2.27,2.27,0,0,0,322.11,491.82Z"/><path class="cls-13" d="M305.86,494.7H302a28.64,28.64,0,0,0-5.56-10S302.54,485.5,305.86,494.7Z"/><path class="cls-13" d="M319.18,494.7h-3.84a29.08,29.08,0,0,0-5.88-11S316,484.56,319.18,494.7Z"/><path class="cls-7" d="M317.72,201.51l-54.06-46c-1.86,4.8-3.37,9.35-4.62,13.71-1.24-4.36-2.75-8.91-4.61-13.71l-54.06,46s-25.67,61.62,1,116l1.67-12c6.32,17,21.16,41.37,55.95,66.41l-.08-.15.11.15c34.79-25,49.63-49.42,55.95-66.41l1.67,12C343.39,263.13,317.72,201.51,317.72,201.51Z"/><path class="cls-8" d="M315,305.45l1.67,12c26.71-54.36,1-116,1-116l-53.09-45.17a71.09,71.09,0,0,0,2.14,8.56c22.42,71.84,15.8,127.89,15.8,127.89l-6.37-20.63c1.53,37.44-17.14,99.7-17.14,99.7C293.85,346.82,308.69,322.44,315,305.45Z"/><path class="cls-4" d="M331.54,160c-38.73-15.23-70.17-11.86-70.17-11.86s-31,6.38-63.21,32.69C179,196.41,158.76,199.27,143,195.05a68.91,68.91,0,0,1-2.65-10.82c-3.47-22.24,4.35-44.31,20.09-62.9C154.08,96.26,139.09,31,149.71,28.2c11.48-3,59.8,40.91,72.68,52.87l.12,0-.07.1a169.75,169.75,0,0,1,54.78-8.69C285.88,57.07,318.45.6,330.3,0c10.87-.54,16.49,65,18.12,91.29,21.15,12.93,35.68,31.77,39.2,54.32a68.42,68.42,0,0,1,.78,11.12C374.69,165.55,354.5,169,331.54,160Z"/><path class="cls-5" d="M183.34,158.17s4.33-8.38,2.07-17.23C185.41,140.94,181.06,149.59,183.34,158.17Z"/><path class="cls-5" d="M171.34,180s3.1-8.9-.38-17.35C171,162.67,167.87,171.85,171.34,180Z"/><path class="cls-5" d="M153,187.93s.88-9.39-4.52-16.75C148.51,171.18,147.71,180.83,153,187.93Z"/><path class="cls-5" d="M169.11,137.45s6.34-7,6.44-16.11C175.55,121.34,169.12,128.57,169.11,137.45Z"/><path class="cls-5" d="M155.94,163.49s4.71-8.17,2.86-17.11C158.8,146.38,154.06,154.82,155.94,163.49Z"/><path class="cls-5" d="M338.75,133.9s-6.68-6.66-7.23-15.77C331.52,118.13,338.3,125,338.75,133.9Z"/><path class="cls-5" d="M356.84,151.05s-5.67-7.53-4.93-16.64C351.91,134.41,357.65,142.21,356.84,151.05Z"/><path class="cls-5" d="M376.69,153s-3.7-8.67-.8-17.33C375.89,135.67,379.59,144.62,376.69,153Z"/><path class="cls-5" d="M346,109.83s-8.16-4.72-11-13.38C334.94,96.45,343.27,101.38,346,109.83Z"/><path class="cls-5" d="M366.46,130.61s-7-6.34-7.93-15.42C358.53,115.19,365.61,121.78,366.46,130.61Z"/><path class="cls-6" d="M388.4,156.73a68.42,68.42,0,0,0-.78-11.12c-3.52-22.55-18.05-41.39-39.2-54.32C346.79,65,341.17-.54,330.3,0c-11.85.6-44.42,57.07-53.08,72.46A169.2,169.2,0,0,0,223,81c7.72-1.06,62.31-12,105.27,45,9.53,12.62,14.93,25.48,16.75,38C362.34,167.38,377.44,163.78,388.4,156.73Z"/><path class="cls-7" d="M198.16,180.82c32.24-26.31,63.21-32.69,63.21-32.69s31.44-3.37,70.17,11.86c23,9,43.15,5.56,56.86-3.26-.42,45.92-47.09,88.75-110.28,98.62S157.41,238.66,143,195.05C158.76,199.27,179,196.41,198.16,180.82Z"/><path class="cls-14" d="M388.4,156.73c-11,7.05-26.06,10.65-43.41,7.22,6.25,42.91-29.62,81.81-86.06,93.29a172.32,172.32,0,0,0,19.19-1.89C341.31,245.48,388,202.65,388.4,156.73Z"/><path class="cls-7" d="M202,90.62A6.9,6.9,0,0,0,202.44,80c-11.25-10.15-34.27-30.07-39.89-28.58S164,87,168.4,104.27a6.9,6.9,0,0,0,10.92,3.78C186.08,102.84,195.65,95.45,202,90.62Z"/><path class="cls-14" d="M202.44,80c-11.25-10.15-34.27-30.07-39.89-28.58-1.62.43-2.18,3.57-2.06,8.23,7.24,1.06,28.07,19.11,38.6,28.6A7,7,0,0,1,201,91.36l1-.74A6.9,6.9,0,0,0,202.44,80Z"/><path class="cls-7" d="M299.52,75.39a6.89,6.89,0,0,1-3.65-10c7.62-13.1,23.47-39.09,29.28-39.38s9.45,34.3,10.54,52.13a6.9,6.9,0,0,1-9.25,6.93C318.42,82.17,307.05,78.05,299.52,75.39Z"/><path class="cls-14" d="M325.15,26c-1.72.08-4.31,2.44-7.3,6a3.21,3.21,0,0,1,.48-.14c5.79-.29,9.46,34.3,10.54,52.14a6.75,6.75,0,0,1-.09,1.43,6.87,6.87,0,0,0,6.91-7.3C334.6,60.32,330.94,25.73,325.15,26Z"/><path class="cls-13" d="M209.44,141c1.48,9.5,7.34,16.48,13.07,15.59s9.18-9.33,7.7-18.83-7.34-16.48-13.07-15.58S208,131.47,209.44,141Z"/><path class="cls-15" d="M217.82,131.38c.4,2.51,2,4.36,3.47,4.12s2.43-2.47,2-5-1.94-4.37-3.46-4.13S217.43,128.86,217.82,131.38Z"/><path class="cls-13" d="M298.25,127.1c1.48,9.51,7.33,16.48,13.07,15.59s9.18-9.33,7.69-18.83-7.33-16.48-13.07-15.58S296.76,117.6,298.25,127.1Z"/><path class="cls-15" d="M306.63,117.51c.39,2.52,1.94,4.36,3.46,4.13s2.43-2.47,2-5-1.94-4.37-3.46-4.13S306.24,115,306.63,117.51Z"/><path class="cls-13" d="M232.9,124.85s-18.16-16.3-37.13-2.25a21.44,21.44,0,0,1,14.39-14.3C222.14,104.44,233.25,114.78,232.9,124.85Z"/><path class="cls-13" d="M286.71,114.84s16.54-17.93,36.75-5.73a21.42,21.42,0,0,0-15.68-12.88C295.49,93.5,285.41,104.85,286.71,114.84Z"/><path class="cls-13" d="M244.31,178.13c.76,4.86,12.07,15,23.8,13.13s19.41-14.9,18.66-19.76-10.88-7.32-22.61-5.49S243.55,173.26,244.31,178.13Z"/><path class="cls-16" d="M264.16,166a50.21,50.21,0,0,0-6.16,1.35c10.21,0,17.88,6.23,13.29,13.69-3.13,5.08-9.37,7.59-14.08,8.81a20.9,20.9,0,0,0,10.9,1.4c11.72-1.83,19.41-14.9,18.66-19.76S275.89,164.18,264.16,166Z"/><path class="cls-15" d="M250.88,174.85c.36,1,2.5,1.12,4.78.29s3.83-2.31,3.47-3.3-2.5-1.12-4.78-.29S250.51,173.86,250.88,174.85Z"/><circle class="cls-13" cx="270.6" cy="215.04" r="9.98"/><path class="cls-9" d="M206,477.84c-19.81-3.56-44.5-13.69-49.95-35.72-1.43-5.79,11.73-47.27,23.94-83.33-15.73-12.83-34.74-22.64-49.21-12.25-18.44,13.25-21.83,46.35-17.57,75.37,2,13.67,6,24.33,11.12,32.69,20.21,3.29,38.43,15.32,53.42,29.52l-4.57.07a54.9,54.9,0,0,0,8.77.18,44.11,44.11,0,0,0,25.57-6.24Z"/><path class="cls-17" d="M147,389.19s7.2-6.09,8.48-15.13C155.51,374.06,148.2,380.4,147,389.19Z"/><path class="cls-17" d="M146.78,371.36s7.19-6.09,8.48-15.14C155.26,356.22,147.94,362.56,146.78,371.36Z"/><path class="cls-17" d="M131.75,393.78s7.19-6.1,8.48-15.14C140.23,378.64,132.91,385,131.75,393.78Z"/><path class="cls-17" d="M126.65,379s7.19-6.09,8.48-15.13C135.13,363.87,127.82,370.21,126.65,379Z"/><path class="cls-10" d="M206,477.84a99.09,99.09,0,0,1-20.9-6.13,40,40,0,0,1-13.07,12.37,57.47,57.47,0,0,0,9.92.29,44.11,44.11,0,0,0,25.57-6.24Z"/><path class="cls-10" d="M162.66,391.12c1.69,2,3.28,3.94,4.82,5.9,3.85-12.23,8.26-25.56,12.55-38.23-15.73-12.83-34.74-22.64-49.21-12.25-8.46,6.08-13.72,16.36-16.56,28.49C128.83,370.13,146.06,371.7,162.66,391.12Z"/><path class="cls-11" d="M91.31,466.64c5.46-11.63,16.74-13.53,27.1-12.77,22.6,1.66,42.93,14.67,59.38,30.25-26.74.39-57.83,1.35-84.21-3.08a4.84,4.84,0,0,1-2.82-1.14,4.62,4.62,0,0,1-1-2.71A19.44,19.44,0,0,1,91.31,466.64Z"/><path class="cls-12" d="M118.41,453.87h0a37.59,37.59,0,0,1,15.32,7.82c11.13,9.42,5.17,18.35-3.69,22.53,16.23.49,32.68.12,47.76-.1C161.34,468.54,141,455.53,118.41,453.87Z"/><path class="cls-13" d="M108,482.87c1.33.13,2.65.28,4,.38A29.72,29.72,0,0,1,119,466.53S110.32,467.66,108,482.87Z"/><path class="cls-13" d="M95.14,481.26c1.3.21,2.62.39,3.94.57A29.66,29.66,0,0,1,106,465.51S97.56,466.62,95.14,481.26Z"/><path class="cls-11" d="M426.77,466.64C421.32,455,410,453.11,399.68,453.87c-22.6,1.66-42.93,14.67-59.39,30.25,26.75.39,57.84,1.35,84.22-3.08a4.81,4.81,0,0,0,2.81-1.14,4.7,4.7,0,0,0,1-2.71A19.44,19.44,0,0,0,426.77,466.64Z"/><path class="cls-12" d="M377.4,484.43c16.12-.14,32.35-.91,47.11-3.39a4.81,4.81,0,0,0,2.81-1.14,4.7,4.7,0,0,0,1-2.71,19.44,19.44,0,0,0-1.52-10.55C421.32,455,410,453.11,399.68,453.87c-12.47.91-24.24,5.3-35.06,11.65,5.24-.68,11-.5,15.52,2C389.06,472.51,386.68,480.68,377.4,484.43Z"/><path class="cls-13" d="M410.05,482.87c-1.33.13-2.65.28-4,.38a29.79,29.79,0,0,0-6.94-16.72S407.77,467.66,410.05,482.87Z"/><path class="cls-13" d="M422.94,481.26c-1.29.21-2.61.39-3.93.57a29.69,29.69,0,0,0-6.9-16.32S420.53,466.62,422.94,481.26Z"/><path class="cls-9" d="M340.29,484.12c15-14.2,33.21-26.23,53.43-29.52,5.09-8.36,9.11-19,11.12-32.69,4.26-29,.86-62.12-17.58-75.37-15.05-10.81-35,.25-51.11,13.82,13.78,42.18,28.07,88.05,25.69,93.39-3.47,7.81-12.92,14.54-20.67,17.74a188.29,188.29,0,0,1-28,8.13,44.16,44.16,0,0,0,22.91,4.75,54.79,54.79,0,0,0,8.76-.18Z"/><path class="cls-17" d="M374.34,389.19s-7.19-6.09-8.48-15.13C365.86,374.06,373.18,380.4,374.34,389.19Z"/><path class="cls-17" d="M374.6,371.36s-7.19-6.09-8.48-15.14C366.12,356.22,373.43,362.56,374.6,371.36Z"/><path class="cls-17" d="M389.63,393.78s-7.19-6.1-8.48-15.14C381.15,378.64,388.47,385,389.63,393.78Z"/><path class="cls-17" d="M394.72,379s-7.19-6.09-8.48-15.13C386.24,363.87,393.56,370.21,394.72,379Z"/><path class="cls-10" d="M387.26,346.54c-14.05-10.09-32.39-1.12-47.85,11.16a37.12,37.12,0,0,1,19.07,7.44c21.84,16.07,26,60.78,14.15,96.16a79.89,79.89,0,0,1,21.09-6.7c5.09-8.36,9.11-19,11.12-32.69C409.1,392.89,405.7,359.79,387.26,346.54Z"/><path class="cls-18" d="M319,81.92l-1.14-.16c.54,0,1,0,1.53,0-.64,0-1.22-.07-1.69-.08l-1.65-.06h0c-.47,0-1,0-1.52-.07-2.63-.14-5.4-.39-7.92-.74a4.92,4.92,0,0,1-1.87.11c-2.43-.16-4.71-.54-7.19-.68s-5.06-.24-7.45-.55l-1.24.07s0,0,0,0h-.09a17.35,17.35,0,0,1-1.89-.14l-.41,0a.66.66,0,0,1,0-.09c-1-.12-2.06-.28-3.07-.34-.75,0-1.5-.06-2.25-.08a15.49,15.49,0,0,1-5.49,0h-.08a.05.05,0,0,1,0,0h0l-3.74.28c0,.09,0,.14,0,.14-2.78.15-5.38-.17-8.17,0-2.4.13-4.77.31-7.15.43-1.55.15-3.13.3-4.75.42a0,0,0,0,1,0,0c-2.82.42-5.8.65-8.58,1a87.33,87.33,0,0,0-11.13,2.19c.08,0,.13-.12.16-.28l-.08,0c0,.22-.14.38-.29.43-3.05,1-7.23,1.27-10.58,2.13s-6.38,2.19-10.2,2.74c.06,0,.11-.07.14-.16l-.55.15a1.53,1.53,0,0,1,0,.47,1.31,1.31,0,0,1-.08-.44c-3.48,1-6.65,2.14-10,3.22-1.23.4-2.73.92-4.29,1.29A30.09,30.09,0,0,1,192,94.52c-.29.12-.6.23-.9.34a.17.17,0,0,1-.1.07l-.26.07h0c-2.64.68-7.78,2.59-12.07,3.4a26.75,26.75,0,0,0,4.09-.76l-1,.42c-1,1,4.43,15.24,12.82,18.37,7.22,2.69,19.65-11.93,58.51-16.49s58.2,6.31,63.55,2.14C322.88,97.23,320.5,82.67,319,81.92Z"/><path class="cls-13" d="M320,81.48a130.91,130.91,0,0,1-14.76-.8c-14.06-1.21-33.31-2.87-57.12-.06l-.56.06c-23.82,2.8-41,8.74-53.57,13.08a126.75,126.75,0,0,1-12.77,4c0,.18,0,.35,0,.52a121.4,121.4,0,0,0,13.31-4.12c12.47-4.3,29.55-10.2,53.14-13l.56-.06C271.88,78.32,291,80,305,81.17a129.34,129.34,0,0,0,15.25.8A1.78,1.78,0,0,1,320,81.48Z"/><path class="cls-13" d="M319.46,81.74l-.83.35c1.21.69,3.77,15.06-2.43,19.88-1.8,1.41-5.47.86-12.92-.42-10.69-1.83-26.86-4.61-50.25-1.86a140.23,140.23,0,0,0-46.17,13.2c-6.31,2.9-9.46,4.25-11.9,3.34-8.35-3.12-13.48-17.18-12.71-18.1l-1-.15,0,0c0,.82,0,1.48,0,1.83,1,4.26,6.07,14.24,12.92,16.79a6.74,6.74,0,0,0,3.22.32c2.66-.31,5.88-1.79,10.1-3.73a138.56,138.56,0,0,1,45.61-13c23.08-2.72,39.07,0,49.65,1.84,7.15,1.23,11.88,2,14.29.16C323.32,97.34,321.22,82.65,319.46,81.74Z"/><path class="cls-13" d="M199.79,112.16a4.69,4.69,0,0,1-1.82-.1l.31-.22a4.06,4.06,0,0,0,1.75,0l.13.23ZM309.15,99.29a14.2,14.2,0,0,1-2.11-.05l.17-.25a13.47,13.47,0,0,0,1.94.06Zm1.11-.17-.21-.21a2.33,2.33,0,0,0,1-.53c.06-.06.13-.11.19-.18l.47.08a1.8,1.8,0,0,1-.2.19A2.81,2.81,0,0,1,310.26,99.12ZM201.17,111.88l-.22-.21a18.15,18.15,0,0,0,1.72-.6l.31.19C202.29,111.52,201.7,111.73,201.17,111.88ZM306.05,99.13c-.54-.07-1.17-.15-1.91-.27l.22-.24c.73.12,1.35.2,1.89.27ZM197.19,111.75A9.35,9.35,0,0,1,196,111l.45-.16a8.2,8.2,0,0,0,1.17.7Zm6.63-.84-.33-.17c.51-.21,1-.45,1.61-.7l.34.17C204.87,110.46,204.33,110.7,203.82,110.91ZM312.17,97.8l-.49,0a8.5,8.5,0,0,0,.62-.94l.51,0A7,7,0,0,1,312.17,97.8Zm-9,.91-1.8-.3h-.07l.23-.23h.08l1.79.3Zm-97,11.14-.35-.16,1.59-.72.34.17Zm-10.8.78c-.31-.24-.62-.51-.94-.81l.49-.13c.3.29.62.56.92.8Zm105-12.38-1.86-.31.22-.23,1.87.3Zm-91.79,10.53-.34-.17,1.6-.71.34.17ZM313.06,96.35l-.52,0q.21-.45.39-1h.52C313.33,95.72,313.2,96.05,313.06,96.35ZM297.6,97.79l-1.88-.29.22-.23,1.88.28ZM211,107.72l-.33-.17,1.63-.7.33.18Zm-16.94,1.69c-.26-.27-.53-.56-.79-.85l.5-.12q.39.44.78.84Zm100.71-12-1.91-.26.2-.24,1.92.26Zm-81.32,9.32-.32-.18,1.68-.67.31.18Zm100.15-11.8h-.53c.1-.32.18-.64.26-1h.53C313.79,94.25,313.71,94.57,313.61,94.89ZM291.91,97,290,96.76l.18-.24,1.95.23ZM216,105.69l-.3-.18,1.71-.65.3.19Zm-23.05,2.44q-.36-.42-.69-.87l.5-.11c.23.3.45.58.69.86ZM289,96.66l-2-.19.17-.24,2,.19Zm-70.47,8.08-.28-.19,1.76-.62.27.2C219.69,104.33,219.11,104.53,218.54,104.74ZM314,93.43h-.53c.06-.31.12-.63.16-1l.53,0C314.09,92.78,314,93.11,314,93.43Zm-27.9,3q-1-.09-2-.15l.14-.25,2,.15Zm-64.89,7.44-.27-.2,1.81-.59.25.2Zm61.9-7.66-2-.11.12-.25,2,.12ZM191.9,106.82c-.21-.29-.41-.58-.61-.88l.51-.11c.2.3.4.6.61.89Zm32-3.86-.25-.2,1.85-.56.24.21ZM280.08,96l-2-.08.1-.24,2,.07Zm34.11-4-.53,0c0-.32.06-.64.09-1l.53,0C314.26,91.32,314.23,91.65,314.19,92Zm-87.55,10.17-.23-.21,1.89-.51.22.21ZM277,95.92l-2,0,.08-.25,2.05,0Zm-47.58,5.46-.21-.22,1.92-.48.2.22ZM274,95.88h-2.05l.06-.25h2.06Zm-41.65,4.78-.19-.21,2-.46.18.23ZM191,105.49c-.19-.3-.37-.6-.55-.9l.52-.09c.17.3.36.6.54.89Zm79.9-9.58-2.06,0,0-.24,2.07,0ZM235.24,100l-.17-.22,2-.42.16.23Zm32.57-4-2.06.08v-.25l2.08-.08Zm46.5-5.47-.54,0q0-.48,0-1l.53,0C314.33,89.87,314.32,90.19,314.31,90.52ZM238.2,99.39l-.16-.23,2-.38.13.23Zm26.51-3.26-2.06.11V96l2.08-.12Zm-23.53,2.7-.13-.23,2-.35.12.23Zm20.44-2.52-2.07.16,0-.24c.7-.06,1.39-.12,2.07-.16Zm-17.42,2-.11-.24,2-.31.1.23Zm14.32-1.76-2.06.19,0-.25,2.07-.19Zm-11.28,1.29-.1-.23,2.05-.29.09.24Zm8.19-1-2.06.22-.06-.24,2.07-.23Zm-5.13.59-.08-.24,2.06-.25.07.24Zm-60.11,6.7c-.17-.3-.34-.6-.49-.91l.52-.08c.15.3.31.6.49.9ZM314.33,89.07l-.53,0,0-1,.53,0C314.31,88.42,314.33,88.74,314.33,89.07ZM189.47,102.78c-.16-.31-.31-.61-.45-.92l.53-.08c.13.3.28.61.43.91Zm124.8-15.15-.53,0q0-.49-.09-1l.53,0Q314.24,87.14,314.27,87.63ZM188.82,101.4c-.14-.31-.27-.62-.39-.92l.53-.08c.12.3.24.61.38.92ZM314.13,86.19l-.53,0c-.05-.32-.1-.64-.15-.94l.53-.05C314,85.54,314.09,85.86,314.13,86.19ZM188.26,100c-.12-.32-.23-.63-.32-.93l.52-.07c.1.3.2.61.32.93ZM313.89,84.76l-.53,0c-.06-.32-.14-.64-.21-.94l.53-.06C313.76,84.12,313.83,84.43,313.89,84.76ZM187.8,98.61l-.05-.18c-.07-.27-.14-.52-.19-.77l.53,0c0,.24.11.5.19.76l0,.18ZM313,83.41c-.1-.33-.2-.64-.31-.93l.52-.08c.12.29.22.61.32.94ZM188,97.14l-.53,0a6,6,0,0,1-.09-1l.54,0A4.8,4.8,0,0,0,188,97.14ZM312.52,82l-.23-.45.52-.09.23.46Z"/><path class="cls-13" d="M201.08,108.54a2.73,2.73,0,0,1-1.47-.16l-.32-.15.41-.18.29.14a2.06,2.06,0,0,0,1.21.08l.12.24ZM306.6,96.13l-.1-.24a1.4,1.4,0,0,0,.76-.31c.12-.11.24-.24.35-.36l.49.06a3.41,3.41,0,0,1-.37.39A2.15,2.15,0,0,1,306.6,96.13Zm-1.11.06c-.55,0-1.19-.06-2-.16l.19-.24a16.42,16.42,0,0,0,1.93.15ZM202.34,108.26l-.24-.2c.46-.14,1-.34,1.7-.62l.31.18C203.4,107.91,202.84,108.11,202.34,108.26ZM302.48,95.9c-.58-.07-1.21-.17-1.9-.27l.22-.24,1.9.27ZM205,107.28l-.33-.17,1.63-.7.33.18Zm-6.29.59a8.22,8.22,0,0,1-1-.79l.48-.14a7.77,7.77,0,0,0,1,.77Zm109.8-13.08-.51,0a5,5,0,0,0,.49-1l.52,0A5.53,5.53,0,0,1,308.46,94.79Zm-8.82.69-1.88-.28L298,95l1.89.29Zm-92.25,10.76-.33-.17,1.62-.7.33.17Zm89.42-11.18-1.9-.26.21-.24,1.9.26Zm-87,10.14-.32-.18,1.66-.68.31.18Zm-12.62,1.46c-.25-.26-.51-.55-.76-.86l.5-.11c.25.3.5.59.75.84ZM309.13,93.33h-.52a8.41,8.41,0,0,0,.24-1h.53A9.35,9.35,0,0,1,309.13,93.33ZM294,94.67,292,94.43l.19-.24,1.93.24Zm-81.65,9.52L212,104l1.69-.65.3.18Zm78.76-9.87-2-.2.18-.24,2,.2Zm-76.22,8.89-.3-.19,1.74-.63.28.19Zm-18.75,2.16c-.22-.29-.42-.59-.62-.89l.51-.1c.2.3.4.6.61.88ZM309.46,91.86l-.53,0c.05-.32.08-.64.1-1l.53,0C309.54,91.22,309.51,91.55,309.46,91.86ZM288.14,94l-2-.16.15-.25,2,.17Zm-70.7,8.24-.27-.19,1.78-.61.27.2Zm67.73-8.48-2-.12.13-.25,2,.13Zm-65.06,7.59-.26-.2,1.82-.58.26.21ZM195.2,104c-.18-.29-.36-.59-.52-.9l.51-.09c.17.3.34.6.52.9ZM309.59,90.41l-.54,0c0-.31,0-.63,0-1l.54,0C309.6,89.77,309.59,90.09,309.59,90.41Zm-27.42,3.2-2-.08.11-.25c.68,0,1.36,0,2,.09Zm-59.33,6.92-.25-.2c.61-.19,1.23-.37,1.87-.55l.23.21Zm56.3-7-2,0,.09-.25,2.05,0Zm-53.52,6.24-.22-.21,1.89-.51.21.22C226.86,99.39,226.23,99.56,225.62,99.73Zm50.47-6.3c-.67,0-1.35,0-2,0l.07-.25h2.05ZM228.46,99l-.21-.22,1.93-.47.19.22Zm-34,3.69c-.16-.3-.3-.6-.45-.91l.52-.08c.14.3.29.61.45.91ZM273,93.42l-2,0,0-.25,2.07,0Zm-41.68,4.86-.19-.22c.64-.15,1.29-.3,2-.44l.17.22ZM309.57,89,309,89c0-.32,0-.64-.07-1l.53,0C309.53,88.32,309.55,88.64,309.57,89Zm-39.63,4.51-2.06.06,0-.25,2.07-.06Zm-35.68,4.16-.16-.23,2-.41.15.23Zm32.58-4.06-2.06.1v-.25l2.07-.1ZM237.22,97l-.14-.23,2-.38.13.23Zm26.53-3.3-2.07.13v-.25l2.08-.13Zm-23.54,2.74-.13-.23,2-.35.12.24Zm20.44-2.54-2.07.17,0-.25,2.07-.16Zm-17.42,2-.11-.23,2-.31.1.23Zm14.32-1.77-2.06.19,0-.24,2.07-.2ZM246.28,95.5l-.1-.23,2-.29.08.24Zm8.18-1-2.05.22-.07-.24,2.07-.23Zm-5.13.6-.08-.24,2.06-.26.07.24Zm-55.55,6.21-.38-.92.52-.08c.12.31.25.61.39.92ZM309.45,87.52l-.53,0c0-.32-.09-.64-.13-.95l.53-.05C309.37,86.88,309.41,87.2,309.45,87.52ZM193.22,99.91c-.12-.31-.23-.63-.34-.93l.53-.07c.1.3.22.61.33.93Zm116-13.82-.53,0c0-.32-.11-.64-.18-.94l.53-.06C309.13,85.45,309.19,85.77,309.24,86.09ZM192.73,98.51c-.11-.32-.2-.63-.29-.94l.53-.06c.09.3.18.61.28.93ZM309,84.67l-.53.06c-.07-.33-.15-.65-.23-1l.53-.06C308.81,84,308.89,84.34,309,84.67ZM192.84,97l-.53.06c-.09-.33-.16-.65-.23-.94l.53-.06C192.67,96.39,192.75,96.71,192.84,97ZM308.08,83.32c-.1-.34-.2-.65-.29-.94l.53-.06c.09.28.18.59.28.93ZM192.51,95.63l-.53.06a7.84,7.84,0,0,1-.13-1l.53,0A7.61,7.61,0,0,0,192.51,95.63ZM307.63,81.92c-.12-.31-.22-.56-.31-.75l.52-.08c.09.19.2.45.31.76Z"/><path class="cls-13" d="M202.27,105.35l-.13-.23a10,10,0,0,0,1.74-.54l.29.19A12.22,12.22,0,0,1,202.27,105.35ZM303.42,93.44a15.41,15.41,0,0,1-2.06-.14l.19-.24a14.87,14.87,0,0,0,1.92.13Zm1.18-.24-.4-.14a.2.2,0,0,0,.09-.09,3.64,3.64,0,0,0,.44-.8h.52a4.23,4.23,0,0,1-.45.84A.71.71,0,0,1,304.6,93.2ZM201.05,105.28l-.09,0a7.45,7.45,0,0,1-1-.75l.49-.14a6.2,6.2,0,0,0,.91.73l.05,0Zm4-.84-.32-.18,1.66-.68.32.18Zm95.36-11.26-1.92-.25.21-.24,1.91.25Zm-92.87,10.24-.32-.18,1.67-.67.31.18Zm90-10.62-1.91-.26.2-.24,1.92.26Zm7.91-1.11h-.53a6.52,6.52,0,0,0,.19-1h.54A6.92,6.92,0,0,1,305.43,91.69ZM199.6,104.05a8.43,8.43,0,0,1-.68-.87l.51-.11a7.29,7.29,0,0,0,.67.86ZM210,102.41l-.31-.18,1.69-.65.31.18Zm84.63-10-1.93-.23.18-.24,2,.23Zm-82.09,9-.3-.19c.56-.21,1.13-.42,1.74-.63l.28.19Zm79.18-9.35-1.95-.2.17-.25,2,.2Zm13.93-1.86-.53,0c0-.3,0-.62,0-1l.53,0C305.69,89.6,305.69,89.92,305.67,90.23Zm-107,12.5a9.81,9.81,0,0,1-.51-.91l.52-.09c.16.32.33.62.5.9Zm16.53-2.23-.29-.2,1.79-.6.27.19Zm73.65-8.7-2-.16.15-.25,2,.16Zm-71,7.8-.27-.2,1.82-.58.25.2Zm68-8-2-.12.14-.25,2,.13Zm19.8-2.78-.52,0c0-.31-.07-.63-.12-.95l.53-.05C305.58,88.15,305.62,88.47,305.64,88.78Zm-85.11,10-.24-.2,1.85-.55.24.21Zm62.32-7.35c-.66,0-1.33-.07-2-.09l.11-.25,2,.09Zm-85,10q-.21-.45-.39-.93l.53-.07c.12.31.25.62.38.92Zm25.41-3.43-.23-.2c.61-.18,1.24-.35,1.89-.52l.21.21Zm56.51-6.67-2-.05.1-.25,2,.05Zm-53.69,5.91-.21-.21,1.92-.49.2.22Zm50.63-6h-2l.07-.25h2.06ZM229,96.46l-.19-.22,1.95-.45.18.22Zm44.7-5.28-2.06,0,.05-.25,2.07,0Zm31.75-3.83-.53.05c-.06-.31-.12-.63-.2-.94l.53-.06C305.33,86.71,305.39,87,305.45,87.35ZM197.34,100c-.11-.31-.21-.62-.31-.94l.53-.06c.1.31.2.62.31.93Zm34.57-4.18-.17-.22,2-.43.16.23Zm38.7-4.57-2.06.06,0-.25,2.08-.06Zm-35.75,4-.16-.23,2-.39.14.23Zm32.66-3.86-2.07.09,0-.24,2.07-.09Zm-29.68,3.28-.14-.23,2-.36.13.24Zm26.58-3.13-2.06.12v-.25l2.08-.12Zm-23.57,2.61-.12-.24,2-.33.11.24C242.18,93.84,241.51,94,240.85,94.07Zm20.47-2.42-2.06.15,0-.24,2.07-.16Zm-17.44,1.93-.1-.23,2-.31.09.24Zm14.35-1.69-2.07.18,0-.24,2.08-.19Zm-11.3,1.25-.09-.24,2.06-.27.07.24Zm8.2-1-2.06.22,0-.25,2.07-.21Zm-5.14.57-.06-.24,2.06-.24.06.24Zm55.15-6.81-.53.06-.09-.35-.17-.59.53-.06c.06.19.11.39.16.59ZM196.9,98.56l-.08-.25c-.06-.23-.12-.46-.17-.69l.53-.05c0,.22.11.45.17.68l.07.25Zm107.31-14c-.1-.31-.2-.62-.31-.93l.53-.07c.11.31.21.62.31.94ZM197.07,97.09l-.53.06c-.08-.32-.14-.63-.21-.94l.53-.06C196.92,96.46,197,96.78,197.07,97.09Zm106.68-13.9-.34-.93.53-.07q.17.45.33.93Zm-107,12.49-.53,0c-.06-.32-.12-.64-.17-1l.53,0C196.65,95,196.71,95.35,196.77,95.68ZM303.24,81.8l-.35-.93.52-.07.35.92ZM196.52,94.26l-.53,0-.16-1,.53,0Z"/><path class="cls-18" d="M248.57,18.06c-.3-2.1-3.45-1.73-7.32-1.28s-7,.81-6.71,2.9S238,21.41,241.85,21,248.86,20.14,248.57,18.06Z"/><path class="cls-18" d="M306.12,86.7a22.35,22.35,0,0,1,6.64,1.45c1.75.31,3.49.7,5.24,1.13a1.75,1.75,0,0,0-.26-.55l-1.08-.37c2.89.33,5.06.13,6.45-1-.36-7.14-7.89-45.36-26.79-57.55C285.68,23,265.74,18.19,241.85,21S200,32.9,191.66,42c-14.85,16.1-11.37,54.79-9.71,61.78,1.65.74,3.83.44,6.54-.54l-1,.61a.78.78,0,0,0-.08.32,7.34,7.34,0,0,1,3.25-1.52c.6-.25,1.2-.49,1.81-.72,3.57-2.33,7.78-5,12.1-6.06,0-.14.08-.23.14-.25,3.07-1.06,5.75-2.67,8.67-4l1-.41a20.61,20.61,0,0,1,6.49-2.89.36.36,0,0,1,.16-.21,39.24,39.24,0,0,1,7.36-2.55,13.45,13.45,0,0,1,4.77-1.46c1.76-1,3.78-1.13,5.91-1.51,1.24-.22,4.46-1.39,6.06-.91a47.08,47.08,0,0,1,14-1.43c3-.34,6.13-.82,8.86-.06h0a36.41,36.41,0,0,1,7.31.09c2.31.36,4.5.91,6.86,1.09,3.26.27,7.2.28,10,1.83,0-.15-.08-.23-.14-.24,3.82.36,7.15,1.66,10.69,2.75C303.85,86,305,86.35,306.12,86.7Z"/><g class="cls-19"><path d="M274.15,42.51c.18,1,1.48,1.18,2.92.47s2.47-2.06,2.3-3-1.48-1.18-2.92-.48S274,41.54,274.15,42.51Z"/></g><path class="cls-13" d="M310.84,87.2l-.75,0L310,85.69c-.67-11.71-2.45-42.81-16.66-53.35C283.43,25,274.57,20.24,243,21.14v-.63c31.82-.91,40.79,3.91,50.83,11.36,14.44,10.7,16.23,42,16.9,53.78Z"/><path class="cls-13" d="M185.07,104.54a6.26,6.26,0,0,1-3.36-.41l-.21-.09,0-.19c-1.22-5.1-5.87-45.13,9.8-62.12,7.65-8.3,24.94-18.22,50.53-21.19s45.11,2.69,54.85,9c19.94,12.86,26.71,52.65,27,57.86v.19l-.17.13a6.07,6.07,0,0,1-3.14,1.17c-3.57.41-9-1-15.91-2.68-13.22-3.3-31.32-7.83-53.7-5.24l-.53.07c-22.37,2.59-38.61,11.1-50.46,17.31-6.19,3.24-11.07,5.8-14.64,6.22Zm-2.67-1.07a5.33,5.33,0,0,0,2.55.24h0c3.35-.39,8.15-2.91,14.23-6.09,11.93-6.26,28.28-14.83,50.87-17.45l.54-.06c22.59-2.62,40.81,1.94,54.12,5.27,6.78,1.69,12.14,3,15.48,2.64a5.12,5.12,0,0,0,2.4-.8c-.53-8.8-8.6-45.45-26.58-57-9.58-6.18-28.82-11.74-54.1-8.81s-42.33,12.7-49.86,20.86C177.93,57.55,180.44,94.84,182.4,103.47Z"/><path class="cls-13" d="M193.76,100.78l-.35-1.52c-2.66-11.55-9.74-42.24,1.21-55.89,7.62-9.49,14.94-16.2,46-22.58l.17.62c-30.76,6.32-38,12.93-45.51,22.31-10.78,13.43-3.74,43.93-1.09,55.41l.34,1.52Z"/><path class="cls-13" d="M320.05,85.91a13.23,13.23,0,0,1-1.46.07v-.42a10.85,10.85,0,0,0,1.9-.15l.1.42ZM184.5,101.62l-.14,0-.05-.42h.13a11.53,11.53,0,0,0,1.73-.35l.15.4A11.44,11.44,0,0,1,184.5,101.62Zm-1.16.06a5.47,5.47,0,0,1-2-.4l.23-.38a5,5,0,0,0,1.78.36Zm138.24-16.1-.18-.39a4.41,4.41,0,0,0,1.26-.65l.33.31A5.08,5.08,0,0,1,321.58,85.58Zm-4,.36c-.6,0-1.25-.11-2-.21l.09-.41c.7.09,1.33.16,1.92.2ZM187.26,101l-.17-.39c.55-.18,1.14-.4,1.78-.67l.22.38C188.43,100.57,187.83,100.79,187.26,101Zm127.4-15.4-1.92-.36.13-.41,1.89.36ZM190,99.92l-.23-.37c.56-.24,1.13-.51,1.73-.79l.24.36C191.12,99.41,190.54,99.68,190,99.92ZM311.79,85c-.61-.13-1.24-.27-1.89-.43l.14-.4,1.89.43ZM192.58,98.71l-.25-.37,1.7-.84.26.35ZM309,84.35l-1.88-.45.15-.41c.64.16,1.26.32,1.88.46ZM195.13,97.42l-.26-.36,1.68-.87.26.35Zm111-13.76-1.87-.47.15-.4,1.88.47ZM197.66,96.1l-.27-.35,1.68-.89.27.36ZM303.33,83l-1.87-.47.15-.4,1.88.47ZM200.18,94.78l-.27-.35,1.69-.88.26.36C201.28,94.2,200.72,94.5,200.18,94.78ZM300.52,82.27l-1.87-.45.14-.41,1.88.45ZM202.7,93.47l-.26-.36,1.69-.85.26.35Zm95-11.87c-.61-.15-1.24-.29-1.88-.43l.14-.41,1.89.43ZM205.24,92.19l-.25-.36L206.7,91l.24.36ZM294.88,81l-1.9-.4.13-.41,1.9.4Zm-87.08,10-.25-.36,1.73-.82.24.36ZM292,80.37l-1.9-.38.11-.4,1.91.37Zm-81.66,9.34-.23-.36,1.74-.8.23.37Zm78.8-9.89-1.91-.34.11-.41,1.92.34ZM213,88.54l-.23-.38,1.77-.76.22.38Zm73.32-9.22q-.94-.16-1.92-.3l.1-.42,1.93.3Zm-70.68,8.09-.22-.38,1.78-.73.22.38C216.81,86.92,216.21,87.16,215.63,87.41Zm67.8-8.53c-.63-.1-1.27-.18-1.93-.27l.09-.41,1.94.26ZM218.3,86.33l-.21-.38q.89-.36,1.8-.69l.2.37Zm62.23-7.84-1.93-.22.08-.42,1.94.22ZM221,85.3l-.2-.38,1.82-.66.19.39C222.19,84.86,221.59,85.08,221,85.3Zm56.63-7.14L275.69,78l.06-.42,1.95.19Zm-53.91,6.17-.19-.39,1.84-.61.18.39Zm51-6.43-1.95-.13.05-.42c.66,0,1.31.08,2,.14Zm-48.24,5.52L226.3,83l1.86-.58.16.4Zm45.32-5.71-2-.1,0-.42,2,.1Zm-42.54,4.86-.16-.4,1.88-.53.15.4Zm39.6-5c-.64,0-1.3,0-2-.06l0-.41c.66,0,1.31,0,2,0Zm-36.8,4.21-.14-.41,1.89-.49.13.41Zm33.87-4.28h-2v-.42h2Zm-31,3.55-.13-.4,1.9-.45.13.41ZM263,77.52l-2,0v-.42l2,0Zm-25.25,2.89-.12-.41c.63-.14,1.27-.28,1.92-.4l.11.41C239,80.13,238.36,80.27,237.73,80.41ZM260,77.59c-.65,0-1.31,0-2,.09l0-.42,2-.08Zm-19.45,2.23-.1-.41c.64-.13,1.28-.25,1.93-.36l.1.41C241.87,79.57,241.23,79.69,240.59,79.82Zm16.51-2.09-2,.14,0-.42c.66,0,1.32-.1,2-.13Zm-13.62,1.56-.09-.41,1.94-.31.08.41Zm10.69-1.35-2,.18-.05-.41,2-.18Zm-7.79.89-.08-.41,1.95-.27.07.42Zm4.86-.61-1.18.13-.77.09-.06-.41.77-.09,1.18-.13Z"/><path class="cls-18" d="M277.07,44.32h0A2.91,2.91,0,0,1,274,42a3.4,3.4,0,0,1,2.13-4.08,3.25,3.25,0,0,1,.62-.13,2.91,2.91,0,0,1,3.05,2.36,3.39,3.39,0,0,1-2.13,4.07A2.66,2.66,0,0,1,277.07,44.32Zm-.1-4.88a2.17,2.17,0,0,0-.43.08,1.93,1.93,0,0,0-1.38,2.08,1.55,1.55,0,0,0,1.69,1h0a3,3,0,0,0,.43-.09,1.92,1.92,0,0,0,1.38-2.08A1.53,1.53,0,0,0,277,39.44Z"/><path class="cls-13" d="M241.91,21.37c-4,.47-7.51.87-7.87-1.63s3.12-2.91,7.15-3.38,7.52-.87,7.87,1.64S245.94,20.91,241.91,21.37Zm-.6-4.17c-4,.46-6.5.83-6.27,2.42s2.71,1.39,6.75.92,6.5-.83,6.27-2.43S245.35,16.73,241.31,17.2Z"/><path class="cls-20" d="M266.33,62.75,264,42.42h0l-.72-6.1a6.26,6.26,0,0,0-.1-.74,2.37,2.37,0,0,0-2.46-1.88l-.52.05-31.25,3.62-.47.06a2.33,2.33,0,0,0-1.49.84,2.52,2.52,0,0,0-.52,2l.3,2.63h0l2.57,22.14h0c.26,2.18.51,4.35.77,6.52a5.29,5.29,0,0,0,.13.78,2.35,2.35,0,0,0,2.19,1.82,5,5,0,0,0,1-.06L262,70.81l2.68-.31a2.5,2.5,0,0,0,1.44-.6,2.38,2.38,0,0,0,.79-2.19l-.57-5Z"/><path class="cls-15" d="M252.58,61.54l5.52,5.05c-.1.18-.24.13-.35.14l-6,.71a.81.81,0,0,1-.75-.26c-1.17-1.19-2.37-2.36-3.54-3.56a.93.93,0,0,0-.84-.28,11,11,0,0,1-4.79-.52A8.16,8.16,0,0,1,237,58.3,13.46,13.46,0,0,1,236,54.61a14.91,14.91,0,0,1,0-5.41,8.18,8.18,0,0,1,2.88-4.91A9.13,9.13,0,0,1,242,42.65a14.36,14.36,0,0,1,5.75-.58,8,8,0,0,1,7,5.14,16,16,0,0,1,1,9,7.87,7.87,0,0,1-3,5.14A.26.26,0,0,0,252.58,61.54Z"/><path class="cls-20" d="M250,52.47a9.19,9.19,0,0,1-.17,3.46,3.39,3.39,0,0,1-2.08,2.43,4.87,4.87,0,0,1-2.39.29,3.48,3.48,0,0,1-2.68-1.93,6.49,6.49,0,0,1-.7-1.87,12.72,12.72,0,0,1-.29-4.72,6.6,6.6,0,0,1,.17-.77A3.54,3.54,0,0,1,245,46.7a4.66,4.66,0,0,1,1.58,0,3.58,3.58,0,0,1,2.52,2.14A10.92,10.92,0,0,1,250,52.47Z"/><g class="cls-19"><path d="M211.47,48.83c.17,1,1.47,1.19,2.91.48s2.48-2.07,2.3-3-1.47-1.19-2.91-.48S211.3,47.86,211.47,48.83Z"/></g><path class="cls-18" d="M214.38,50.64h0a2.9,2.9,0,0,1-3-2.35,3.39,3.39,0,0,1,2.13-4.08,3.14,3.14,0,0,1,.61-.12,2.9,2.9,0,0,1,3.05,2.35A3.39,3.39,0,0,1,215,50.52,3.14,3.14,0,0,1,214.38,50.64Zm-.1-4.88a1.58,1.58,0,0,0-.42.09,1.91,1.91,0,0,0-1.38,2.07,1.54,1.54,0,0,0,1.69,1h0a2.17,2.17,0,0,0,.43-.08A1.91,1.91,0,0,0,216,46.81,1.54,1.54,0,0,0,214.28,45.76Z"/></g></g></g></svg>